<svg xmlns="http://www.w3.org/2000/svg" viewBox="0 0 64 52"><defs><style>.cls-1{fill:#fff;}</style></defs><title>Asset 7</title><g id="Layer_2" data-name="Layer 2"><g id="Layer_1-2" data-name="Layer 1"><path d="M32,2.35A23.87,23.87,0,0,0,8,26,23.87,23.87,0,0,0,32,49.65,23.87,23.87,0,0,0,56,26,23.87,23.87,0,0,0,32,2.35Zm0,48.08A24.66,24.66,0,0,1,7.17,26,24.66,24.66,0,0,1,32,1.57,24.66,24.66,0,0,1,56.83,26,24.66,24.66,0,0,1,32,50.43ZM32,.78A25.46,25.46,0,0,0,6.37,26,25.46,25.46,0,0,0,32,51.22,25.46,25.46,0,0,0,57.63,26,25.46,25.46,0,0,0,32,.78ZM32,52A26.24,26.24,0,0,1,5.58,26,26.24,26.24,0,0,1,32,0,26.24,26.24,0,0,1,58.42,26,26.24,26.24,0,0,1,32,52Z"/><path d="M63.42,34.08V18.39a1.28,1.28,0,0,0-1.3-1.31H43.17a14.81,14.81,0,0,0-23,0H1.88a1.28,1.28,0,0,0-1.3,1.31V34.08a1.28,1.28,0,0,0,1.3,1.31H19.79a14.81,14.81,0,0,0,23.79,0H62.12A1.28,1.28,0,0,0,63.42,34.08Z"/><path d="M1.87,17.65a.68.68,0,0,0-.73.74V34.08a.68.68,0,0,0,.73.74h18.2l.17.23a14.25,14.25,0,0,0,22.89,0l.17-.23H62.13a.68.68,0,0,0,.73-.74V18.39a.68.68,0,0,0-.73-.74H42.91l-.17-.21a14.24,14.24,0,0,0-22.1,0l-.17.21ZM31.69,41a14.31,14.31,0,0,1-11.6-5.84L20,35H1.87A.87.87,0,0,1,1,34.08V18.39a.88.88,0,0,1,.92-.93H20.38l.11-.14a14.42,14.42,0,0,1,22.39,0l.12.14H62.13a.87.87,0,0,1,.92.93V34.08a.87.87,0,0,1-.92.93H43.4l-.12.15A14.29,14.29,0,0,1,31.69,41ZM20.2,17.18H1.87a1.52,1.52,0,0,0-.61.15,1.09,1.09,0,0,0-.59,1.06V34.08a1.49,1.49,0,0,0,.15.61,1.08,1.08,0,0,0,1.05.61h18l0,0a14.71,14.71,0,0,0,23.65,0l0,0H62.13a1.65,1.65,0,0,0,.61-.16,1.09,1.09,0,0,0,.59-1.06V18.39a1.52,1.52,0,0,0-.15-.61,1.08,1.08,0,0,0-1-.6h-19l0,0a14.71,14.71,0,0,0-22.83,0l0,0Zm11.49,24.3a14.79,14.79,0,0,1-12-6H1.87a1.27,1.27,0,0,1-1.22-.71,1.72,1.72,0,0,1-.17-.7V18.39a1.27,1.27,0,0,1,.7-1.23A1.72,1.72,0,0,1,1.87,17H20.15a14.9,14.9,0,0,1,23.07,0H62.13a1.26,1.26,0,0,1,1.22.7,1.79,1.79,0,0,1,.17.7V34.08a1.27,1.27,0,0,1-.7,1.23,1.84,1.84,0,0,1-.69.18H43.63A14.78,14.78,0,0,1,31.69,41.48ZM1.87,16.7A1.64,1.64,0,0,0,.19,18.39V34.08a1.64,1.64,0,0,0,1.68,1.69H19.6l0,0a15.18,15.18,0,0,0,24.12,0l0,0H62.13a1.64,1.64,0,0,0,1.68-1.69V18.39a1.64,1.64,0,0,0-1.68-1.69H43.35l0,0a15.17,15.17,0,0,0-23.28,0l0,0ZM31.69,42A15.29,15.29,0,0,1,19.5,36H1.87A1.82,1.82,0,0,1,0,34.08V18.39a1.82,1.82,0,0,1,1.87-1.88H19.93a15.37,15.37,0,0,1,23.51,0H62.13A1.82,1.82,0,0,1,64,18.39V34.08A1.82,1.82,0,0,1,62.13,36H43.87A15.29,15.29,0,0,1,31.69,42Z"/><path class="cls-1" d="M35.53,34.86H47V32.19H39.27V27.53H44.6V24.94H39.27V20.62h7.44V17.88H35.53ZM25.17,32.43c-2.5,0-4.27-1.84-4.27-6s1.77-6.09,4.27-6.09,4.27,1.92,4.27,6.09S27.65,32.43,25.17,32.43Zm0,2.62c4.34,0,8.15-3.08,8.15-8.68s-3.81-8.69-8.15-8.69S17,20.76,17,26.37,20.83,35.05,25.17,35.05Z"/><path d="M45.51,13.86l2.31-2.15.27.29c.66.71.64,1.32-.19,2.1s-1.47.76-2.12.06Zm-1.24-.26,1,1.05a2.14,2.14,0,0,0,3.38.21c1.16-1.08,1.08-2.2,0-3.34l-1-1.07Zm-3.08-2.15,2.58,1.75.41-.61-1.74-1.17.71-1.06,1.21.82.39-.59-1.2-.81.66-1,1.68,1.13.42-.62-2.53-1.7Zm-2.86-1.28,1,.39,3-3.48.1-.25-.79-.32L39.34,9.26h0l.23-3.58-.91-.37-.1.25ZM34.71,8.6C34,8.51,33.62,8,33.77,6.83s.7-1.58,1.37-1.49,1.09.67.93,1.8S35.37,8.69,34.71,8.6Zm-.1.71a2.21,2.21,0,0,0,2.52-2.05,2.23,2.23,0,1,0-4.41-.59A2.2,2.2,0,0,0,34.61,9.31ZM29.16,5.37l.5,0c.54-.06.78.15.83.59s-.15.72-.68.78l-.5,0Zm2,3.7L32.1,9l0-.27L30.92,7.08a1.32,1.32,0,0,0,.6-1.34c-.1-.88-.79-1.27-1.92-1.15l-1.54.17.5,4.59,1-.11-.19-1.8.6-.06ZM24.53,6.51,25,6.35c.62-.2.86,0,1,.45s0,.8-.54,1L25,8Zm.26,4,1-.33-.53-1.58.45-.16c1.13-.37,1.61-1,1.3-2s-1.1-1.19-2.21-.82l-1.46.49ZM20.24,8.59l.41-.24c.56-.34.84-.21,1.09.22s.23.76-.31,1.08L21,9.9Zm1.11,3.87.89-.53-.86-1.44.41-.24c1-.61,1.35-1.37.84-2.23S21.3,7.1,20.29,7.7L19,8.49Zm-4.53-.8h0l1.58.85-.81.77Zm1.06,3.95.6-.57-.55-1.11,1.13-1.08,1.09.59.72-.69-.18-.19-4.12-2.09-.77.73,1.89,4.21Z"/><path d="M47.12,40.67l-2.48-2,.25-.32c.6-.75,1.21-.83,2.1-.12s1,1.33.38,2.08Zm-.07,1.26.89-1.12c1-1.24.93-2.4-.3-3.38s-2.35-.73-3.31.48l-.91,1.15Zm-3.91,3.24,2.46-1.92-.45-.57L43.5,44l-.78-1,1.14-.89-.43-.56-1.15.89-.72-.93,1.6-1.24-.46-.59-2.4,1.87Zm-4,1.9,1-.41-.3-4.6-.11-.25-.78.33.3,3.58h0L36.81,43l-.9.39.1.25Zm-5.1.49c-.68.09-1.22-.35-1.36-1.47s.26-1.71.94-1.79,1.22.37,1.36,1.5S34.67,47.48,34,47.56Zm.09.71a2.37,2.37,0,1,0-2.51-2.07A2.19,2.19,0,0,0,34.1,48.27Zm-5.87-4.13.5.06c.53.07.73.33.67.77s-.31.66-.85.59l-.49-.06Zm1.08,4.06.94.12,0-.27-.75-1.85a1.29,1.29,0,0,0,.9-1.15c.11-.89-.47-1.43-1.6-1.57l-1.54-.2-.58,4.59,1,.13L28,46.2l.6.08Zm-5.13-5.43.44.18c.61.24.67.54.49,1s-.47.64-1.05.41l-.45-.18ZM21.78,46l1,.38.62-1.55.44.17c1.11.44,1.91.24,2.28-.68s-.08-1.62-1.16-2l-1.43-.57Zm-1.16-5.56.38.29c.53.39.52.69.22,1.09s-.62.5-1.12.13l-.39-.29ZM17.48,43l.82.61,1-1.34.38.29c1,.7,1.79.72,2.38-.08s.34-1.58-.6-2.28l-1.23-.92Zm.21-5.3h0l-1,1.48L16,38.27Zm-4,.65.5.65,1.16-.42.95,1.23-.7,1,.62.79.21-.16,2.5-3.89-.65-.84-4.38,1.45Z"/></g></g></svg>