<svg xmlns="http://www.w3.org/2000/svg" viewBox="0 0 152 40"><defs><style>.cls-1{fill:#f9a31a;}.cls-2,.cls-3{fill:none;stroke:#f9a31a;}.cls-3{stroke-linecap:round;stroke-width:1.5px;}</style></defs><title>Asset 1</title><g id="Layer_2" data-name="Layer 2"><g id="Layer_1-2" data-name="Layer 1"><path class="cls-1" d="M0,20a18.25,18.25,0,0,1,.1-2c.06-.65.16-1.3.28-1.94s.29-1.28.48-1.91.41-1.24.66-1.84a19.27,19.27,0,0,1,.84-1.78c.31-.58.65-1.14,1-1.68A17.9,17.9,0,0,1,4.54,7.31c.42-.5.85-1,1.32-1.45S6.81,5,7.31,4.54A17.9,17.9,0,0,1,8.89,3.37c.54-.36,1.1-.7,1.68-1a19.27,19.27,0,0,1,1.78-.84c.6-.25,1.22-.47,1.84-.66S15.46.51,16.1.38,17.39.16,18,.1A18.25,18.25,0,0,1,20,0H132a18.25,18.25,0,0,1,2,.1c.65.06,1.3.16,1.94.28s1.28.29,1.91.48,1.24.41,1.84.66a19.27,19.27,0,0,1,1.78.84c.58.31,1.14.65,1.68,1a17.9,17.9,0,0,1,1.58,1.17c.5.42,1,.85,1.45,1.32s.9.95,1.32,1.45a17.9,17.9,0,0,1,1.17,1.58c.36.54.7,1.1,1,1.68a19.27,19.27,0,0,1,.84,1.78c.25.6.47,1.22.66,1.84s.35,1.27.48,1.91.22,1.29.28,1.94a19.26,19.26,0,0,1,0,3.92c-.06.65-.16,1.3-.28,1.94s-.29,1.28-.48,1.91-.41,1.24-.66,1.84a19.27,19.27,0,0,1-.84,1.78c-.31.58-.65,1.14-1,1.68a17.9,17.9,0,0,1-1.17,1.58c-.42.5-.85,1-1.32,1.45s-.95.9-1.45,1.32a17.9,17.9,0,0,1-1.58,1.17c-.54.36-1.1.7-1.68,1a19.27,19.27,0,0,1-1.78.84c-.6.25-1.22.47-1.84.66s-1.27.35-1.91.48-1.29.22-1.94.28a18.25,18.25,0,0,1-2,.1H20a18.25,18.25,0,0,1-2-.1c-.65-.06-1.3-.16-1.94-.28s-1.28-.29-1.91-.48-1.24-.41-1.84-.66a19.27,19.27,0,0,1-1.78-.84c-.58-.31-1.14-.65-1.68-1a17.9,17.9,0,0,1-1.58-1.17c-.5-.42-1-.85-1.45-1.32s-.9-1-1.32-1.45a17.9,17.9,0,0,1-1.17-1.58c-.36-.54-.7-1.1-1-1.68a19.27,19.27,0,0,1-.84-1.78c-.25-.6-.47-1.22-.66-1.84S.51,24.54.38,23.9.16,22.61.1,22A18.38,18.38,0,0,1,0,20Z"/><path d="M63.38,24.23a2.56,2.56,0,0,1,.12.45.26.26,0,0,1-.06.25.62.62,0,0,1-.31.1l-.6,0h-.62a1.92,1.92,0,0,1-.34-.05.34.34,0,0,1-.16-.1.6.6,0,0,1-.08-.16l-.68-2h-3.8l-.64,2a.68.68,0,0,1-.08.19A.36.36,0,0,1,56,25a1.07,1.07,0,0,1-.32.06l-.54,0a4,4,0,0,1-.56,0,.39.39,0,0,1-.28-.11.32.32,0,0,1-.06-.25,3.38,3.38,0,0,1,.12-.44l3.12-9a.52.52,0,0,1,.11-.21.37.37,0,0,1,.2-.13,1.2,1.2,0,0,1,.38-.05l.64,0,.73,0a1.63,1.63,0,0,1,.43.05.36.36,0,0,1,.21.13.62.62,0,0,1,.12.23Zm-4.64-7.41h0l-1.43,4.3h2.87Z"/><path d="M71.29,24.73a.24.24,0,0,1,0,.15.34.34,0,0,1-.13.1,1.33,1.33,0,0,1-.26.05l-.39,0-.41,0a1.22,1.22,0,0,1-.25-.05.32.32,0,0,1-.14-.1.24.24,0,0,1,0-.15V24a4.38,4.38,0,0,1-1.13.9,2.76,2.76,0,0,1-1.31.32,2.7,2.7,0,0,1-1.35-.31,2.47,2.47,0,0,1-.9-.83,3.6,3.6,0,0,1-.5-1.22,6.46,6.46,0,0,1-.16-1.48,6.59,6.59,0,0,1,.2-1.67,3.76,3.76,0,0,1,.58-1.26,2.67,2.67,0,0,1,1-.81,2.87,2.87,0,0,1,1.31-.28,2.33,2.33,0,0,1,1.06.24,3.85,3.85,0,0,1,1,.7V14.48a.25.25,0,0,1,0-.14.34.34,0,0,1,.16-.1,1.33,1.33,0,0,1,.3-.07l.47,0,.48,0a1.67,1.67,0,0,1,.3.07.36.36,0,0,1,.15.1.27.27,0,0,1,.05.14Zm-2-4.65a4.11,4.11,0,0,0-.81-.81,1.36,1.36,0,0,0-.81-.29,1.1,1.1,0,0,0-.66.2,1.32,1.32,0,0,0-.45.51,3,3,0,0,0-.25.71,4.36,4.36,0,0,0-.08.81,4.72,4.72,0,0,0,.07.85,3.06,3.06,0,0,0,.23.74,1.38,1.38,0,0,0,.43.52,1.09,1.09,0,0,0,.67.2,1.23,1.23,0,0,0,.39-.06,1.75,1.75,0,0,0,.39-.19,3.11,3.11,0,0,0,.42-.35c.14-.15.29-.32.46-.53Z"/><path d="M79.88,24.73a.33.33,0,0,1,0,.15.32.32,0,0,1-.14.1,1.09,1.09,0,0,1-.25.05l-.4,0-.4,0a1.33,1.33,0,0,1-.26-.05.39.39,0,0,1-.14-.1.33.33,0,0,1,0-.15V24a4.22,4.22,0,0,1-1.13.9,2.73,2.73,0,0,1-1.31.32,2.63,2.63,0,0,1-1.34-.31,2.47,2.47,0,0,1-.9-.83A3.83,3.83,0,0,1,73,22.82a7.07,7.07,0,0,1-.15-1.48,6.17,6.17,0,0,1,.2-1.67,3.57,3.57,0,0,1,.58-1.26,2.56,2.56,0,0,1,.95-.81,2.9,2.9,0,0,1,1.31-.28,2.37,2.37,0,0,1,1.07.24,3.82,3.82,0,0,1,.94.7V14.48a.37.37,0,0,1,0-.14.4.4,0,0,1,.16-.1,1.67,1.67,0,0,1,.3-.07l.48,0,.48,0a1.37,1.37,0,0,1,.29.07.34.34,0,0,1,.16.1.27.27,0,0,1,0,.14Zm-2-4.65a3.85,3.85,0,0,0-.81-.81A1.32,1.32,0,0,0,76.3,19a1.14,1.14,0,0,0-.66.2,1.3,1.3,0,0,0-.44.51,2.59,2.59,0,0,0-.25.71,3.65,3.65,0,0,0-.08.81,4.72,4.72,0,0,0,.07.85,2.38,2.38,0,0,0,.23.74,1.36,1.36,0,0,0,.42.52,1.14,1.14,0,0,0,.68.2,1.32,1.32,0,0,0,.39-.06,1.75,1.75,0,0,0,.39-.19,3.07,3.07,0,0,0,.41-.35c.14-.15.29-.32.46-.53Z"/><path d="M89.59,24.05a2.32,2.32,0,0,1,0,.52.64.64,0,0,1-.11.26.54.54,0,0,1-.21.13,2,2,0,0,1-.32.11,3.8,3.8,0,0,1-.4.06A3.4,3.4,0,0,1,87.06,25a1.72,1.72,0,0,1-.71-.46,1.88,1.88,0,0,1-.41-.78,4,4,0,0,1-.14-1.11V19.09H85a.25.25,0,0,1-.23-.18,1.75,1.75,0,0,1-.08-.61c0-.15,0-.28,0-.39a2.08,2.08,0,0,1,.06-.24.34.34,0,0,1,.1-.13.21.21,0,0,1,.14,0h.82V16a.27.27,0,0,1,0-.15.36.36,0,0,1,.15-.1,1.13,1.13,0,0,1,.31-.06,3.25,3.25,0,0,1,.47,0,3.4,3.4,0,0,1,.48,0,1,1,0,0,1,.3.06.34.34,0,0,1,.16.1.27.27,0,0,1,0,.15V17.5h1.51a.23.23,0,0,1,.14,0,.34.34,0,0,1,.1.13,1.11,1.11,0,0,1,0,.24,2.3,2.3,0,0,1,0,.39,1.8,1.8,0,0,1-.07.61c-.06.12-.13.18-.23.18H87.77v3.28a1.6,1.6,0,0,0,.18.85.7.7,0,0,0,.64.29,1.27,1.27,0,0,0,.28,0l.22-.06.16-.06.13,0a.11.11,0,0,1,.08,0,.13.13,0,0,1,.07.1,1.07,1.07,0,0,1,0,.23A1.84,1.84,0,0,1,89.59,24.05Z"/><path d="M97.91,21.18a5.15,5.15,0,0,1-.24,1.62A3.3,3.3,0,0,1,97,24.07a3.17,3.17,0,0,1-1.19.82,4.54,4.54,0,0,1-1.68.29,4.66,4.66,0,0,1-1.62-.26,2.84,2.84,0,0,1-1.14-.75A3,3,0,0,1,90.66,23a5.52,5.52,0,0,1-.22-1.64,5.26,5.26,0,0,1,.24-1.63,3.25,3.25,0,0,1,.71-1.26,3.13,3.13,0,0,1,1.19-.82,4.54,4.54,0,0,1,1.68-.29,4.92,4.92,0,0,1,1.62.25,2.84,2.84,0,0,1,1.14.75,3.16,3.16,0,0,1,.67,1.21A5.89,5.89,0,0,1,97.91,21.18Zm-2,.08a4.68,4.68,0,0,0-.08-1,2.22,2.22,0,0,0-.28-.76,1.39,1.39,0,0,0-.52-.5,1.62,1.62,0,0,0-.81-.17,1.71,1.71,0,0,0-.77.16,1.33,1.33,0,0,0-.54.46,2.32,2.32,0,0,0-.31.75,4.13,4.13,0,0,0-.11,1,4.65,4.65,0,0,0,.09.95,2.44,2.44,0,0,0,.27.76,1.36,1.36,0,0,0,.52.49,1.69,1.69,0,0,0,.82.18,1.71,1.71,0,0,0,.77-.16,1.36,1.36,0,0,0,.54-.47,2.12,2.12,0,0,0,.31-.73A4.25,4.25,0,0,0,95.88,21.26Z"/><path d="M110.19,23.47c0,.13,0,.24,0,.33a1.5,1.5,0,0,1,0,.24.59.59,0,0,1-.06.16.83.83,0,0,1-.13.16,1.18,1.18,0,0,1-.33.23,2.82,2.82,0,0,1-.6.27,5,5,0,0,1-1.8.3,5.12,5.12,0,0,1-1.88-.32,3.74,3.74,0,0,1-1.42-.95,4.4,4.4,0,0,1-.9-1.59,7.44,7.44,0,0,1-.31-2.22,7.3,7.3,0,0,1,.34-2.29,4.61,4.61,0,0,1,1-1.68,4,4,0,0,1,1.48-1,4.87,4.87,0,0,1,1.9-.35,4.28,4.28,0,0,1,.81.07,4.73,4.73,0,0,1,.72.18,3.73,3.73,0,0,1,.6.26,1.71,1.71,0,0,1,.37.26l.15.17a1.89,1.89,0,0,1,.06.18,1,1,0,0,1,0,.26,3.57,3.57,0,0,1,0,.37c0,.15,0,.29,0,.4a1.5,1.5,0,0,1,0,.26.36.36,0,0,1-.1.15.18.18,0,0,1-.12.05.56.56,0,0,1-.3-.14l-.46-.31a4,4,0,0,0-.68-.3,3,3,0,0,0-1-.14,2.34,2.34,0,0,0-1.07.25,2.23,2.23,0,0,0-.8.7,3.34,3.34,0,0,0-.51,1.11,5.91,5.91,0,0,0-.17,1.46,5.81,5.81,0,0,0,.18,1.54,3.11,3.11,0,0,0,.53,1.08,2,2,0,0,0,.82.62,2.67,2.67,0,0,0,1.08.21,2.92,2.92,0,0,0,.94-.13,3.79,3.79,0,0,0,.69-.28l.47-.28a.52.52,0,0,1,.28-.13.25.25,0,0,1,.13,0,.36.36,0,0,1,.08.13,1.3,1.3,0,0,1,0,.26C110.18,23.13,110.19,23.28,110.19,23.47Z"/><path d="M117.48,24.76a.21.21,0,0,1-.07.17.66.66,0,0,1-.25.09,3.07,3.07,0,0,1-.5,0,3.13,3.13,0,0,1-.51,0,.45.45,0,0,1-.22-.09.21.21,0,0,1-.07-.17V24.2a3.11,3.11,0,0,1-1,.72,2.9,2.9,0,0,1-1.22.26,3.64,3.64,0,0,1-1-.14,2.42,2.42,0,0,1-.81-.43,2.1,2.1,0,0,1-.53-.71,2.5,2.5,0,0,1-.18-1,2.2,2.2,0,0,1,.24-1.05,1.88,1.88,0,0,1,.71-.75,3.49,3.49,0,0,1,1.17-.43,8.72,8.72,0,0,1,1.64-.14h.67v-.42a2.52,2.52,0,0,0-.06-.58,1.08,1.08,0,0,0-.22-.41.88.88,0,0,0-.41-.24,2.25,2.25,0,0,0-.63-.08,3.28,3.28,0,0,0-.87.11q-.39.12-.69.24a4.37,4.37,0,0,0-.49.25.84.84,0,0,1-.33.11.2.2,0,0,1-.15-.06.5.5,0,0,1-.11-.16,1.09,1.09,0,0,1-.07-.25,2.88,2.88,0,0,1,0-.32,1.41,1.41,0,0,1,0-.39.6.6,0,0,1,.15-.25,1.3,1.3,0,0,1,.38-.25,3.89,3.89,0,0,1,.64-.25,5.84,5.84,0,0,1,.8-.2,5.29,5.29,0,0,1,.9-.07,5.24,5.24,0,0,1,1.4.16,2.42,2.42,0,0,1,1,.49,1.87,1.87,0,0,1,.54.86,3.83,3.83,0,0,1,.17,1.24Zm-1.93-3h-.75a4.7,4.7,0,0,0-.81.07,1.69,1.69,0,0,0-.54.21.83.83,0,0,0-.31.34,1,1,0,0,0-.1.46.88.88,0,0,0,.28.69,1.08,1.08,0,0,0,.77.25,1.45,1.45,0,0,0,.76-.21,3,3,0,0,0,.7-.62Z"/><path d="M123.92,18.41c0,.19,0,.34,0,.47a1.43,1.43,0,0,1,0,.28.37.37,0,0,1-.08.14.28.28,0,0,1-.13,0l-.14,0-.18-.06-.21-.06a1.09,1.09,0,0,0-.26,0,1,1,0,0,0-.33.07,1.16,1.16,0,0,0-.34.21,2.58,2.58,0,0,0-.37.37c-.12.16-.26.35-.41.58v4.34a.21.21,0,0,1,0,.14.4.4,0,0,1-.16.1,1.76,1.76,0,0,1-.3.06l-.48,0L120,25a1.76,1.76,0,0,1-.3-.06.4.4,0,0,1-.16-.1.21.21,0,0,1,0-.14v-7a.29.29,0,0,1,0-.14.36.36,0,0,1,.15-.1,1.12,1.12,0,0,1,.26-.06l.4,0,.41,0a1.12,1.12,0,0,1,.26.06.34.34,0,0,1,.13.1.29.29,0,0,1,0,.14v.86a5.49,5.49,0,0,1,.51-.64,2.61,2.61,0,0,1,.46-.4,1.47,1.47,0,0,1,.44-.21,1.61,1.61,0,0,1,.44-.06h.22l.24,0,.22.06a.49.49,0,0,1,.13.08.27.27,0,0,1,.07.08l0,.13a1.47,1.47,0,0,1,0,.25C123.92,18.08,123.92,18.23,123.92,18.41Z"/><path d="M129.26,24.05a2.21,2.21,0,0,1,0,.52.45.45,0,0,1-.11.26.47.47,0,0,1-.21.13,1.69,1.69,0,0,1-.32.11c-.12,0-.25.05-.39.06a3.25,3.25,0,0,1-.44,0,3,3,0,0,1-1-.15,1.6,1.6,0,0,1-.71-.46,1.89,1.89,0,0,1-.42-.78,4,4,0,0,1-.13-1.11V19.09h-.84c-.1,0-.17-.06-.22-.18a1.53,1.53,0,0,1-.08-.61,2.3,2.3,0,0,1,0-.39.7.7,0,0,1,.06-.24.25.25,0,0,1,.09-.13.23.23,0,0,1,.14,0h.83V16a.26.26,0,0,1,0-.15.34.34,0,0,1,.16-.1,1,1,0,0,1,.3-.06,5.77,5.77,0,0,1,1,0,1.13,1.13,0,0,1,.3.06.36.36,0,0,1,.15.1.27.27,0,0,1,.05.15V17.5H129a.2.2,0,0,1,.13,0,.34.34,0,0,1,.1.13.7.7,0,0,1,.06.24c0,.11,0,.24,0,.39a1.75,1.75,0,0,1-.08.61.25.25,0,0,1-.23.18h-1.52v3.28a1.6,1.6,0,0,0,.18.85.7.7,0,0,0,.64.29,1.2,1.2,0,0,0,.28,0l.22-.06.17-.06.12,0a.16.16,0,0,1,.09,0s.05.05.07.1,0,.13,0,.23A3.21,3.21,0,0,1,129.26,24.05Z"/><path d="M25.71,26.61a2.19,2.19,0,0,1,1.55.65,2.15,2.15,0,0,1,.47.71,2.16,2.16,0,0,1,0,1.68,2.14,2.14,0,0,1-1.18,1.18,2.16,2.16,0,0,1-1.68,0,2.15,2.15,0,0,1-.71-.47A2.17,2.17,0,0,1,23.68,28a2.26,2.26,0,0,1,1.19-1.19A2.21,2.21,0,0,1,25.71,26.61Z"/><path d="M36.9,26.61a2.21,2.21,0,0,1,.84.17A2.26,2.26,0,0,1,38.93,28a2.18,2.18,0,0,1-.48,2.39,2.15,2.15,0,0,1-.71.47,2.16,2.16,0,0,1-1.68,0,2.25,2.25,0,0,1-.71-.47,2.37,2.37,0,0,1-.47-.71,2.16,2.16,0,0,1,0-1.68,2.15,2.15,0,0,1,.47-.71,2.12,2.12,0,0,1,.71-.48A2.21,2.21,0,0,1,36.9,26.61Z"/><polygon points="25.24 22.36 39.53 22.36 41.63 12.47 23.39 12.47 22.92 10 17.82 10 17.82 11.65 21.46 11.65 24.08 25.66 39.69 25.66 39.69 24.01 25.55 24.01 25.24 22.36"/><path d="M47.46,13a5.46,5.46,0,0,1-.1,1.07,5.13,5.13,0,0,1-.32,1,4.86,4.86,0,0,1-.5,1,6.08,6.08,0,0,1-.69.83,5.47,5.47,0,0,1-.83.68,5.79,5.79,0,0,1-1,.51,5.53,5.53,0,0,1-1,.31A5.65,5.65,0,0,1,42,18.5a5.47,5.47,0,0,1-1.07-.11,5.11,5.11,0,0,1-1-.31,5.41,5.41,0,0,1-1-.51,6.09,6.09,0,0,1-.84-.68,6,6,0,0,1-.68-.83,5.5,5.5,0,0,1-.51-1,5.11,5.11,0,0,1-.31-1,5.26,5.26,0,0,1,0-2.14,5.11,5.11,0,0,1,.31-1,5.5,5.5,0,0,1,.51-1,6,6,0,0,1,.68-.83,6.09,6.09,0,0,1,.84-.68,5.41,5.41,0,0,1,1-.51,5.11,5.11,0,0,1,1-.31A5.47,5.47,0,0,1,42,7.5,5.65,5.65,0,0,1,43,7.61a5.53,5.53,0,0,1,1,.31,5.79,5.79,0,0,1,1,.51,5.47,5.47,0,0,1,.83.68,6.08,6.08,0,0,1,.69.83,4.86,4.86,0,0,1,.5,1,5.13,5.13,0,0,1,.32,1A5.46,5.46,0,0,1,47.46,13Z"/><path class="cls-2" d="M47.46,13a5.46,5.46,0,0,1-.1,1.07,5.13,5.13,0,0,1-.32,1,4.86,4.86,0,0,1-.5,1,6.08,6.08,0,0,1-.69.83,5.47,5.47,0,0,1-.83.68,5.79,5.79,0,0,1-1,.51,5.53,5.53,0,0,1-1,.31A5.65,5.65,0,0,1,42,18.5a5.47,5.47,0,0,1-1.07-.11,5.11,5.11,0,0,1-1-.31,5.41,5.41,0,0,1-1-.51,6.09,6.09,0,0,1-.84-.68,6,6,0,0,1-.68-.83,5.5,5.5,0,0,1-.51-1,5.11,5.11,0,0,1-.31-1,5.26,5.26,0,0,1,0-2.14,5.11,5.11,0,0,1,.31-1,5.5,5.5,0,0,1,.51-1,6,6,0,0,1,.68-.83,6.09,6.09,0,0,1,.84-.68,5.41,5.41,0,0,1,1-.51,5.11,5.11,0,0,1,1-.31A5.47,5.47,0,0,1,42,7.5,5.65,5.65,0,0,1,43,7.61a5.53,5.53,0,0,1,1,.31,5.79,5.79,0,0,1,1,.51,5.47,5.47,0,0,1,.83.68,6.08,6.08,0,0,1,.69.83,4.86,4.86,0,0,1,.5,1,5.13,5.13,0,0,1,.32,1A5.46,5.46,0,0,1,47.46,13Z"/><line class="cls-3" x1="41.85" y1="10" x2="41.85" y2="16"/><line class="cls-3" x1="38.96" y1="13" x2="44.96" y2="13"/></g></g></svg>