<?xml version="1.0" encoding="utf-8"?>
<!-- Generator: Adobe Illustrator 23.0.1, SVG Export Plug-In . SVG Version: 6.00 Build 0)  -->
<svg version="1.1" id="Layer_1" xmlns="http://www.w3.org/2000/svg" xmlns:xlink="http://www.w3.org/1999/xlink" x="0px" y="0px"
	 viewBox="0 0 135 40" style="enable-background:new 0 0 135 40;" xml:space="preserve">
<style type="text/css">
	.st0{fill:#FFA500;}
	.st1{fill:none;stroke:#F9A31A;}
	.st2{fill:none;stroke:#F9A31A;stroke-width:1.5;stroke-linecap:round;}
</style>
<title>Asset 3</title>
<g>
	<g id="Layer_1-2">
		<path class="st0" d="M0,20c0-0.7,0-1.3,0.1-2c0.1-0.6,0.2-1.3,0.3-1.9s0.3-1.3,0.5-1.9s0.4-1.2,0.7-1.8c0.2-0.6,0.5-1.2,0.8-1.8
			c0.3-0.6,0.6-1.1,1-1.7c0.4-0.5,0.8-1,1.2-1.5c0.4-0.5,0.8-1,1.3-1.5S6.8,5,7.3,4.5c0.5-0.4,1-0.8,1.6-1.2c0.5-0.4,1.1-0.7,1.7-1
			c0.6-0.3,1.2-0.6,1.8-0.8c0.6-0.3,1.2-0.5,1.8-0.7s1.3-0.4,1.9-0.5c0.6-0.1,1.3-0.2,1.9-0.3C18.7,0,19.3,0,20,0h95
			c0.7,0,1.3,0,2,0.1c0.7,0.1,1.3,0.2,1.9,0.3s1.3,0.3,1.9,0.5s1.2,0.4,1.8,0.7c0.6,0.2,1.2,0.5,1.8,0.8c0.6,0.3,1.1,0.6,1.7,1
			c0.5,0.4,1.1,0.8,1.6,1.2c0.5,0.4,1,0.8,1.5,1.3s0.9,0.9,1.3,1.5c0.4,0.5,0.8,1,1.2,1.6c0.4,0.5,0.7,1.1,1,1.7
			c0.3,0.6,0.6,1.2,0.8,1.8c0.3,0.6,0.5,1.2,0.7,1.8s0.4,1.3,0.5,1.9s0.2,1.3,0.3,1.9c0.1,1.3,0.1,2.6,0,3.9
			c-0.1,0.6-0.2,1.3-0.3,1.9s-0.3,1.3-0.5,1.9s-0.4,1.2-0.7,1.8c-0.2,0.6-0.5,1.2-0.8,1.8c-0.3,0.6-0.6,1.1-1,1.7
			c-0.4,0.5-0.8,1.1-1.2,1.6c-0.4,0.5-0.9,1-1.3,1.5s-0.9,0.9-1.4,1.3c-0.5,0.4-1,0.8-1.6,1.2c-0.5,0.4-1.1,0.7-1.7,1
			c-0.6,0.3-1.2,0.6-1.8,0.8c-0.6,0.3-1.2,0.5-1.8,0.7s-1.3,0.3-1.9,0.5s-1.3,0.2-1.9,0.3c-0.7,0.1-1.3,0.1-2,0.1H20
			c-0.7,0-1.3,0-2-0.1c-0.6-0.1-1.3-0.2-1.9-0.3s-1.3-0.3-1.9-0.5s-1.2-0.4-1.8-0.7c-0.6-0.2-1.2-0.5-1.8-0.8
			c-0.6-0.3-1.1-0.7-1.7-1c-0.5-0.4-1.1-0.8-1.6-1.2c-0.5-0.4-1-0.8-1.4-1.3s-0.9-1-1.3-1.5c-0.4-0.5-0.8-1-1.2-1.6
			c-0.4-0.5-0.7-1.1-1-1.7c-0.3-0.6-0.6-1.2-0.8-1.8C1.2,27,1,26.4,0.8,25.8s-0.3-1.3-0.4-1.9S0.2,22.6,0.1,22C0,21.3,0,20.7,0,20z"
			/>
		<path d="M59.2,23.3c0,0.1,0.1,0.3,0.1,0.4c0,0.1,0,0.2,0,0.2C59.2,24,59.1,24,59,24c-0.2,0-0.4,0-0.5,0h-0.5c-0.1,0-0.2,0-0.3,0
			c-0.1,0-0.1,0-0.1-0.1c0,0-0.1-0.1-0.1-0.1L56.8,22h-3.3l-0.6,1.7c0,0.1,0,0.1-0.1,0.2c0,0.1-0.1,0.1-0.1,0.1c-0.1,0-0.2,0-0.3,0
			H52h-0.5c-0.1,0-0.2,0-0.2-0.1c0-0.1,0-0.2,0-0.2c0-0.1,0.1-0.3,0.1-0.4l2.6-7.9c0-0.1,0.1-0.1,0.1-0.2c0-0.1,0.1-0.1,0.2-0.1
			c0.1,0,0.2,0,0.3-0.1h1.2c0.1,0,0.3,0,0.4,0.1c0.1,0,0.1,0.1,0.2,0.1c0,0.1,0.1,0.1,0.1,0.2L59.2,23.3z M55.1,16.8L55.1,16.8
			l-1.3,3.8h2.5L55.1,16.8z"/>
		<path d="M66.1,23.8c0,0,0,0.1,0,0.1c0,0.1-0.1,0.1-0.1,0.1c-0.1,0-0.2,0-0.2,0h-0.7c-0.1,0-0.1,0-0.2,0c0,0-0.1,0-0.1-0.1
			c0,0,0-0.1,0-0.1v-0.7c-0.3,0.3-0.6,0.6-1,0.8c-0.4,0.2-0.7,0.3-1.1,0.3c-0.4,0-0.8-0.1-1.2-0.3c-0.3-0.2-0.6-0.4-0.8-0.7
			c-0.2-0.3-0.4-0.7-0.4-1.1c-0.1-0.4-0.2-0.9-0.2-1.3c0-0.5,0-1,0.2-1.5c0.1-0.4,0.3-0.8,0.5-1.1c0.2-0.3,0.5-0.5,0.8-0.7
			c0.4-0.2,0.8-0.3,1.2-0.3c0.3,0,0.6,0.1,0.9,0.2c0.3,0.2,0.6,0.4,0.8,0.6v-3.3c0,0,0-0.1,0-0.1c0,0,0.1-0.1,0.1-0.1
			c0.1,0,0.2,0,0.3-0.1c0.1,0,0.3,0,0.4,0c0.1,0,0.3,0,0.4,0c0.1,0,0.2,0,0.3,0.1c0.1,0,0.1,0.1,0.1,0.1c0,0,0,0.1,0,0.1L66.1,23.8z
			 M64.4,19.7c-0.2-0.3-0.4-0.5-0.7-0.7c-0.2-0.2-0.5-0.2-0.7-0.2c-0.2,0-0.4,0.1-0.6,0.2c-0.2,0.1-0.3,0.3-0.4,0.5
			c-0.1,0.2-0.2,0.4-0.2,0.6c0,0.2-0.1,0.5-0.1,0.7c0,0.3,0,0.5,0.1,0.8c0,0.2,0.1,0.4,0.2,0.6c0.1,0.2,0.2,0.3,0.4,0.5
			c0.2,0.1,0.4,0.2,0.6,0.2c0.1,0,0.2,0,0.3,0c0.1,0,0.2-0.1,0.3-0.2c0.1-0.1,0.2-0.2,0.4-0.3l0.4-0.5V19.7z"/>
		<path d="M73.6,23.8c0,0,0,0.1,0,0.1c0,0-0.1,0.1-0.1,0.1c-0.1,0-0.1,0-0.2,0h-0.7c-0.1,0-0.1,0-0.2,0c-0.1,0-0.1,0-0.1-0.1
			c0,0,0-0.1,0-0.1v-0.7c-0.3,0.3-0.6,0.6-1,0.8c-0.4,0.2-0.7,0.3-1.2,0.3c-0.4,0-0.8-0.1-1.2-0.3c-0.3-0.2-0.6-0.4-0.8-0.7
			c-0.2-0.3-0.4-0.7-0.4-1.1c-0.1-0.4-0.1-0.9-0.1-1.3c0-0.5,0.1-1,0.2-1.5c0.1-0.4,0.3-0.8,0.5-1.1c0.2-0.3,0.5-0.5,0.8-0.7
			c0.4-0.2,0.7-0.3,1.1-0.3c0.3,0,0.6,0.1,0.9,0.2c0.3,0.2,0.6,0.4,0.8,0.6v-3.3c0,0,0-0.1,0-0.1c0,0,0.1-0.1,0.1-0.1
			c0.1,0,0.2,0,0.3-0.1c0.1,0,0.3,0,0.4,0c0.1,0,0.3,0,0.4,0c0.1,0,0.2,0,0.3,0.1c0.1,0,0.1,0.1,0.1,0.1c0,0,0,0.1,0,0.1L73.6,23.8z
			 M71.9,19.7c-0.2-0.3-0.4-0.5-0.7-0.7c-0.2-0.2-0.4-0.2-0.7-0.2c-0.2,0-0.4,0-0.6,0.2c-0.2,0.1-0.3,0.3-0.4,0.5
			c-0.1,0.2-0.2,0.4-0.2,0.6c0,0.2-0.1,0.5-0.1,0.7c0,0.3,0,0.5,0.1,0.8c0,0.2,0.1,0.4,0.2,0.6c0.1,0.2,0.2,0.3,0.4,0.5
			c0.2,0.1,0.4,0.2,0.6,0.2c0.1,0,0.2,0,0.3,0c0.1,0,0.2-0.1,0.3-0.2c0.1-0.1,0.3-0.2,0.4-0.3c0.1-0.1,0.3-0.3,0.4-0.5L71.9,19.7z"
			/>
		<path d="M82.1,23.2c0,0.2,0,0.3,0,0.5c0,0.1-0.1,0.2-0.1,0.2c0,0.1-0.1,0.1-0.2,0.1l-0.3,0.1l-0.3,0.1h-0.4c-0.3,0-0.6,0-0.9-0.1
			c-0.2-0.1-0.5-0.2-0.6-0.4c-0.2-0.2-0.3-0.4-0.4-0.7c-0.1-0.3-0.1-0.7-0.1-1v-3.1h-0.8c-0.1,0-0.2,0-0.2-0.2
			c-0.1-0.2-0.1-0.4-0.1-0.5c0-0.1,0-0.2,0-0.3c0-0.1,0-0.1,0.1-0.2c0,0,0-0.1,0.1-0.1c0,0,0.1,0,0.1,0h0.7v-1.4c0,0,0-0.1,0-0.1
			c0,0,0.1-0.1,0.1-0.1c0.1,0,0.2,0,0.3,0h0.4H80c0.1,0,0.2,0,0.3,0c0,0,0.1,0.1,0.1,0.1c0,0,0,0.1,0,0.1v1.4h1.3c0,0,0.1,0,0.1,0
			c0,0,0.1,0.1,0.1,0.1c0,0.1,0,0.1,0,0.2c0,0.1,0,0.2,0,0.3c0,0.2,0,0.4-0.1,0.5c0,0.1-0.1,0.2-0.2,0.2h-1.2v2.9
			c0,0.3,0,0.5,0.2,0.8c0.1,0.2,0.3,0.3,0.6,0.2c0.1,0,0.2,0,0.3,0l0.2,0l0.2-0.1c0,0,0.1,0,0.1,0c0,0,0.1,0,0.1,0
			c0,0,0.1,0.1,0.1,0.1c0,0,0,0.1,0,0.2C82.1,23,82.1,23.1,82.1,23.2z"/>
		<path d="M89.4,20.7c0,0.5-0.1,1-0.2,1.4c-0.1,0.4-0.3,0.8-0.6,1.1c-0.3,0.3-0.6,0.6-1,0.7c-0.5,0.2-1,0.3-1.5,0.3
			c-0.5,0-1-0.1-1.4-0.2c-0.4-0.1-0.7-0.4-1-0.6c-0.3-0.3-0.5-0.7-0.6-1.1c-0.1-0.5-0.2-1-0.2-1.4c0-0.5,0.1-1,0.2-1.4
			c0.1-0.4,0.3-0.8,0.6-1.1c0.3-0.3,0.6-0.6,1-0.7c0.5-0.2,1-0.3,1.5-0.3c0.5,0,1,0.1,1.4,0.2c0.4,0.1,0.7,0.4,1,0.7
			c0.3,0.3,0.5,0.7,0.6,1C89.4,19.7,89.4,20.2,89.4,20.7z M87.7,20.7c0-0.3,0-0.6-0.1-0.8c0-0.2-0.1-0.5-0.3-0.6
			c-0.1-0.2-0.3-0.3-0.4-0.4c-0.2-0.1-0.5-0.2-0.7-0.2c-0.2,0-0.5,0-0.7,0.1c-0.2,0.1-0.4,0.2-0.5,0.4c-0.1,0.2-0.2,0.4-0.3,0.6
			c-0.1,0.3-0.1,0.6-0.1,0.9c0,0.3,0,0.6,0.1,0.8c0,0.2,0.1,0.5,0.2,0.7c0.1,0.2,0.3,0.3,0.5,0.4c0.2,0.1,0.5,0.2,0.7,0.1
			c0.2,0,0.5,0,0.7-0.1c0.2-0.1,0.4-0.2,0.5-0.4c0.1-0.2,0.2-0.4,0.3-0.6C87.6,21.3,87.7,21,87.7,20.7z"/>
		<path d="M100.2,22.7c0,0.1,0,0.2,0,0.3c0,0.1,0,0.1,0,0.2c0,0,0,0.1-0.1,0.1c0,0.1-0.1,0.1-0.1,0.1c-0.1,0.1-0.2,0.1-0.3,0.2
			c-0.2,0.1-0.3,0.2-0.5,0.2c-0.2,0.1-0.5,0.1-0.7,0.2c-0.3,0-0.6,0.1-0.9,0.1c-0.6,0-1.1-0.1-1.6-0.3c-0.5-0.2-0.9-0.5-1.3-0.9
			c-0.4-0.4-0.6-0.9-0.8-1.4c-0.2-0.6-0.3-1.3-0.3-1.9c0-0.7,0.1-1.4,0.3-2c0.2-0.5,0.5-1,0.8-1.5c0.4-0.4,0.8-0.7,1.3-0.9
			c0.5-0.2,1.1-0.3,1.7-0.3c0.2,0,0.5,0,0.7,0.1c0.2,0,0.4,0.1,0.6,0.2c0.2,0.1,0.4,0.1,0.5,0.2c0.1,0.1,0.2,0.1,0.3,0.2
			c0.1,0,0.1,0.1,0.1,0.2c0,0.1,0,0.1,0.1,0.2c0,0.1,0,0.1,0,0.2s0,0.2,0,0.3c0,0.1,0,0.2,0,0.4c0,0.1,0,0.2,0,0.2
			c0,0.1,0,0.1-0.1,0.1c0,0-0.1,0-0.1,0c-0.1,0-0.2-0.1-0.3-0.1c-0.1-0.1-0.3-0.2-0.4-0.3c-0.2-0.1-0.4-0.2-0.6-0.3
			c-0.3-0.1-0.5-0.1-0.8-0.1c-0.3,0-0.7,0.1-0.9,0.2c-0.3,0.1-0.5,0.4-0.7,0.6c-0.2,0.3-0.4,0.6-0.4,1c-0.1,0.4-0.2,0.8-0.2,1.3
			c0,0.5,0,1,0.1,1.4c0.1,0.3,0.2,0.7,0.5,0.9c0.2,0.2,0.4,0.4,0.7,0.5c0.3,0.1,0.6,0.2,0.9,0.2c0.3,0,0.6,0,0.8-0.1
			c0.2-0.1,0.4-0.1,0.6-0.3c0.1-0.1,0.3-0.2,0.4-0.3c0.1-0.1,0.2-0.1,0.3-0.1c0,0,0.1,0,0.1,0c0,0,0.1,0.1,0.1,0.1
			c0,0.1,0,0.2,0,0.2C100.2,22.4,100.2,22.5,100.2,22.7z"/>
		<path d="M106.6,23.8c0,0.1,0,0.1-0.1,0.1c-0.1,0-0.1,0.1-0.2,0.1h-0.4h-0.4c-0.1,0-0.1,0-0.2-0.1c0,0-0.1-0.1-0.1-0.1v-0.5
			c-0.2,0.3-0.5,0.5-0.9,0.6c-0.3,0.2-0.7,0.2-1.1,0.2c-0.3,0-0.6,0-0.9-0.1c-0.3-0.1-0.5-0.2-0.7-0.4c-0.2-0.2-0.4-0.4-0.5-0.6
			c-0.1-0.3-0.2-0.6-0.2-0.9c0-0.3,0.1-0.6,0.2-0.9c0.1-0.3,0.4-0.5,0.6-0.6c0.3-0.2,0.6-0.3,1-0.4c0.5-0.1,1-0.1,1.4-0.1h0.6v-0.4
			c0-0.2,0-0.3-0.1-0.5c0-0.1-0.1-0.3-0.2-0.4c-0.1-0.1-0.2-0.2-0.3-0.2c-0.2,0-0.4-0.1-0.6-0.1c-0.3,0-0.5,0-0.8,0.1
			c-0.2,0.1-0.4,0.1-0.6,0.2c-0.2,0.1-0.3,0.1-0.4,0.2c-0.1,0.1-0.2,0.1-0.3,0.1c0,0-0.1,0-0.1,0c0,0-0.1-0.1-0.1-0.1
			c0-0.1,0-0.1-0.1-0.2c0-0.1,0-0.2,0-0.3c0-0.1,0-0.2,0-0.3c0-0.1,0.1-0.2,0.1-0.2c0.1-0.1,0.2-0.2,0.3-0.2
			c0.2-0.1,0.3-0.1,0.6-0.2c0.2-0.1,0.5-0.1,0.7-0.2c0.3,0,0.5-0.1,0.8-0.1c0.4,0,0.8,0,1.2,0.1c0.3,0.1,0.6,0.2,0.8,0.4
			c0.2,0.2,0.4,0.5,0.5,0.8c0.1,0.4,0.2,0.7,0.2,1.1L106.6,23.8z M104.9,21.2h-0.7c-0.2,0-0.5,0-0.7,0.1c-0.2,0-0.3,0.1-0.5,0.2
			c-0.1,0.1-0.2,0.2-0.3,0.3c-0.1,0.1-0.1,0.3-0.1,0.4c0,0.2,0.1,0.4,0.2,0.6c0.2,0.2,0.4,0.2,0.7,0.2c0.2,0,0.5-0.1,0.7-0.2
			c0.2-0.2,0.4-0.3,0.6-0.5V21.2z"/>
		<path d="M112.2,18.2c0,0.2,0,0.3,0,0.4c0,0.1,0,0.2,0,0.3c0,0,0,0.1-0.1,0.1c0,0-0.1,0-0.1,0c0,0-0.1,0-0.1,0l-0.2,0h-0.2
			c-0.1,0-0.2,0-0.2,0c-0.1,0-0.2,0-0.3,0c-0.1,0-0.2,0.1-0.3,0.2c-0.1,0.1-0.2,0.2-0.3,0.3c-0.1,0.2-0.3,0.3-0.4,0.5v3.8
			c0,0,0,0.1,0,0.1c0,0-0.1,0.1-0.1,0.1c-0.1,0-0.2,0-0.3,0c-0.1,0-0.3,0-0.4,0c-0.1,0-0.3,0-0.4,0c-0.1,0-0.2,0-0.3,0
			c-0.1,0-0.1,0-0.1-0.1c0,0,0-0.1,0-0.1v-6.1c0,0,0-0.1,0-0.1c0,0,0.1-0.1,0.1-0.1l0.2,0h0.7c0.1,0,0.1,0,0.2,0
			c0,0,0.1,0.1,0.1,0.1c0,0,0,0.1,0,0.1v0.8c0.1-0.2,0.3-0.4,0.5-0.6c0.1-0.1,0.3-0.3,0.4-0.4c0.1-0.1,0.2-0.1,0.4-0.2
			c0.1,0,0.3,0,0.4,0h0.2h0.2l0.2,0.1l0.1,0.1c0,0,0,0.1,0.1,0.1c0,0,0,0.1,0,0.1c0,0.1,0,0.1,0,0.2
			C112.2,17.9,112.2,18.1,112.2,18.2z"/>
		<path d="M116.8,23.2c0,0.2,0,0.3,0,0.5c0,0.1,0,0.2-0.1,0.2c0,0.1-0.1,0.1-0.2,0.1l-0.3,0.1l-0.3,0.1h-0.4c-0.3,0-0.6,0-0.9-0.1
			c-0.2-0.1-0.5-0.2-0.6-0.4c-0.2-0.2-0.3-0.4-0.4-0.7c-0.1-0.3-0.1-0.7-0.1-1v-3.1h-0.7c-0.1,0-0.2-0.1-0.2-0.2
			c-0.1-0.2-0.1-0.4-0.1-0.5c0-0.1,0-0.2,0-0.3c0-0.1,0-0.1,0.1-0.2c0,0,0-0.1,0.1-0.1c0,0,0.1,0,0.1,0h0.7v-1.4c0,0,0-0.1,0-0.1
			c0,0,0.1-0.1,0.1-0.1c0.1,0,0.2,0,0.3,0h0.4h0.4c0.1,0,0.2,0,0.3,0c0.1,0,0.1,0.1,0.1,0.1c0,0,0,0.1,0,0.1v1.4h1.3
			c0,0,0.1,0,0.1,0c0,0,0.1,0.1,0.1,0.1c0,0.1,0,0.1,0,0.2c0,0.1,0,0.2,0,0.3c0,0.2,0,0.4-0.1,0.5c0,0.1-0.1,0.2-0.2,0.2h-1.3v2.9
			c0,0.3,0,0.5,0.2,0.8c0.1,0.2,0.3,0.3,0.6,0.2c0.1,0,0.2,0,0.2,0l0.2,0l0.1-0.1c0,0,0.1,0,0.1,0c0,0,0.1,0,0.1,0
			c0,0,0,0.1,0.1,0.1c0,0,0,0.1,0,0.2C116.7,23,116.8,23.1,116.8,23.2z"/>
		<path d="M21.4,25.6c0.3,0,0.6,0.1,0.8,0.2c0.3,0.1,0.5,0.3,0.7,0.5c0.2,0.2,0.4,0.4,0.5,0.7c0.2,0.5,0.2,1.1,0,1.7
			c-0.2,0.5-0.6,1-1.2,1.2c-0.5,0.2-1.1,0.2-1.7,0c-0.3-0.1-0.5-0.3-0.7-0.5c-0.2-0.2-0.4-0.4-0.5-0.7c-0.2-0.5-0.2-1.1,0-1.7
			c0.2-0.5,0.7-1,1.2-1.2C20.8,25.7,21.1,25.6,21.4,25.6z"/>
		<path d="M31.3,25.6c0.3,0,0.6,0.1,0.8,0.2c0.3,0.1,0.5,0.3,0.7,0.5c0.2,0.2,0.4,0.4,0.5,0.7c0.2,0.5,0.2,1.1,0,1.7
			c-0.1,0.3-0.3,0.5-0.5,0.7c-0.2,0.2-0.4,0.4-0.7,0.5c-0.5,0.2-1.1,0.2-1.7,0c-0.3-0.1-0.5-0.3-0.7-0.5c-0.2-0.2-0.4-0.4-0.5-0.7
			c-0.2-0.5-0.2-1.1,0-1.7c0.1-0.3,0.3-0.5,0.5-0.7c0.2-0.2,0.4-0.4,0.7-0.5C30.7,25.7,31,25.6,31.3,25.6z"/>
		<polygon points="20.9,21.6 34.1,21.6 36,12.3 19.1,12.3 18.7,10 14,10 14,11.5 17.4,11.5 19.8,24.7 34.2,24.7 34.2,23.1 
			21.1,23.1 		"/>
		<path d="M44.5,12c0,0.4,0,0.7-0.1,1.1c-0.1,0.3-0.2,0.7-0.3,1c-0.1,0.3-0.3,0.7-0.5,1c-0.4,0.6-0.9,1.1-1.5,1.5
			c-0.3,0.2-0.7,0.4-1,0.5c-0.3,0.1-0.7,0.2-1,0.3c-0.7,0.1-1.4,0.1-2.1,0c-0.3-0.1-0.7-0.2-1-0.3c-0.3-0.1-0.7-0.3-1-0.5
			c-0.6-0.4-1.1-0.9-1.5-1.5c-0.2-0.3-0.4-0.7-0.5-1c-0.1-0.3-0.2-0.7-0.3-1c-0.1-0.7-0.1-1.4,0-2.1c0.1-0.3,0.2-0.7,0.3-1
			c0.1-0.3,0.3-0.7,0.5-1c0.4-0.6,0.9-1.1,1.5-1.5c0.3-0.2,0.7-0.4,1-0.5c0.3-0.1,0.7-0.2,1-0.3c0.7-0.1,1.4-0.1,2.1,0
			c0.3,0.1,0.7,0.2,1,0.3c0.3,0.1,0.7,0.3,1,0.5c0.6,0.4,1.1,0.9,1.5,1.5c0.2,0.3,0.4,0.7,0.5,1c0.1,0.3,0.2,0.7,0.3,1
			C44.5,11.3,44.5,11.6,44.5,12z"/>
		<path class="st1" d="M44.5,12c0,0.4,0,0.7-0.1,1.1c-0.1,0.3-0.2,0.7-0.3,1c-0.1,0.3-0.3,0.7-0.5,1c-0.4,0.6-0.9,1.1-1.5,1.5
			c-0.3,0.2-0.7,0.4-1,0.5c-0.3,0.1-0.7,0.2-1,0.3c-0.7,0.1-1.4,0.1-2.1,0c-0.3-0.1-0.7-0.2-1-0.3c-0.3-0.1-0.7-0.3-1-0.5
			c-0.6-0.4-1.1-0.9-1.5-1.5c-0.2-0.3-0.4-0.7-0.5-1c-0.1-0.3-0.2-0.7-0.3-1c-0.1-0.7-0.1-1.4,0-2.1c0.1-0.3,0.2-0.7,0.3-1
			c0.1-0.3,0.3-0.7,0.5-1c0.4-0.6,0.9-1.1,1.5-1.5c0.3-0.2,0.7-0.4,1-0.5c0.3-0.1,0.7-0.2,1-0.3c0.7-0.1,1.4-0.1,2.1,0
			c0.3,0.1,0.7,0.2,1,0.3c0.3,0.1,0.7,0.3,1,0.5c0.6,0.4,1.1,0.9,1.5,1.5c0.2,0.3,0.4,0.7,0.5,1c0.1,0.3,0.2,0.7,0.3,1
			C44.5,11.3,44.5,11.6,44.5,12z"/>
		<line class="st2" x1="38.9" y1="9" x2="38.9" y2="15"/>
		<line class="st2" x1="36" y1="12" x2="42" y2="12"/>
	</g>
</g>
</svg>
