<svg xmlns="http://www.w3.org/2000/svg" viewBox="0 0 77 40"><defs><style>.cls-1{fill:#f9a31a;}.cls-2,.cls-3{fill:none;stroke:#f9a31a;}.cls-3{stroke-linecap:round;stroke-width:1.5px;}</style></defs><title>Asset 2</title><g id="Layer_2" data-name="Layer 2"><g id="Layer_1-2" data-name="Layer 1"><path class="cls-1" d="M0,20a18.25,18.25,0,0,1,.1-2c.06-.65.16-1.3.28-1.94s.29-1.28.48-1.91.41-1.24.66-1.84a19.27,19.27,0,0,1,.84-1.78c.31-.58.65-1.14,1-1.68A17.9,17.9,0,0,1,4.54,7.31c.42-.5.85-1,1.32-1.45S6.81,5,7.31,4.54A17.9,17.9,0,0,1,8.89,3.37c.54-.36,1.1-.7,1.68-1a19.27,19.27,0,0,1,1.78-.84c.6-.25,1.22-.47,1.84-.66S15.46.51,16.1.38,17.39.16,18,.1A18.25,18.25,0,0,1,20,0H57a18.38,18.38,0,0,1,2,.1c.65.06,1.3.16,1.94.28s1.28.29,1.91.48,1.24.41,1.84.66a19.27,19.27,0,0,1,1.78.84c.58.31,1.14.65,1.68,1a17.9,17.9,0,0,1,1.58,1.17c.5.42,1,.85,1.45,1.32s.9.95,1.32,1.45a17.9,17.9,0,0,1,1.17,1.58c.36.54.7,1.1,1,1.68a19.27,19.27,0,0,1,.84,1.78c.25.6.47,1.22.66,1.84s.35,1.27.48,1.91.22,1.29.28,1.94a19.26,19.26,0,0,1,0,3.92c-.06.65-.16,1.3-.28,1.94s-.29,1.28-.48,1.91-.41,1.24-.66,1.84a19.27,19.27,0,0,1-.84,1.78c-.31.58-.65,1.14-1,1.68a17.9,17.9,0,0,1-1.17,1.58c-.42.5-.85,1-1.32,1.45s-1,.9-1.45,1.32a17.9,17.9,0,0,1-1.58,1.17c-.54.36-1.1.7-1.68,1a19.27,19.27,0,0,1-1.78.84c-.6.25-1.22.47-1.84.66s-1.27.35-1.91.48-1.29.22-1.94.28a18.38,18.38,0,0,1-2,.1H20a18.25,18.25,0,0,1-2-.1c-.65-.06-1.3-.16-1.94-.28s-1.28-.29-1.91-.48-1.24-.41-1.84-.66a19.27,19.27,0,0,1-1.78-.84c-.58-.31-1.14-.65-1.68-1a17.9,17.9,0,0,1-1.58-1.17c-.5-.42-1-.85-1.45-1.32s-.9-1-1.32-1.45a17.9,17.9,0,0,1-1.17-1.58c-.36-.54-.7-1.1-1-1.68a19.27,19.27,0,0,1-.84-1.78c-.25-.6-.47-1.22-.66-1.84S.51,24.54.38,23.9.16,22.61.1,22A18.38,18.38,0,0,1,0,20Z"/><path d="M32.36,25.61a2.21,2.21,0,0,1,.84.17,2.12,2.12,0,0,1,.71.48,2.15,2.15,0,0,1,.47.71,2.16,2.16,0,0,1,0,1.68,2.14,2.14,0,0,1-1.18,1.18,2.16,2.16,0,0,1-1.68,0,2.15,2.15,0,0,1-.71-.47,2.12,2.12,0,0,1-.48-.71,2.28,2.28,0,0,1,0-1.68,2.26,2.26,0,0,1,1.19-1.19A2.21,2.21,0,0,1,32.36,25.61Z"/><path d="M42.27,25.61a2.21,2.21,0,0,1,.84.17A2.26,2.26,0,0,1,44.3,27a2.28,2.28,0,0,1,0,1.68,2.12,2.12,0,0,1-.48.71,2.15,2.15,0,0,1-.71.47,2.16,2.16,0,0,1-1.68,0,2.25,2.25,0,0,1-.71-.47,2.28,2.28,0,0,1-.48-.71,2.28,2.28,0,0,1,0-1.68,2.17,2.17,0,0,1,.48-.71,2.12,2.12,0,0,1,.71-.48A2.21,2.21,0,0,1,42.27,25.61Z"/><polygon points="31.86 21.57 45.06 21.57 47 12.31 30.15 12.31 29.72 10 25 10 25 11.54 28.36 11.54 30.79 24.66 45.21 24.66 45.21 23.12 32.14 23.12 31.86 21.57"/><path d="M55.5,12a5.47,5.47,0,0,1-.11,1.07,5.11,5.11,0,0,1-.31,1,5.5,5.5,0,0,1-.51,1,5.43,5.43,0,0,1-1.51,1.51,5.5,5.5,0,0,1-1,.51,5.11,5.11,0,0,1-1,.31,5.26,5.26,0,0,1-2.14,0,5.11,5.11,0,0,1-1-.31,5.5,5.5,0,0,1-1-.51,5.43,5.43,0,0,1-1.51-1.51,5.5,5.5,0,0,1-.51-1,5.11,5.11,0,0,1-.31-1,5.26,5.26,0,0,1,0-2.14,5.11,5.11,0,0,1,.31-1,5.5,5.5,0,0,1,.51-1,5.43,5.43,0,0,1,1.51-1.51,5.5,5.5,0,0,1,1-.51,5.11,5.11,0,0,1,1-.31,5.26,5.26,0,0,1,2.14,0,5.11,5.11,0,0,1,1,.31,5.5,5.5,0,0,1,1,.51,5.43,5.43,0,0,1,1.51,1.51,5.5,5.5,0,0,1,.51,1,5.11,5.11,0,0,1,.31,1A5.47,5.47,0,0,1,55.5,12Z"/><path class="cls-2" d="M55.5,12a5.47,5.47,0,0,1-.11,1.07,5.11,5.11,0,0,1-.31,1,5.5,5.5,0,0,1-.51,1,5.43,5.43,0,0,1-1.51,1.51,5.5,5.5,0,0,1-1,.51,5.11,5.11,0,0,1-1,.31,5.26,5.26,0,0,1-2.14,0,5.11,5.11,0,0,1-1-.31,5.5,5.5,0,0,1-1-.51,5.43,5.43,0,0,1-1.51-1.51,5.5,5.5,0,0,1-.51-1,5.11,5.11,0,0,1-.31-1,5.26,5.26,0,0,1,0-2.14,5.11,5.11,0,0,1,.31-1,5.5,5.5,0,0,1,.51-1,5.43,5.43,0,0,1,1.51-1.51,5.5,5.5,0,0,1,1-.51,5.11,5.11,0,0,1,1-.31,5.26,5.26,0,0,1,2.14,0,5.11,5.11,0,0,1,1,.31,5.5,5.5,0,0,1,1,.51,5.43,5.43,0,0,1,1.51,1.51,5.5,5.5,0,0,1,.51,1,5.11,5.11,0,0,1,.31,1A5.47,5.47,0,0,1,55.5,12Z"/><line class="cls-3" x1="49.89" y1="9" x2="49.89" y2="15"/><line class="cls-3" x1="47" y1="12" x2="53" y2="12"/></g></g></svg>