<?xml version="1.0" encoding="utf-8"?>
<!-- Generator: Adobe Illustrator 23.0.1, SVG Export Plug-In . SVG Version: 6.00 Build 0)  -->
<svg version="1.1" id="Layer_1" xmlns="http://www.w3.org/2000/svg" xmlns:xlink="http://www.w3.org/1999/xlink" x="0px" y="0px"
	 viewBox="0 0 152 40" style="enable-background:new 0 0 152 40;" xml:space="preserve">
<style type="text/css">
	.st0{fill:#FFA500;}
	.st1{fill:none;stroke:#F9A31A;}
	.st2{fill:none;stroke:#F9A31A;stroke-width:1.5;stroke-linecap:round;}
</style>
<title>Asset 1</title>
<g>
	<g id="Layer_1-2">
		<path class="st0" d="M0,20c0-0.7,0-1.3,0.1-2c0.1-0.6,0.2-1.3,0.3-1.9s0.3-1.3,0.5-1.9s0.4-1.2,0.7-1.8c0.2-0.6,0.5-1.2,0.8-1.8
			c0.3-0.6,0.6-1.1,1-1.7c0.4-0.5,0.8-1,1.2-1.5c0.4-0.5,0.8-1,1.3-1.5S6.8,5,7.3,4.5c0.5-0.4,1-0.8,1.6-1.2c0.5-0.4,1.1-0.7,1.7-1
			c0.6-0.3,1.2-0.6,1.8-0.8c0.6-0.3,1.2-0.5,1.8-0.7s1.3-0.4,1.9-0.5c0.6-0.1,1.3-0.2,1.9-0.3C18.7,0,19.3,0,20,0h112
			c0.7,0,1.3,0,2,0.1c0.6,0.1,1.3,0.2,1.9,0.3s1.3,0.3,1.9,0.5s1.2,0.4,1.8,0.7c0.6,0.2,1.2,0.5,1.8,0.8c0.6,0.3,1.1,0.6,1.7,1
			c0.5,0.4,1.1,0.8,1.6,1.2c0.5,0.4,1,0.8,1.4,1.3s0.9,0.9,1.3,1.5c0.4,0.5,0.8,1,1.2,1.6c0.4,0.5,0.7,1.1,1,1.7
			c0.3,0.6,0.6,1.2,0.8,1.8c0.3,0.6,0.5,1.2,0.7,1.8s0.4,1.3,0.5,1.9s0.2,1.3,0.3,1.9c0.1,1.3,0.1,2.6,0,3.9
			c-0.1,0.6-0.2,1.3-0.3,1.9s-0.3,1.3-0.5,1.9s-0.4,1.2-0.7,1.8c-0.2,0.6-0.5,1.2-0.8,1.8c-0.3,0.6-0.6,1.1-1,1.7
			c-0.4,0.5-0.8,1.1-1.2,1.6c-0.4,0.5-0.9,1-1.3,1.5s-0.9,0.9-1.4,1.3c-0.5,0.4-1,0.8-1.6,1.2c-0.5,0.4-1.1,0.7-1.7,1
			c-0.6,0.3-1.2,0.6-1.8,0.8c-0.6,0.3-1.2,0.5-1.8,0.7s-1.3,0.3-1.9,0.5s-1.3,0.2-1.9,0.3c-0.7,0.1-1.3,0.1-2,0.1H20
			c-0.7,0-1.3,0-2-0.1c-0.6-0.1-1.3-0.2-1.9-0.3s-1.3-0.3-1.9-0.5s-1.2-0.4-1.8-0.7c-0.6-0.2-1.2-0.5-1.8-0.8
			c-0.6-0.3-1.1-0.7-1.7-1c-0.5-0.4-1.1-0.8-1.6-1.2c-0.5-0.4-1-0.8-1.4-1.3s-0.9-1-1.3-1.5c-0.4-0.5-0.8-1-1.2-1.6
			c-0.4-0.5-0.7-1.1-1-1.7c-0.3-0.6-0.6-1.2-0.8-1.8C1.2,27,1,26.4,0.8,25.8s-0.3-1.3-0.4-1.9S0.2,22.6,0.1,22C0,21.3,0,20.7,0,20z"
			/>
		<path d="M63.4,24.2c0.1,0.1,0.1,0.3,0.1,0.5c0,0.1,0,0.2-0.1,0.3C63.3,25,63.2,25,63.1,25h-0.6h-0.6c-0.1,0-0.2,0-0.3,0
			c-0.1,0-0.1-0.1-0.2-0.1c0,0-0.1-0.1-0.1-0.2l-0.7-2h-3.8l-0.6,2c0,0.1,0,0.1-0.1,0.2c0,0-0.1,0.1-0.1,0.1c-0.1,0-0.2,0.1-0.3,0.1
			h-0.5c-0.2,0-0.4,0-0.6,0c-0.1,0-0.2,0-0.3-0.1c-0.1-0.1-0.1-0.2-0.1-0.3c0-0.1,0.1-0.3,0.1-0.4l3.1-9c0-0.1,0.1-0.1,0.1-0.2
			c0.1-0.1,0.1-0.1,0.2-0.1c0.1,0,0.3-0.1,0.4-0.1h0.6h0.7c0.1,0,0.3,0,0.4,0.1c0.1,0,0.2,0.1,0.2,0.1c0.1,0.1,0.1,0.1,0.1,0.2
			L63.4,24.2z M58.7,16.8L58.7,16.8l-1.4,4.3h2.9L58.7,16.8z"/>
		<path d="M71.3,24.7c0,0,0,0.1,0,0.1c0,0-0.1,0.1-0.1,0.1c-0.1,0-0.2,0-0.3,0h-0.4h-0.4c-0.1,0-0.2,0-0.3,0c-0.1,0-0.1-0.1-0.1-0.1
			c0,0,0-0.1,0-0.1V24c-0.3,0.4-0.7,0.7-1.1,0.9c-0.4,0.2-0.9,0.3-1.3,0.3c-0.5,0-0.9-0.1-1.3-0.3c-0.4-0.2-0.7-0.5-0.9-0.8
			c-0.2-0.4-0.4-0.8-0.5-1.2c-0.1-0.5-0.2-1-0.2-1.5c0-0.6,0.1-1.1,0.2-1.7c0.1-0.5,0.3-0.9,0.6-1.3c0.3-0.3,0.6-0.6,1-0.8
			c0.4-0.2,0.9-0.3,1.3-0.3c0.4,0,0.7,0.1,1.1,0.2c0.4,0.2,0.7,0.4,1,0.7v-3.8c0,0,0-0.1,0-0.1c0,0,0.1-0.1,0.2-0.1
			c0.1,0,0.2-0.1,0.3-0.1h0.5h0.5c0.1,0,0.2,0,0.3,0.1c0.1,0,0.1,0.1,0.2,0.1c0,0,0,0.1,0.1,0.1L71.3,24.7z M69.3,20.1
			c-0.2-0.3-0.5-0.6-0.8-0.8C68.2,19.1,68,19,67.7,19c-0.2,0-0.5,0.1-0.7,0.2c-0.2,0.1-0.3,0.3-0.4,0.5c-0.1,0.2-0.2,0.5-0.3,0.7
			c-0.1,0.3-0.1,0.5-0.1,0.8c0,0.3,0,0.6,0.1,0.9c0,0.3,0.1,0.5,0.2,0.7c0.1,0.2,0.2,0.4,0.4,0.5c0.2,0.1,0.4,0.2,0.7,0.2
			c0.1,0,0.3,0,0.4-0.1c0.1,0,0.3-0.1,0.4-0.2c0.2-0.1,0.3-0.2,0.4-0.4c0.1-0.1,0.3-0.3,0.5-0.5V20.1z"/>
		<path d="M79.9,24.7c0,0,0,0.1,0,0.1c0,0-0.1,0.1-0.1,0.1c-0.1,0-0.2,0-0.3,0h-0.4h-0.4c-0.1,0-0.2,0-0.3,0c-0.1,0-0.1-0.1-0.1-0.1
			c0,0,0-0.1,0-0.1V24c-0.3,0.4-0.7,0.7-1.1,0.9c-0.4,0.2-0.9,0.3-1.3,0.3c-0.5,0-0.9-0.1-1.3-0.3c-0.4-0.2-0.7-0.5-0.9-0.8
			c-0.3-0.4-0.5-0.8-0.6-1.3c-0.1-0.5-0.2-1-0.2-1.5c0-0.6,0.1-1.1,0.2-1.7c0.1-0.5,0.3-0.9,0.6-1.3c0.2-0.3,0.6-0.6,0.9-0.8
			c0.4-0.2,0.9-0.3,1.3-0.3c0.4,0,0.7,0.1,1.1,0.2c0.3,0.2,0.7,0.4,0.9,0.7v-3.8c0,0,0-0.1,0-0.1c0,0,0.1-0.1,0.2-0.1
			c0.1,0,0.2-0.1,0.3-0.1h0.5h0.5c0.1,0,0.2,0,0.3,0.1c0.1,0,0.1,0.1,0.2,0.1c0,0,0,0.1,0,0.1L79.9,24.7z M77.9,20.1
			c-0.2-0.3-0.5-0.6-0.8-0.8c-0.2-0.2-0.5-0.3-0.8-0.3c-0.2,0-0.5,0.1-0.7,0.2c-0.2,0.1-0.3,0.3-0.4,0.5c-0.1,0.2-0.2,0.5-0.3,0.7
			c-0.1,0.3-0.1,0.5-0.1,0.8c0,0.3,0,0.6,0.1,0.9c0,0.3,0.1,0.5,0.2,0.7c0.1,0.2,0.2,0.4,0.4,0.5c0.2,0.1,0.4,0.2,0.7,0.2
			c0.1,0,0.3,0,0.4-0.1c0.1,0,0.3-0.1,0.4-0.2c0.1-0.1,0.3-0.2,0.4-0.4c0.1-0.1,0.3-0.3,0.5-0.5L77.9,20.1z"/>
		<path d="M89.6,24c0,0.2,0,0.3,0,0.5c0,0.1-0.1,0.2-0.1,0.3c-0.1,0.1-0.1,0.1-0.2,0.1c-0.1,0-0.2,0.1-0.3,0.1c-0.1,0-0.3,0-0.4,0.1
			c-0.5,0.1-1,0-1.5-0.1c-0.3-0.1-0.5-0.2-0.7-0.5c-0.2-0.2-0.3-0.5-0.4-0.8c-0.1-0.4-0.1-0.7-0.1-1.1v-3.6H85
			c-0.1,0-0.2-0.1-0.2-0.2c-0.1-0.2-0.1-0.4-0.1-0.6c0-0.1,0-0.3,0-0.4c0-0.1,0-0.2,0.1-0.2c0-0.1,0.1-0.1,0.1-0.1c0,0,0.1,0,0.1,0
			h0.8V16c0,0,0-0.1,0-0.1c0,0,0.1-0.1,0.2-0.1c0.1,0,0.2-0.1,0.3-0.1c0.2,0,0.3,0,0.5,0c0.2,0,0.3,0,0.5,0c0.1,0,0.2,0,0.3,0.1
			c0.1,0,0.1,0.1,0.2,0.1c0,0,0,0.1,0,0.1v1.5h1.5c0,0,0.1,0,0.1,0c0,0,0.1,0.1,0.1,0.1c0,0.1,0,0.2,0,0.2c0,0.1,0,0.3,0,0.4
			c0,0.2,0,0.4-0.1,0.6C89.3,19,89.2,19,89.1,19h-1.4v3.3c0,0.3,0,0.6,0.2,0.9c0.1,0.2,0.4,0.3,0.6,0.3c0.1,0,0.2,0,0.3,0l0.2-0.1
			l0.2-0.1h0.1c0,0,0.1,0,0.1,0c0,0,0.1,0.1,0.1,0.1c0,0.1,0,0.2,0,0.2C89.6,23.8,89.6,23.9,89.6,24z"/>
		<path d="M97.9,21.2c0,0.5-0.1,1.1-0.2,1.6c-0.1,0.5-0.4,0.9-0.7,1.3c-0.3,0.4-0.7,0.6-1.2,0.8c-0.5,0.2-1.1,0.3-1.7,0.3
			c-0.6,0-1.1-0.1-1.6-0.3c-0.4-0.2-0.8-0.4-1.1-0.8c-0.3-0.3-0.6-0.7-0.7-1.2c-0.2-0.5-0.2-1.1-0.2-1.6c0-0.6,0.1-1.1,0.2-1.6
			c0.1-0.5,0.4-0.9,0.7-1.3c0.3-0.4,0.7-0.6,1.2-0.8c0.5-0.2,1.1-0.3,1.7-0.3c0.6,0,1.1,0.1,1.6,0.3c0.4,0.2,0.8,0.4,1.1,0.8
			c0.3,0.3,0.5,0.8,0.7,1.2C97.8,20.1,97.9,20.6,97.9,21.2z M95.9,21.3c0-0.3,0-0.7-0.1-1c0-0.3-0.1-0.5-0.3-0.8
			c-0.1-0.2-0.3-0.4-0.5-0.5c-0.3-0.1-0.5-0.2-0.8-0.2c-0.3,0-0.5,0-0.8,0.2c-0.2,0.1-0.4,0.3-0.5,0.5c-0.1,0.2-0.3,0.5-0.3,0.8
			c-0.1,0.3-0.1,0.7-0.1,1c0,0.3,0,0.6,0.1,1c0,0.3,0.1,0.5,0.3,0.8c0.1,0.2,0.3,0.4,0.5,0.5c0.3,0.1,0.5,0.2,0.8,0.2
			c0.3,0,0.5,0,0.8-0.2c0.2-0.1,0.4-0.3,0.5-0.5c0.1-0.2,0.3-0.5,0.3-0.7C95.9,21.9,95.9,21.6,95.9,21.3L95.9,21.3z"/>
		<path d="M110.2,23.5c0,0.1,0,0.2,0,0.3c0,0.1,0,0.2,0,0.2c0,0.1,0,0.1-0.1,0.2c0,0.1-0.1,0.1-0.1,0.2c-0.1,0.1-0.2,0.2-0.3,0.2
			c-0.2,0.1-0.4,0.2-0.6,0.3c-0.6,0.2-1.2,0.3-1.8,0.3c-0.6,0-1.3-0.1-1.9-0.3c-0.5-0.2-1-0.5-1.4-1c-0.4-0.5-0.7-1-0.9-1.6
			c-0.2-0.7-0.3-1.5-0.3-2.2c0-0.8,0.1-1.5,0.3-2.3c0.2-0.6,0.6-1.2,1-1.7c0.4-0.4,0.9-0.8,1.5-1c0.6-0.2,1.2-0.4,1.9-0.4
			c0.3,0,0.5,0,0.8,0.1c0.2,0,0.5,0.1,0.7,0.2c0.2,0.1,0.4,0.2,0.6,0.3c0.1,0.1,0.3,0.2,0.4,0.3l0.2,0.2c0,0.1,0,0.1,0.1,0.2
			c0,0.1,0,0.2,0,0.3c0,0.1,0,0.2,0,0.4c0,0.1,0,0.3,0,0.4c0,0.1,0,0.2,0,0.3c0,0.1-0.1,0.1-0.1,0.1c0,0-0.1,0-0.1,0
			c-0.1,0-0.2-0.1-0.3-0.1l-0.5-0.3c-0.2-0.1-0.4-0.2-0.7-0.3c-0.3-0.1-0.7-0.2-1-0.1c-0.4,0-0.7,0.1-1.1,0.3
			c-0.3,0.2-0.6,0.4-0.8,0.7c-0.2,0.3-0.4,0.7-0.5,1.1c-0.1,0.5-0.2,1-0.2,1.5c0,0.5,0.1,1,0.2,1.5c0.1,0.4,0.3,0.8,0.5,1.1
			c0.2,0.3,0.5,0.5,0.8,0.6c0.3,0.1,0.7,0.2,1.1,0.2c0.3,0,0.6,0,0.9-0.1c0.2-0.1,0.5-0.2,0.7-0.3l0.5-0.3c0.1-0.1,0.2-0.1,0.3-0.1
			c0,0,0.1,0,0.1,0c0,0,0.1,0.1,0.1,0.1c0,0.1,0,0.2,0,0.3C110.2,23.1,110.2,23.3,110.2,23.5z"/>
		<path d="M117.5,24.8c0,0.1,0,0.1-0.1,0.2c-0.1,0-0.2,0.1-0.3,0.1c-0.2,0-0.3,0-0.5,0c-0.2,0-0.3,0-0.5,0c-0.1,0-0.2,0-0.2-0.1
			c0,0-0.1-0.1-0.1-0.2v-0.6c-0.3,0.3-0.6,0.5-1,0.7c-0.4,0.2-0.8,0.3-1.2,0.3c-0.3,0-0.7,0-1-0.1c-0.3-0.1-0.6-0.2-0.8-0.4
			c-0.2-0.2-0.4-0.4-0.5-0.7c-0.1-0.3-0.2-0.7-0.2-1c0-0.4,0.1-0.7,0.2-1c0.2-0.3,0.4-0.6,0.7-0.8c0.4-0.2,0.8-0.4,1.2-0.4
			c0.5-0.1,1.1-0.1,1.6-0.1h0.7v-0.4c0-0.2,0-0.4-0.1-0.6c0-0.2-0.1-0.3-0.2-0.4c-0.1-0.1-0.3-0.2-0.4-0.2c-0.2-0.1-0.4-0.1-0.6-0.1
			c-0.3,0-0.6,0-0.9,0.1c-0.3,0.1-0.5,0.2-0.7,0.2c-0.2,0.1-0.3,0.2-0.5,0.3c-0.1,0.1-0.2,0.1-0.3,0.1c-0.1,0-0.1,0-0.2-0.1
			c0,0-0.1-0.1-0.1-0.2c0-0.1-0.1-0.2-0.1-0.3c0-0.1,0-0.2,0-0.3c0-0.1,0-0.3,0-0.4c0-0.1,0.1-0.2,0.2-0.3c0.1-0.1,0.2-0.2,0.4-0.3
			c0.2-0.1,0.4-0.2,0.6-0.3c0.3-0.1,0.5-0.2,0.8-0.2c0.3,0,0.6-0.1,0.9-0.1c0.5,0,0.9,0,1.4,0.2c0.4,0.1,0.7,0.3,1,0.5
			c0.3,0.2,0.4,0.5,0.5,0.9c0.1,0.4,0.2,0.8,0.2,1.2L117.5,24.8z M115.6,21.8h-0.8c-0.3,0-0.5,0-0.8,0.1c-0.2,0-0.4,0.1-0.5,0.2
			c-0.1,0.1-0.2,0.2-0.3,0.3c-0.1,0.1-0.1,0.3-0.1,0.5c0,0.3,0.1,0.5,0.3,0.7c0.2,0.2,0.5,0.3,0.8,0.3c0.3,0,0.5-0.1,0.8-0.2
			c0.3-0.2,0.5-0.4,0.7-0.6V21.8z"/>
		<path d="M123.9,18.4c0,0.2,0,0.3,0,0.5c0,0.1,0,0.2,0,0.3c0,0.1,0,0.1-0.1,0.1c0,0-0.1,0-0.1,0h-0.1l-0.2-0.1l-0.2-0.1
			c-0.1,0-0.2,0-0.3,0c-0.1,0-0.2,0-0.3,0.1c-0.1,0-0.2,0.1-0.3,0.2c-0.1,0.1-0.3,0.2-0.4,0.4c-0.1,0.2-0.3,0.4-0.4,0.6v4.3
			c0,0,0,0.1,0,0.1c0,0-0.1,0.1-0.2,0.1c-0.1,0-0.2,0-0.3,0.1h-0.5l-0.5,0c-0.1,0-0.2,0-0.3-0.1c-0.1,0-0.1-0.1-0.2-0.1
			c0,0,0-0.1,0-0.1v-7c0,0,0-0.1,0-0.1c0,0,0.1-0.1,0.2-0.1c0.1,0,0.2-0.1,0.3-0.1h0.4h0.4c0.1,0,0.2,0,0.3,0.1
			c0.1,0,0.1,0.1,0.1,0.1c0,0,0,0.1,0,0.1v0.9c0.2-0.2,0.3-0.4,0.5-0.6c0.1-0.2,0.3-0.3,0.5-0.4c0.1-0.1,0.3-0.2,0.4-0.2
			c0.1,0,0.3-0.1,0.4-0.1h0.2h0.2l0.2,0.1c0,0,0.1,0,0.1,0.1c0,0,0.1,0,0.1,0.1v0.1c0,0.1,0,0.2,0,0.3
			C123.9,18.1,123.9,18.2,123.9,18.4z"/>
		<path d="M129.3,24c0,0.2,0,0.3,0,0.5c0,0.1,0,0.2-0.1,0.3c-0.1,0.1-0.1,0.1-0.2,0.1c-0.1,0-0.2,0.1-0.3,0.1c-0.1,0-0.3,0-0.4,0.1
			c-0.1,0-0.3,0-0.4,0c-0.3,0-0.7,0-1-0.1c-0.3-0.1-0.5-0.2-0.7-0.5c-0.2-0.2-0.3-0.5-0.4-0.8c-0.1-0.4-0.1-0.7-0.1-1.1v-3.5h-0.8
			c-0.1,0-0.2-0.1-0.2-0.2c-0.1-0.2-0.1-0.4-0.1-0.6c0-0.1,0-0.3,0-0.4c0-0.1,0-0.2,0.1-0.2c0-0.1,0-0.1,0.1-0.1c0,0,0.1,0,0.1,0
			h0.8V16c0,0,0-0.1,0-0.1c0,0,0.1-0.1,0.2-0.1c0.1,0,0.2-0.1,0.3-0.1c0.3,0,0.7,0,1,0c0.1,0,0.2,0,0.3,0.1c0.1,0,0.1,0.1,0.2,0.1
			c0,0,0,0.1,0.1,0.1v1.5h1.5c0,0,0.1,0,0.1,0c0,0,0.1,0.1,0.1,0.1c0,0.1,0.1,0.2,0.1,0.2c0,0.1,0,0.2,0,0.4c0,0.2,0,0.4-0.1,0.6
			c0,0.1-0.1,0.2-0.2,0.2h-1.5v3.3c0,0.3,0,0.6,0.2,0.9c0.1,0.2,0.4,0.3,0.6,0.3c0.1,0,0.2,0,0.3,0l0.2-0.1l0.2-0.1h0.1
			c0,0,0.1,0,0.1,0c0,0,0.1,0,0.1,0.1s0,0.1,0,0.2C129.2,23.8,129.3,23.9,129.3,24z"/>
		<path d="M25.7,26.6c0.6,0,1.1,0.2,1.5,0.6c0.2,0.2,0.4,0.4,0.5,0.7c0.2,0.5,0.2,1.1,0,1.7c-0.2,0.5-0.6,1-1.2,1.2
			c-0.5,0.2-1.1,0.2-1.7,0c-0.3-0.1-0.5-0.3-0.7-0.5c-0.6-0.6-0.8-1.5-0.5-2.4c0.2-0.5,0.7-1,1.2-1.2C25.1,26.7,25.4,26.6,25.7,26.6
			z"/>
		<path d="M36.9,26.6c0.3,0,0.6,0.1,0.8,0.2c0.5,0.2,1,0.7,1.2,1.2c0.3,0.8,0.2,1.8-0.5,2.4c-0.2,0.2-0.4,0.4-0.7,0.5
			c-0.5,0.2-1.1,0.2-1.7,0c-0.3-0.1-0.5-0.3-0.7-0.5c-0.2-0.2-0.4-0.4-0.5-0.7c-0.2-0.5-0.2-1.1,0-1.7c0.1-0.3,0.3-0.5,0.5-0.7
			c0.2-0.2,0.4-0.4,0.7-0.5C36.3,26.7,36.6,26.6,36.9,26.6z"/>
		<polygon points="25.2,22.4 39.5,22.4 41.6,12.5 23.4,12.5 22.9,10 17.8,10 17.8,11.6 21.5,11.6 24.1,25.7 39.7,25.7 39.7,24 
			25.5,24 		"/>
		<path d="M47.5,13c0,0.4,0,0.7-0.1,1.1c-0.1,0.3-0.2,0.7-0.3,1c-0.1,0.4-0.3,0.7-0.5,1c-0.2,0.3-0.4,0.6-0.7,0.8
			c-0.3,0.3-0.5,0.5-0.8,0.7c-0.3,0.2-0.7,0.4-1,0.5c-0.3,0.1-0.7,0.2-1,0.3c-0.3,0.1-0.7,0.1-1,0.1c-0.4,0-0.7,0-1.1-0.1
			c-0.3-0.1-0.7-0.2-1-0.3c-0.4-0.1-0.7-0.3-1-0.5c-0.3-0.2-0.6-0.4-0.8-0.7c-0.3-0.3-0.5-0.5-0.7-0.8c-0.2-0.3-0.4-0.7-0.5-1
			c-0.1-0.3-0.2-0.7-0.3-1c-0.1-0.7-0.1-1.4,0-2.1c0.1-0.3,0.2-0.7,0.3-1c0.1-0.3,0.3-0.7,0.5-1c0.2-0.3,0.4-0.6,0.7-0.8
			c0.3-0.3,0.5-0.5,0.8-0.7c0.3-0.2,0.6-0.4,1-0.5c0.3-0.1,0.7-0.2,1-0.3c0.4-0.1,0.7-0.1,1.1-0.1c0.3,0,0.7,0,1,0.1
			c0.3,0.1,0.7,0.2,1,0.3c0.3,0.1,0.7,0.3,1,0.5c0.3,0.2,0.6,0.4,0.8,0.7c0.3,0.3,0.5,0.5,0.7,0.8c0.2,0.3,0.4,0.6,0.5,1
			c0.1,0.3,0.2,0.7,0.3,1C47.4,12.3,47.5,12.6,47.5,13z"/>
		<path class="st1" d="M47.5,13c0,0.4,0,0.7-0.1,1.1c-0.1,0.3-0.2,0.7-0.3,1c-0.1,0.4-0.3,0.7-0.5,1c-0.2,0.3-0.4,0.6-0.7,0.8
			c-0.3,0.3-0.5,0.5-0.8,0.7c-0.3,0.2-0.7,0.4-1,0.5c-0.3,0.1-0.7,0.2-1,0.3c-0.3,0.1-0.7,0.1-1,0.1c-0.4,0-0.7,0-1.1-0.1
			c-0.3-0.1-0.7-0.2-1-0.3c-0.4-0.1-0.7-0.3-1-0.5c-0.3-0.2-0.6-0.4-0.8-0.7c-0.3-0.3-0.5-0.5-0.7-0.8c-0.2-0.3-0.4-0.7-0.5-1
			c-0.1-0.3-0.2-0.7-0.3-1c-0.1-0.7-0.1-1.4,0-2.1c0.1-0.3,0.2-0.7,0.3-1c0.1-0.3,0.3-0.7,0.5-1c0.2-0.3,0.4-0.6,0.7-0.8
			c0.3-0.3,0.5-0.5,0.8-0.7c0.3-0.2,0.6-0.4,1-0.5c0.3-0.1,0.7-0.2,1-0.3c0.4-0.1,0.7-0.1,1.1-0.1c0.3,0,0.7,0,1,0.1
			c0.3,0.1,0.7,0.2,1,0.3c0.3,0.1,0.7,0.3,1,0.5c0.3,0.2,0.6,0.4,0.8,0.7c0.3,0.3,0.5,0.5,0.7,0.8c0.2,0.3,0.4,0.6,0.5,1
			c0.1,0.3,0.2,0.7,0.3,1C47.4,12.3,47.5,12.6,47.5,13z"/>
		<line class="st2" x1="41.8" y1="10" x2="41.8" y2="16"/>
		<line class="st2" x1="39" y1="13" x2="45" y2="13"/>
	</g>
</g>
</svg>
