<svg xmlns="http://www.w3.org/2000/svg" viewBox="0 0 135 40"><defs><style>.cls-1{fill:#f9a31a;}.cls-2,.cls-3{fill:none;stroke:#f9a31a;}.cls-3{stroke-linecap:round;stroke-width:1.5px;}</style></defs><title>Asset 3</title><g id="Layer_2" data-name="Layer 2"><g id="Layer_1-2" data-name="Layer 1"><path class="cls-1" d="M0,20a18.25,18.25,0,0,1,.1-2c.06-.65.16-1.3.28-1.94s.29-1.28.48-1.91.41-1.24.66-1.84a19.27,19.27,0,0,1,.84-1.78c.31-.58.65-1.14,1-1.68A17.9,17.9,0,0,1,4.54,7.31c.42-.5.85-1,1.32-1.45S6.81,5,7.31,4.54A17.9,17.9,0,0,1,8.89,3.37c.54-.36,1.1-.7,1.68-1a19.27,19.27,0,0,1,1.78-.84c.6-.25,1.22-.47,1.84-.66S15.46.51,16.1.38,17.39.16,18,.1A18.25,18.25,0,0,1,20,0h95a18.25,18.25,0,0,1,2,.1c.65.06,1.3.16,1.94.28s1.28.29,1.91.48,1.24.41,1.84.66a19.27,19.27,0,0,1,1.78.84c.58.31,1.14.65,1.68,1a17.9,17.9,0,0,1,1.58,1.17c.5.42,1,.85,1.45,1.32s.9.95,1.32,1.45a17.9,17.9,0,0,1,1.17,1.58c.36.54.7,1.1,1,1.68a19.27,19.27,0,0,1,.84,1.78c.25.6.47,1.22.66,1.84s.35,1.27.48,1.91.22,1.29.28,1.94a19.26,19.26,0,0,1,0,3.92c-.06.65-.16,1.3-.28,1.94s-.29,1.28-.48,1.91-.41,1.24-.66,1.84a19.27,19.27,0,0,1-.84,1.78c-.31.58-.65,1.14-1,1.68a17.9,17.9,0,0,1-1.17,1.58c-.42.5-.85,1-1.32,1.45s-.95.9-1.45,1.32a17.9,17.9,0,0,1-1.58,1.17c-.54.36-1.1.7-1.68,1a19.27,19.27,0,0,1-1.78.84c-.6.25-1.22.47-1.84.66s-1.27.35-1.91.48-1.29.22-1.94.28a18.25,18.25,0,0,1-2,.1H20a18.25,18.25,0,0,1-2-.1c-.65-.06-1.3-.16-1.94-.28s-1.28-.29-1.91-.48-1.24-.41-1.84-.66a19.27,19.27,0,0,1-1.78-.84c-.58-.31-1.14-.65-1.68-1a17.9,17.9,0,0,1-1.58-1.17c-.5-.42-1-.85-1.45-1.32s-.9-1-1.32-1.45a17.9,17.9,0,0,1-1.17-1.58c-.36-.54-.7-1.1-1-1.68a19.27,19.27,0,0,1-.84-1.78c-.25-.6-.47-1.22-.66-1.84S.51,24.54.38,23.9.16,22.61.1,22A18.25,18.25,0,0,1,0,20Z"/><path d="M59.21,23.33a2.23,2.23,0,0,1,.1.39.23.23,0,0,1-.05.22A.51.51,0,0,1,59,24a3.87,3.87,0,0,1-.53,0h-.54a1.68,1.68,0,0,1-.3,0,.28.28,0,0,1-.14-.09.37.37,0,0,1-.07-.14L56.82,22H53.5l-.57,1.73a.34.34,0,0,1-.07.16.27.27,0,0,1-.14.11,1.43,1.43,0,0,1-.28.05H52l-.49,0a.34.34,0,0,1-.24-.1.23.23,0,0,1,0-.22,2.17,2.17,0,0,1,.1-.38L54,15.47a1.14,1.14,0,0,1,.09-.19.4.4,0,0,1,.18-.11,1.94,1.94,0,0,1,.33-.05h1.2a2.53,2.53,0,0,1,.38.05.43.43,0,0,1,.19.11.69.69,0,0,1,.1.21Zm-4.06-6.49h0L53.89,20.6H56.4Z"/><path d="M66.13,23.77a.16.16,0,0,1,0,.12A.2.2,0,0,1,66,24a1,1,0,0,1-.23.05h-.7a1,1,0,0,1-.22-.05.23.23,0,0,1-.12-.09.16.16,0,0,1,0-.12v-.68a3.78,3.78,0,0,1-1,.79,2.4,2.4,0,0,1-1.14.28,2.37,2.37,0,0,1-1.18-.27,2.4,2.4,0,0,1-.79-.73,3.22,3.22,0,0,1-.44-1.07A6,6,0,0,1,60,20.8a5.47,5.47,0,0,1,.17-1.46,3.55,3.55,0,0,1,.51-1.11,2.15,2.15,0,0,1,.83-.7,2.52,2.52,0,0,1,1.15-.25,2.05,2.05,0,0,1,.93.21,3.21,3.21,0,0,1,.83.61V14.8a.16.16,0,0,1,0-.12.28.28,0,0,1,.13-.1,1.46,1.46,0,0,1,.27-.05,2.29,2.29,0,0,1,.41,0,2.42,2.42,0,0,1,.42,0,1.2,1.2,0,0,1,.26.05.39.39,0,0,1,.14.1.21.21,0,0,1,0,.12Zm-1.71-4.08a4,4,0,0,0-.71-.71,1.19,1.19,0,0,0-.71-.24,1,1,0,0,0-.57.16,1.2,1.2,0,0,0-.39.45,2.47,2.47,0,0,0-.22.63,3.26,3.26,0,0,0-.07.7,4.56,4.56,0,0,0,.06.75,2.48,2.48,0,0,0,.2.65,1.26,1.26,0,0,0,.37.45,1,1,0,0,0,.59.17,1.41,1.41,0,0,0,.35-.05,1.2,1.2,0,0,0,.34-.17,2.85,2.85,0,0,0,.36-.3l.4-.46Z"/><path d="M73.64,23.77a.21.21,0,0,1,0,.12.27.27,0,0,1-.12.09.9.9,0,0,1-.22.05h-.7a.9.9,0,0,1-.22-.05.25.25,0,0,1-.13-.09.21.21,0,0,1,0-.12v-.68a3.91,3.91,0,0,1-1,.79,2.47,2.47,0,0,1-1.15.28,2.39,2.39,0,0,1-1.18-.27,2.27,2.27,0,0,1-.78-.73,3,3,0,0,1-.44-1.07,5.43,5.43,0,0,1-.14-1.29,5.91,5.91,0,0,1,.17-1.46,3.55,3.55,0,0,1,.51-1.11,2.18,2.18,0,0,1,.84-.7,2.45,2.45,0,0,1,1.14-.25,2,2,0,0,1,.93.21,3.21,3.21,0,0,1,.83.61V14.8a.16.16,0,0,1,0-.12.27.27,0,0,1,.14-.1,1.2,1.2,0,0,1,.26-.05,2.42,2.42,0,0,1,.42,0,2.29,2.29,0,0,1,.41,0,1.2,1.2,0,0,1,.26.05.32.32,0,0,1,.14.1.16.16,0,0,1,0,.12Zm-1.71-4.08a3.65,3.65,0,0,0-.71-.71,1.18,1.18,0,0,0-.7-.24,1,1,0,0,0-.58.16,1.41,1.41,0,0,0-.39.45,2.47,2.47,0,0,0-.22.63,3.26,3.26,0,0,0-.07.7,4.56,4.56,0,0,0,.06.75,2.48,2.48,0,0,0,.2.65,1.38,1.38,0,0,0,.37.45,1,1,0,0,0,.59.17,1.34,1.34,0,0,0,.35-.05,1.2,1.2,0,0,0,.34-.17,1.91,1.91,0,0,0,.36-.3c.12-.13.26-.28.4-.46Z"/><path d="M82.14,23.17a2.69,2.69,0,0,1,0,.46.57.57,0,0,1-.1.22.41.41,0,0,1-.18.12l-.28.09-.35.06-.38,0a2.93,2.93,0,0,1-.89-.13,1.48,1.48,0,0,1-.62-.4,1.54,1.54,0,0,1-.36-.68,3.52,3.52,0,0,1-.12-1V18.83H78.1c-.09,0-.15,0-.2-.16a1.39,1.39,0,0,1-.07-.54,2.92,2.92,0,0,1,0-.33,1,1,0,0,1,.05-.22.24.24,0,0,1,.08-.11.27.27,0,0,1,.12,0h.73V16.08a.2.2,0,0,1,0-.13.36.36,0,0,1,.13-.09,1.46,1.46,0,0,1,.27,0l.41,0,.42,0a1.31,1.31,0,0,1,.27,0,.36.36,0,0,1,.13.09.2.2,0,0,1,0,.13v1.36h1.33a.21.21,0,0,1,.12,0s.06.06.09.11a1,1,0,0,1,0,.22,3.22,3.22,0,0,1,0,.33,1.69,1.69,0,0,1-.06.54c0,.11-.12.16-.2.16H80.54V21.7a1.49,1.49,0,0,0,.16.75.62.62,0,0,0,.56.24,1,1,0,0,0,.25,0l.19-.05.15-.06a.2.2,0,0,1,.1,0,.11.11,0,0,1,.08,0,.14.14,0,0,1,.06.1c0,.05,0,.11,0,.19A2.92,2.92,0,0,1,82.14,23.17Z"/><path d="M89.42,20.66a4.55,4.55,0,0,1-.21,1.42,2.88,2.88,0,0,1-.62,1.11,2.68,2.68,0,0,1-1,.71,3.81,3.81,0,0,1-1.46.26,4,4,0,0,1-1.42-.23,2.67,2.67,0,0,1-1-.65,2.88,2.88,0,0,1-.59-1.06,5.23,5.23,0,0,1-.19-1.44,4.55,4.55,0,0,1,.21-1.42,2.88,2.88,0,0,1,.63-1.11,2.77,2.77,0,0,1,1-.72,3.9,3.9,0,0,1,1.47-.25,4.07,4.07,0,0,1,1.42.22,2.47,2.47,0,0,1,1,.66,2.76,2.76,0,0,1,.59,1.05A5.31,5.31,0,0,1,89.42,20.66Zm-1.77.07a5.38,5.38,0,0,0-.07-.84,1.8,1.8,0,0,0-.25-.65,1.12,1.12,0,0,0-.45-.44,1.42,1.42,0,0,0-.72-.16,1.6,1.6,0,0,0-.67.14,1.23,1.23,0,0,0-.47.41,2,2,0,0,0-.27.65,3.25,3.25,0,0,0-.1.87,4.33,4.33,0,0,0,.08.83,2.15,2.15,0,0,0,.24.66,1.12,1.12,0,0,0,.46.43,1.49,1.49,0,0,0,.71.15,1.41,1.41,0,0,0,.67-.14,1.32,1.32,0,0,0,.48-.4,2,2,0,0,0,.27-.65A3.72,3.72,0,0,0,87.65,20.73Z"/><path d="M100.16,22.66a2.53,2.53,0,0,1,0,.29.66.66,0,0,1,0,.21.58.58,0,0,1-.05.14.6.6,0,0,1-.11.14,1.16,1.16,0,0,1-.29.2,3,3,0,0,1-.53.24,4,4,0,0,1-.71.19,4.68,4.68,0,0,1-.86.07,4.44,4.44,0,0,1-1.64-.28A3.16,3.16,0,0,1,94.68,23a3.8,3.8,0,0,1-.78-1.4,6,6,0,0,1-.28-1.94,6.14,6.14,0,0,1,.3-2,4.22,4.22,0,0,1,.84-1.47,3.46,3.46,0,0,1,1.3-.9A4.27,4.27,0,0,1,97.72,15a4,4,0,0,1,.71.06,5.44,5.44,0,0,1,.64.16,5.06,5.06,0,0,1,.52.23,1.52,1.52,0,0,1,.32.22.69.69,0,0,1,.13.16.91.91,0,0,1,.06.16c0,.06,0,.13,0,.22s0,.19,0,.32a3.32,3.32,0,0,1,0,.35,1.07,1.07,0,0,1,0,.23c0,.06,0,.11-.09.13a.15.15,0,0,1-.11,0,.52.52,0,0,1-.26-.12,4.72,4.72,0,0,0-.4-.26,3.37,3.37,0,0,0-.6-.27,2.49,2.49,0,0,0-.82-.12,1.92,1.92,0,0,0-.94.22,2.07,2.07,0,0,0-.71.61,3,3,0,0,0-.44,1,5,5,0,0,0-.15,1.28A5.32,5.32,0,0,0,95.72,21a2.66,2.66,0,0,0,.46.94,1.93,1.93,0,0,0,.72.55,2.4,2.4,0,0,0,.95.18,2.81,2.81,0,0,0,.82-.11,3.51,3.51,0,0,0,.6-.25,3.93,3.93,0,0,0,.41-.25.55.55,0,0,1,.25-.11.18.18,0,0,1,.11,0,.19.19,0,0,1,.07.11,1,1,0,0,1,0,.23C100.16,22.37,100.16,22.5,100.16,22.66Z"/><path d="M106.55,23.79a.18.18,0,0,1-.07.15.71.71,0,0,1-.21.08l-.44,0-.45,0a.43.43,0,0,1-.19-.08.2.2,0,0,1-.06-.15V23.3a2.77,2.77,0,0,1-.86.63,2.5,2.5,0,0,1-1.07.23,2.82,2.82,0,0,1-.89-.13,1.94,1.94,0,0,1-.71-.38,1.64,1.64,0,0,1-.46-.61,2.14,2.14,0,0,1-.16-.87,1.92,1.92,0,0,1,.21-.92,1.68,1.68,0,0,1,.62-.65,3,3,0,0,1,1-.38,7.49,7.49,0,0,1,1.43-.12h.59v-.37a2,2,0,0,0-.06-.51.79.79,0,0,0-.19-.35.84.84,0,0,0-.35-.22,2.2,2.2,0,0,0-.55-.06,3,3,0,0,0-.77.09q-.34.11-.6.21c-.17.08-.32.15-.44.22a.64.64,0,0,1-.28.09.17.17,0,0,1-.13-.05.34.34,0,0,1-.1-.13c0-.06,0-.14-.06-.22a2.48,2.48,0,0,1,0-.29,1,1,0,0,1,0-.33.45.45,0,0,1,.13-.23,1.32,1.32,0,0,1,.33-.22c.16-.07.35-.15.56-.22a4.79,4.79,0,0,1,.7-.16,4.15,4.15,0,0,1,.79-.07,4.82,4.82,0,0,1,1.22.14,2.09,2.09,0,0,1,.84.43,1.62,1.62,0,0,1,.48.75,3.54,3.54,0,0,1,.15,1.09Zm-1.69-2.61h-.66a3.69,3.69,0,0,0-.71.06,1.5,1.5,0,0,0-.48.18.77.77,0,0,0-.27.3,1,1,0,0,0-.08.4.75.75,0,0,0,.24.6,1,1,0,0,0,.68.22,1.26,1.26,0,0,0,.66-.18,3.27,3.27,0,0,0,.62-.54Z"/><path d="M112.18,18.24c0,.16,0,.3,0,.4a1.18,1.18,0,0,1,0,.25.31.31,0,0,1-.07.12.21.21,0,0,1-.12,0,.3.3,0,0,1-.12,0l-.15-.05-.19,0a.85.85,0,0,0-.23,0A.79.79,0,0,0,111,19a1.35,1.35,0,0,0-.29.18,2,2,0,0,0-.32.33A4.9,4.9,0,0,0,110,20v3.8a.28.28,0,0,1,0,.12.37.37,0,0,1-.14.08.93.93,0,0,1-.27.05,2.49,2.49,0,0,1-.41,0,2.56,2.56,0,0,1-.42,0,.8.8,0,0,1-.26-.05.26.26,0,0,1-.14-.08.21.21,0,0,1,0-.12v-6.1a.21.21,0,0,1,0-.12.31.31,0,0,1,.12-.09l.23-.05h.72a.9.9,0,0,1,.22.05.35.35,0,0,1,.11.09.21.21,0,0,1,0,.12v.76a3.53,3.53,0,0,1,.46-.56,2.54,2.54,0,0,1,.4-.36,1.64,1.64,0,0,1,.38-.18,1.73,1.73,0,0,1,.38,0h.2l.21,0,.19.06.12.06a.35.35,0,0,1,.05.08.29.29,0,0,1,0,.11,1.09,1.09,0,0,1,0,.22C112.18,17.94,112.18,18.07,112.18,18.24Z"/><path d="M116.85,23.17a1.86,1.86,0,0,1,0,.46.45.45,0,0,1-.1.22.41.41,0,0,1-.18.12l-.28.09-.35.06-.38,0a2.86,2.86,0,0,1-.88-.13,1.52,1.52,0,0,1-.63-.4,1.77,1.77,0,0,1-.36-.68,3.55,3.55,0,0,1-.11-1V18.83h-.74a.21.21,0,0,1-.19-.16,1.39,1.39,0,0,1-.07-.54,3.22,3.22,0,0,1,0-.33,1,1,0,0,1,.06-.22.24.24,0,0,1,.08-.11.24.24,0,0,1,.12,0h.73V16.08a.28.28,0,0,1,0-.13.42.42,0,0,1,.14-.09,1.31,1.31,0,0,1,.27,0l.41,0,.42,0a1.2,1.2,0,0,1,.26,0,.42.42,0,0,1,.14.09.2.2,0,0,1,0,.13v1.36h1.33a.27.27,0,0,1,.12,0,.24.24,0,0,1,.08.11,1,1,0,0,1,0,.22,2.92,2.92,0,0,1,0,.33,1.39,1.39,0,0,1-.07.54.21.21,0,0,1-.2.16h-1.33V21.7a1.39,1.39,0,0,0,.16.75.61.61,0,0,0,.56.24.9.9,0,0,0,.24,0l.2-.05.14-.06a.23.23,0,0,1,.11,0,.12.12,0,0,1,.08,0,.29.29,0,0,1,.06.1c0,.05,0,.11,0,.19A2.58,2.58,0,0,1,116.85,23.17Z"/><path d="M21.36,25.61a2.21,2.21,0,0,1,.84.17,2.12,2.12,0,0,1,.71.48,2.15,2.15,0,0,1,.47.71,2.16,2.16,0,0,1,0,1.68,2.14,2.14,0,0,1-1.18,1.18,2.16,2.16,0,0,1-1.68,0,2.15,2.15,0,0,1-.71-.47,2.12,2.12,0,0,1-.48-.71,2.29,2.29,0,0,1,0-1.68,2.26,2.26,0,0,1,1.19-1.19A2.21,2.21,0,0,1,21.36,25.61Z"/><path d="M31.27,25.61a2.21,2.21,0,0,1,.84.17,2,2,0,0,1,.71.48,2.17,2.17,0,0,1,.48.71,2.28,2.28,0,0,1,0,1.68,2.28,2.28,0,0,1-.48.71,2.15,2.15,0,0,1-.71.47,2.16,2.16,0,0,1-1.68,0,2.25,2.25,0,0,1-.71-.47,2.28,2.28,0,0,1-.48-.71,2.29,2.29,0,0,1,0-1.68,2.17,2.17,0,0,1,.48-.71,2.12,2.12,0,0,1,.71-.48A2.21,2.21,0,0,1,31.27,25.61Z"/><polygon points="20.86 21.57 34.06 21.57 36 12.31 19.15 12.31 18.72 10 14 10 14 11.54 17.36 11.54 19.79 24.66 34.21 24.66 34.21 23.12 21.14 23.12 20.86 21.57"/><path d="M44.5,12a5.47,5.47,0,0,1-.11,1.07,5.11,5.11,0,0,1-.31,1,5.5,5.5,0,0,1-.51,1,5.43,5.43,0,0,1-1.51,1.51,5.5,5.5,0,0,1-1,.51,5.11,5.11,0,0,1-1,.31,5.26,5.26,0,0,1-2.14,0,5.11,5.11,0,0,1-1-.31,5.5,5.5,0,0,1-1-.51,5.43,5.43,0,0,1-1.51-1.51,5.5,5.5,0,0,1-.51-1,5.11,5.11,0,0,1-.31-1,5.26,5.26,0,0,1,0-2.14,5.11,5.11,0,0,1,.31-1,5.5,5.5,0,0,1,.51-1,5.43,5.43,0,0,1,1.51-1.51,5.5,5.5,0,0,1,1-.51,5.11,5.11,0,0,1,1-.31,5.26,5.26,0,0,1,2.14,0,5.11,5.11,0,0,1,1,.31,5.5,5.5,0,0,1,1,.51,5.43,5.43,0,0,1,1.51,1.51,5.5,5.5,0,0,1,.51,1,5.11,5.11,0,0,1,.31,1A5.47,5.47,0,0,1,44.5,12Z"/><path class="cls-2" d="M44.5,12a5.47,5.47,0,0,1-.11,1.07,5.11,5.11,0,0,1-.31,1,5.5,5.5,0,0,1-.51,1,5.43,5.43,0,0,1-1.51,1.51,5.5,5.5,0,0,1-1,.51,5.11,5.11,0,0,1-1,.31,5.26,5.26,0,0,1-2.14,0,5.11,5.11,0,0,1-1-.31,5.5,5.5,0,0,1-1-.51,5.43,5.43,0,0,1-1.51-1.51,5.5,5.5,0,0,1-.51-1,5.11,5.11,0,0,1-.31-1,5.26,5.26,0,0,1,0-2.14,5.11,5.11,0,0,1,.31-1,5.5,5.5,0,0,1,.51-1,5.43,5.43,0,0,1,1.51-1.51,5.5,5.5,0,0,1,1-.51,5.11,5.11,0,0,1,1-.31,5.26,5.26,0,0,1,2.14,0,5.11,5.11,0,0,1,1,.31,5.5,5.5,0,0,1,1,.51,5.43,5.43,0,0,1,1.51,1.51,5.5,5.5,0,0,1,.51,1,5.11,5.11,0,0,1,.31,1A5.47,5.47,0,0,1,44.5,12Z"/><line class="cls-3" x1="38.89" y1="9" x2="38.89" y2="15"/><line class="cls-3" x1="36" y1="12" x2="42" y2="12"/></g></g></svg>