<?xml version="1.0" encoding="utf-8"?>
<!-- Generator: Adobe Illustrator 23.0.1, SVG Export Plug-In . SVG Version: 6.00 Build 0)  -->
<svg version="1.1" id="Layer_1" xmlns="http://www.w3.org/2000/svg" xmlns:xlink="http://www.w3.org/1999/xlink" x="0px" y="0px"
	 viewBox="0 0 77 40" style="enable-background:new 0 0 77 40;" xml:space="preserve">
<style type="text/css">
	.st0{fill:#FFA500;}
	.st1{fill:none;stroke:#F9A31A;}
	.st2{fill:none;stroke:#F9A31A;stroke-width:1.5;stroke-linecap:round;}
</style>
<title>Asset 2</title>
<g>
	<g id="Layer_1-2">
		<path class="st0" d="M0,20c0-0.7,0-1.3,0.1-2c0.1-0.6,0.2-1.3,0.3-1.9s0.3-1.3,0.5-1.9s0.4-1.2,0.7-1.8c0.2-0.6,0.5-1.2,0.8-1.8
			c0.3-0.6,0.6-1.1,1-1.7c0.4-0.5,0.8-1,1.2-1.5c0.4-0.5,0.8-1,1.3-1.5S6.8,5,7.3,4.5c0.5-0.4,1-0.8,1.6-1.2c0.5-0.4,1.1-0.7,1.7-1
			c0.6-0.3,1.2-0.6,1.8-0.8c0.6-0.3,1.2-0.5,1.8-0.7s1.3-0.4,1.9-0.5c0.6-0.1,1.3-0.2,1.9-0.3C18.7,0,19.3,0,20,0h37
			c0.7,0,1.3,0,2,0.1c0.7,0.1,1.3,0.2,1.9,0.3s1.3,0.3,1.9,0.5s1.2,0.4,1.8,0.7c0.6,0.2,1.2,0.5,1.8,0.8c0.6,0.3,1.1,0.6,1.7,1
			c0.5,0.4,1.1,0.8,1.6,1.2c0.5,0.4,1,0.8,1.4,1.3s0.9,0.9,1.3,1.5c0.4,0.5,0.8,1,1.2,1.6c0.4,0.5,0.7,1.1,1,1.7
			c0.3,0.6,0.6,1.2,0.8,1.8c0.3,0.6,0.5,1.2,0.7,1.8s0.3,1.3,0.5,1.9s0.2,1.3,0.3,1.9c0.1,1.3,0.1,2.6,0,3.9
			c-0.1,0.6-0.2,1.3-0.3,1.9s-0.3,1.3-0.5,1.9s-0.4,1.2-0.7,1.8c-0.2,0.6-0.5,1.2-0.8,1.8c-0.3,0.6-0.7,1.1-1,1.7
			c-0.4,0.5-0.8,1.1-1.2,1.6c-0.4,0.5-0.8,1-1.3,1.5s-1,0.9-1.4,1.3c-0.5,0.4-1,0.8-1.6,1.2c-0.5,0.4-1.1,0.7-1.7,1
			c-0.6,0.3-1.2,0.6-1.8,0.8c-0.6,0.3-1.2,0.5-1.8,0.7s-1.3,0.3-1.9,0.5s-1.3,0.2-1.9,0.3c-0.7,0.1-1.3,0.1-2,0.1H20
			c-0.7,0-1.3,0-2-0.1c-0.6-0.1-1.3-0.2-1.9-0.3s-1.3-0.3-1.9-0.5s-1.2-0.4-1.8-0.7c-0.6-0.2-1.2-0.5-1.8-0.8
			c-0.6-0.3-1.1-0.7-1.7-1c-0.5-0.4-1.1-0.8-1.6-1.2c-0.5-0.4-1-0.8-1.4-1.3s-0.9-1-1.3-1.5c-0.4-0.5-0.8-1-1.2-1.6
			c-0.4-0.5-0.7-1.1-1-1.7c-0.3-0.6-0.6-1.2-0.8-1.8C1.2,27,1,26.4,0.8,25.8s-0.3-1.3-0.4-1.9S0.2,22.6,0.1,22C0,21.3,0,20.7,0,20z"
			/>
		<path d="M32.4,25.6c0.3,0,0.6,0.1,0.8,0.2c0.3,0.1,0.5,0.3,0.7,0.5c0.2,0.2,0.4,0.4,0.5,0.7c0.2,0.5,0.2,1.1,0,1.7
			c-0.2,0.5-0.6,1-1.2,1.2c-0.5,0.2-1.1,0.2-1.7,0c-0.3-0.1-0.5-0.3-0.7-0.5c-0.2-0.2-0.4-0.4-0.5-0.7c-0.2-0.5-0.2-1.1,0-1.7
			c0.2-0.5,0.7-1,1.2-1.2C31.8,25.7,32.1,25.6,32.4,25.6z"/>
		<path d="M42.3,25.6c0.3,0,0.6,0.1,0.8,0.2c0.5,0.2,1,0.7,1.2,1.2c0.2,0.5,0.2,1.1,0,1.7c-0.1,0.3-0.3,0.5-0.5,0.7
			c-0.2,0.2-0.4,0.4-0.7,0.5c-0.5,0.2-1.1,0.2-1.7,0c-0.3-0.1-0.5-0.3-0.7-0.5c-0.2-0.2-0.4-0.4-0.5-0.7c-0.2-0.5-0.2-1.1,0-1.7
			c0.1-0.3,0.3-0.5,0.5-0.7c0.2-0.2,0.4-0.4,0.7-0.5C41.7,25.7,42,25.6,42.3,25.6z"/>
		<polygon points="31.9,21.6 45.1,21.6 47,12.3 30.1,12.3 29.7,10 25,10 25,11.5 28.4,11.5 30.8,24.7 45.2,24.7 45.2,23.1 
			32.1,23.1 		"/>
		<path d="M55.5,12c0,0.4,0,0.7-0.1,1.1c-0.1,0.3-0.2,0.7-0.3,1c-0.1,0.3-0.3,0.7-0.5,1c-0.4,0.6-0.9,1.1-1.5,1.5
			c-0.3,0.2-0.7,0.4-1,0.5c-0.3,0.1-0.7,0.2-1,0.3c-0.7,0.1-1.4,0.1-2.1,0c-0.3-0.1-0.7-0.2-1-0.3c-0.3-0.1-0.7-0.3-1-0.5
			c-0.6-0.4-1.1-0.9-1.5-1.5c-0.2-0.3-0.4-0.7-0.5-1c-0.1-0.3-0.2-0.7-0.3-1c-0.1-0.7-0.1-1.4,0-2.1c0.1-0.3,0.2-0.7,0.3-1
			c0.1-0.3,0.3-0.7,0.5-1c0.4-0.6,0.9-1.1,1.5-1.5c0.3-0.2,0.7-0.4,1-0.5c0.3-0.1,0.7-0.2,1-0.3c0.7-0.1,1.4-0.1,2.1,0
			c0.3,0.1,0.7,0.2,1,0.3c0.3,0.1,0.7,0.3,1,0.5c0.6,0.4,1.1,0.9,1.5,1.5c0.2,0.3,0.4,0.7,0.5,1c0.1,0.3,0.2,0.7,0.3,1
			C55.5,11.3,55.5,11.6,55.5,12z"/>
		<path class="st1" d="M55.5,12c0,0.4,0,0.7-0.1,1.1c-0.1,0.3-0.2,0.7-0.3,1c-0.1,0.3-0.3,0.7-0.5,1c-0.4,0.6-0.9,1.1-1.5,1.5
			c-0.3,0.2-0.7,0.4-1,0.5c-0.3,0.1-0.7,0.2-1,0.3c-0.7,0.1-1.4,0.1-2.1,0c-0.3-0.1-0.7-0.2-1-0.3c-0.3-0.1-0.7-0.3-1-0.5
			c-0.6-0.4-1.1-0.9-1.5-1.5c-0.2-0.3-0.4-0.7-0.5-1c-0.1-0.3-0.2-0.7-0.3-1c-0.1-0.7-0.1-1.4,0-2.1c0.1-0.3,0.2-0.7,0.3-1
			c0.1-0.3,0.3-0.7,0.5-1c0.4-0.6,0.9-1.1,1.5-1.5c0.3-0.2,0.7-0.4,1-0.5c0.3-0.1,0.7-0.2,1-0.3c0.7-0.1,1.4-0.1,2.1,0
			c0.3,0.1,0.7,0.2,1,0.3c0.3,0.1,0.7,0.3,1,0.5c0.6,0.4,1.1,0.9,1.5,1.5c0.2,0.3,0.4,0.7,0.5,1c0.1,0.3,0.2,0.7,0.3,1
			C55.5,11.3,55.5,11.6,55.5,12z"/>
		<line class="st2" x1="49.9" y1="9" x2="49.9" y2="15"/>
		<line class="st2" x1="47" y1="12" x2="53" y2="12"/>
	</g>
</g>
</svg>
