<svg xmlns="http://www.w3.org/2000/svg" viewBox="0 0 77 40"><defs><style>.cls-1{fill:none;stroke:#f9a31a;stroke-width:2px;}</style></defs><title>Asset 3</title><g id="Layer_2" data-name="Layer 2"><g id="Layer_1-2" data-name="Layer 1"><path class="cls-1" d="M1,20q0-.93.09-1.86a16.52,16.52,0,0,1,.28-1.85c.12-.61.27-1.21.45-1.81a18.25,18.25,0,0,1,.63-1.75A17.31,17.31,0,0,1,3.24,11c.3-.55.62-1.08,1-1.6s.72-1,1.11-1.49.81-1,1.25-1.39S7.47,5.71,8,5.31s1-.76,1.49-1.11,1.05-.66,1.6-1a17.31,17.31,0,0,1,1.69-.79,18.25,18.25,0,0,1,1.75-.63c.6-.18,1.2-.33,1.81-.45a16.52,16.52,0,0,1,1.85-.28Q19.07,1,20,1H57q.93,0,1.86.09a16.52,16.52,0,0,1,1.85.28c.61.12,1.21.27,1.81.45a18.25,18.25,0,0,1,1.75.63A17.31,17.31,0,0,1,66,3.24c.55.3,1.08.62,1.6,1s1,.72,1.49,1.11.94.81,1.38,1.25A18.37,18.37,0,0,1,71.69,8c.39.48.76,1,1.11,1.49s.66,1.05,1,1.6a17.31,17.31,0,0,1,.79,1.69,18.25,18.25,0,0,1,.63,1.75c.18.6.33,1.2.45,1.81a16.52,16.52,0,0,1,.28,1.85Q76,19.07,76,20t-.09,1.86a16.52,16.52,0,0,1-.28,1.85c-.12.61-.27,1.21-.45,1.81a18.25,18.25,0,0,1-.63,1.75A17.31,17.31,0,0,1,73.76,29c-.3.55-.62,1.08-1,1.6s-.72,1-1.11,1.49a20.58,20.58,0,0,1-2.64,2.64c-.48.39-1,.76-1.49,1.11s-1,.66-1.6,1a17.31,17.31,0,0,1-1.69.79,18.25,18.25,0,0,1-1.75.63c-.6.18-1.2.33-1.81.45a16.52,16.52,0,0,1-1.85.28Q57.93,39,57,39H20q-.93,0-1.86-.09a16.52,16.52,0,0,1-1.85-.28c-.61-.12-1.21-.27-1.81-.45a18.25,18.25,0,0,1-1.75-.63A17.31,17.31,0,0,1,11,36.76c-.55-.3-1.08-.62-1.6-1s-1-.72-1.49-1.11a18.37,18.37,0,0,1-1.39-1.26c-.44-.44-.85-.9-1.25-1.38s-.76-1-1.11-1.49-.66-1-1-1.6a17.31,17.31,0,0,1-.79-1.69,18.25,18.25,0,0,1-.63-1.75c-.18-.6-.33-1.2-.45-1.81a16.52,16.52,0,0,1-.28-1.85Q1,20.93,1,20Z"/><path d="M38.5,29a4.16,4.16,0,0,0,3.81-2.5H34.69A4.16,4.16,0,0,0,38.5,29Z"/><path d="M44.12,20.63V18.35c0-2.65-1.06-5-3.75-5.54L40.06,11H36.94l-.32,1.81c-2.69.58-3.75,2.88-3.75,5.54v2.28L31,23v1.8H46V23Z"/></g></g></svg>