<svg xmlns="http://www.w3.org/2000/svg" viewBox="0 0 135 40"><defs><style>.cls-1{fill:#fff;}.cls-2{fill:#f9a31a;}</style></defs><title>Asset 2</title><g id="Layer_2" data-name="Layer 2"><g id="Layer_1-2" data-name="Layer 1"><path class="cls-1" d="M1,20q0-.93.09-1.86a16.52,16.52,0,0,1,.28-1.85c.12-.61.27-1.21.45-1.81a18.25,18.25,0,0,1,.63-1.75A17.31,17.31,0,0,1,3.24,11c.3-.55.62-1.08,1-1.6s.72-1,1.11-1.49.81-1,1.25-1.39S7.47,5.71,8,5.31s1-.76,1.49-1.11,1.05-.66,1.6-1a17.31,17.31,0,0,1,1.69-.79,18.25,18.25,0,0,1,1.75-.63c.6-.18,1.2-.33,1.81-.45a16.52,16.52,0,0,1,1.85-.28Q19.07,1,20,1h95q.93,0,1.86.09a16.52,16.52,0,0,1,1.85.28c.61.12,1.21.27,1.81.45a18.25,18.25,0,0,1,1.75.63,17.31,17.31,0,0,1,1.69.79c.55.3,1.08.62,1.6,1s1,.72,1.49,1.11.94.81,1.38,1.25A18.37,18.37,0,0,1,129.69,8c.39.48.76,1,1.11,1.49s.66,1.05,1,1.6a17.31,17.31,0,0,1,.79,1.69,18.25,18.25,0,0,1,.63,1.75c.18.6.33,1.2.45,1.81a16.52,16.52,0,0,1,.28,1.85q.09.93.09,1.86t-.09,1.86a16.52,16.52,0,0,1-.28,1.85c-.12.61-.27,1.21-.45,1.81a18.25,18.25,0,0,1-.63,1.75,17.31,17.31,0,0,1-.79,1.69c-.3.55-.62,1.08-1,1.6s-.72,1-1.11,1.49a20.58,20.58,0,0,1-2.64,2.64c-.48.39-1,.76-1.49,1.11s-1,.66-1.6,1a17.31,17.31,0,0,1-1.69.79,18.25,18.25,0,0,1-1.75.63c-.6.18-1.2.33-1.81.45a16.52,16.52,0,0,1-1.85.28q-.93.09-1.86.09H20q-.93,0-1.86-.09a16.52,16.52,0,0,1-1.85-.28c-.61-.12-1.21-.27-1.81-.45a18.25,18.25,0,0,1-1.75-.63A17.31,17.31,0,0,1,11,36.76c-.55-.3-1.08-.62-1.6-1s-1-.72-1.49-1.11a18.37,18.37,0,0,1-1.39-1.26c-.44-.44-.85-.9-1.25-1.38s-.76-1-1.11-1.49-.66-1-1-1.6a17.31,17.31,0,0,1-.79-1.69,18.25,18.25,0,0,1-.63-1.75c-.18-.6-.33-1.2-.45-1.81a16.52,16.52,0,0,1-.28-1.85Q1,20.93,1,20Z"/><path class="cls-2" d="M115,40H20a18.11,18.11,0,0,1-2-.1c-.64-.06-1.3-.16-1.94-.28s-1.28-.29-1.91-.48a20.33,20.33,0,0,1-3.62-1.5c-.58-.31-1.14-.65-1.68-1a19.51,19.51,0,0,1-1.58-1.17,18.33,18.33,0,0,1-1.45-1.32c-.46-.46-.9-.94-1.32-1.45a19.51,19.51,0,0,1-1.17-1.58c-.36-.54-.7-1.11-1-1.68s-.59-1.17-.84-1.78A19.32,19.32,0,0,1,.86,25.8c-.19-.62-.35-1.26-.48-1.9S.16,22.61.1,22A19.26,19.26,0,0,1,.1,18c.06-.65.16-1.3.28-1.94s.29-1.28.48-1.91.41-1.24.66-1.84.54-1.21.84-1.78.64-1.13,1-1.68A19.51,19.51,0,0,1,4.54,7.31c.42-.5.86-1,1.32-1.45A18,18,0,0,1,7.31,4.54c.51-.41,1-.81,1.58-1.17s1.1-.7,1.68-1A20.33,20.33,0,0,1,14.19.86C14.82.67,15.46.51,16.1.38S17.4.16,18,.1A18.11,18.11,0,0,1,20,0h95a18.11,18.11,0,0,1,2,.1c.64.06,1.3.16,1.94.28s1.28.29,1.91.48a20.33,20.33,0,0,1,3.62,1.5c.58.31,1.14.65,1.68,1s1.07.76,1.58,1.17a18,18,0,0,1,1.45,1.32c.46.46.91.95,1.32,1.45s.81,1,1.17,1.58.7,1.11,1,1.68.59,1.17.84,1.78.47,1.22.66,1.84.35,1.27.48,1.91.22,1.29.28,1.94a19.26,19.26,0,0,1,0,3.92c-.06.65-.16,1.3-.28,1.94s-.29,1.28-.48,1.91-.41,1.24-.66,1.84-.54,1.21-.84,1.78-.65,1.14-1,1.68-.76,1.07-1.17,1.58-.86,1-1.32,1.45-.94.9-1.45,1.32a19.51,19.51,0,0,1-1.58,1.17c-.54.36-1.1.7-1.68,1a20.33,20.33,0,0,1-3.62,1.5c-.63.19-1.27.35-1.91.48s-1.3.22-1.94.28A18.11,18.11,0,0,1,115,40ZM20,2a17.14,17.14,0,0,0-1.76.09,15.08,15.08,0,0,0-1.75.26,15.44,15.44,0,0,0-1.72.43c-.56.17-1.12.37-1.66.59a16.67,16.67,0,0,0-1.6.76A16.25,16.25,0,0,0,10,5c-.49.33-1,.68-1.42,1.06s-.89.76-1.31,1.18-.81.86-1.19,1.31S5.36,9.51,5,10a16.68,16.68,0,0,0-.9,1.51c-.28.52-.53,1.06-.76,1.6a14.94,14.94,0,0,0-.59,1.66,15.44,15.44,0,0,0-.43,1.72,14.47,14.47,0,0,0-.26,1.75,17.25,17.25,0,0,0,0,3.52,14.47,14.47,0,0,0,.26,1.75,15.44,15.44,0,0,0,.43,1.72,17.29,17.29,0,0,0,.59,1.66c.23.54.48,1.08.76,1.59s.58,1,.9,1.52.68,1,1.06,1.42a16.41,16.41,0,0,0,1.18,1.31c.41.41.85.81,1.31,1.19s.93.72,1.42,1a17.44,17.44,0,0,0,1.52.91c.51.27,1.05.53,1.59.75s1.1.42,1.66.59a15.44,15.44,0,0,0,1.72.43,15.24,15.24,0,0,0,1.74.26A17.48,17.48,0,0,0,20,38h95a17.14,17.14,0,0,0,1.76-.09,15.08,15.08,0,0,0,1.75-.26,15.44,15.44,0,0,0,1.72-.43c.56-.17,1.12-.37,1.66-.59s1.08-.48,1.6-.75,1-.59,1.51-.91,1-.68,1.42-1.06a16.41,16.41,0,0,0,1.31-1.18c.41-.42.81-.85,1.18-1.31s.73-.93,1.06-1.42.63-1,.9-1.52.53-1.05.76-1.59.42-1.1.59-1.66a15.44,15.44,0,0,0,.43-1.72,14.47,14.47,0,0,0,.26-1.75,17.25,17.25,0,0,0,0-3.52,14.47,14.47,0,0,0-.26-1.75,15.44,15.44,0,0,0-.43-1.72c-.17-.56-.37-1.12-.59-1.66s-.48-1.08-.76-1.6-.58-1-.9-1.51-.68-1-1.06-1.42-.77-.89-1.18-1.31-.86-.81-1.31-1.18S125.49,5.36,125,5a15.2,15.2,0,0,0-1.52-.9,15.45,15.45,0,0,0-1.59-.76c-.54-.22-1.1-.42-1.66-.59a15.44,15.44,0,0,0-1.72-.43,15.24,15.24,0,0,0-1.74-.26A17.48,17.48,0,0,0,115,2Z"/><path d="M67,29a4.16,4.16,0,0,0,3.81-2.5H63.19A4.16,4.16,0,0,0,67,29Z"/><path d="M72.63,20.63V18.35c0-2.65-1.07-5-3.75-5.54L68.56,11H65.44l-.31,1.81c-2.7.58-3.75,2.88-3.75,5.54v2.28L59.5,23v1.8h15V23Z"/></g></g></svg>