<svg xmlns="http://www.w3.org/2000/svg" viewBox="0 0 35.32 30.64"><defs><style>.cls-1{fill:#9b9d9d;}.cls-2{fill:#faa41a;}.cls-3{fill:none;stroke:#fff;stroke-width:1.5px;}</style></defs><title>Asset 6</title><g id="Layer_2" data-name="Layer 2"><g id="Layer_1-2" data-name="Layer 1"><path class="cls-1" d="M9.43,26.26a2,2,0,0,1,.84.17,2.15,2.15,0,0,1,.71.47,2.12,2.12,0,0,1,.48.71,2.29,2.29,0,0,1,0,1.68,2.26,2.26,0,0,1-1.19,1.19,2.29,2.29,0,0,1-1.68,0A2.12,2.12,0,0,1,7.88,30a2.15,2.15,0,0,1-.47-.71,2.16,2.16,0,0,1,0-1.68,2.14,2.14,0,0,1,1.18-1.18A2,2,0,0,1,9.43,26.26Z"/><path class="cls-1" d="M24.34,26.26a2,2,0,0,1,.84.17,2.15,2.15,0,0,1,.71.47,2.12,2.12,0,0,1,.48.71,2.28,2.28,0,0,1,0,1.68,2.26,2.26,0,0,1-1.19,1.19,2.29,2.29,0,0,1-1.68,0,2.12,2.12,0,0,1-.71-.48,2.15,2.15,0,0,1-.47-.71,2.16,2.16,0,0,1,0-1.68,2.14,2.14,0,0,1,1.18-1.18A2,2,0,0,1,24.34,26.26Z"/><polygon class="cls-1" points="9.06 21.03 26.51 21.03 29.07 8.22 6.8 8.22 6.24 5.01 0 5.01 0 7.15 4.44 7.15 7.65 25.3 26.7 25.3 26.7 23.17 9.44 23.17 9.06 21.03"/><path class="cls-2" d="M34.57,6a5.78,5.78,0,0,1-.1,1,5.65,5.65,0,0,1-.3,1,5.32,5.32,0,0,1-.49.91,5.46,5.46,0,0,1-.65.79,5.11,5.11,0,0,1-.8.66,5.18,5.18,0,0,1-.9.48,5.65,5.65,0,0,1-1,.3,5.3,5.3,0,0,1-2.05,0,5.55,5.55,0,0,1-1-.3,5.27,5.27,0,0,1-.91-.48,5.61,5.61,0,0,1-.8-.66A5.46,5.46,0,0,1,25,8.92,5.27,5.27,0,0,1,24.47,8a5.65,5.65,0,0,1-.3-1,5.25,5.25,0,0,1,0-2,5.65,5.65,0,0,1,.3-1A5.27,5.27,0,0,1,25,3.08a5.46,5.46,0,0,1,.65-.79,5.61,5.61,0,0,1,.8-.66,5.27,5.27,0,0,1,.91-.48,5.55,5.55,0,0,1,1-.3,5.3,5.3,0,0,1,2.05,0,5.65,5.65,0,0,1,1,.3,5.18,5.18,0,0,1,.9.48,5.11,5.11,0,0,1,.8.66,5.46,5.46,0,0,1,.65.79,5.32,5.32,0,0,1,.49.91,5.65,5.65,0,0,1,.3,1A5.78,5.78,0,0,1,34.57,6Z"/><path class="cls-3" d="M34.57,6a5.78,5.78,0,0,1-.1,1,5.65,5.65,0,0,1-.3,1,5.32,5.32,0,0,1-.49.91,5.46,5.46,0,0,1-.65.79,5.11,5.11,0,0,1-.8.66,5.18,5.18,0,0,1-.9.48,5.65,5.65,0,0,1-1,.3,5.3,5.3,0,0,1-2.05,0,5.55,5.55,0,0,1-1-.3,5.27,5.27,0,0,1-.91-.48,5.61,5.61,0,0,1-.8-.66A5.46,5.46,0,0,1,25,8.92,5.27,5.27,0,0,1,24.47,8a5.65,5.65,0,0,1-.3-1,5.25,5.25,0,0,1,0-2,5.65,5.65,0,0,1,.3-1A5.27,5.27,0,0,1,25,3.08a5.46,5.46,0,0,1,.65-.79,5.61,5.61,0,0,1,.8-.66,5.27,5.27,0,0,1,.91-.48,5.55,5.55,0,0,1,1-.3,5.3,5.3,0,0,1,2.05,0,5.65,5.65,0,0,1,1,.3,5.18,5.18,0,0,1,.9.48,5.11,5.11,0,0,1,.8.66,5.46,5.46,0,0,1,.65.79,5.32,5.32,0,0,1,.49.91,5.65,5.65,0,0,1,.3,1A5.78,5.78,0,0,1,34.57,6Z"/></g></g></svg>