<?xml version="1.0" encoding="utf-8"?>
<!-- Generator: Adobe Illustrator 23.0.1, SVG Export Plug-In . SVG Version: 6.00 Build 0)  -->
<svg version="1.1" id="Layer_1" xmlns="http://www.w3.org/2000/svg" xmlns:xlink="http://www.w3.org/1999/xlink" x="0px" y="0px"
	 viewBox="0 0 135 40" style="enable-background:new 0 0 135 40;" xml:space="preserve">
<style type="text/css">
	.st0{fill:#FFFFFF;}
	.st1{fill:#FFA500;}
</style>
<title>Asset 5</title>
<g>
	<g id="Layer_1-2">
		<path class="st0" d="M1,20c0-0.6,0-1.2,0.1-1.9s0.1-1.2,0.3-1.9s0.3-1.2,0.5-1.8c0.2-0.6,0.4-1.2,0.6-1.8c0.2-0.6,0.5-1.2,0.8-1.7
			c0.3-0.6,0.6-1.1,1-1.6s0.7-1,1.1-1.5s0.8-1,1.3-1.4S7.5,5.7,8,5.3s1-0.8,1.5-1.1s1.1-0.7,1.6-1c0.5-0.3,1.1-0.6,1.7-0.8
			c0.6-0.2,1.2-0.4,1.8-0.6c0.6-0.2,1.2-0.3,1.8-0.4C17,1.2,17.6,1.1,18.2,1c0.6,0,1.2,0,1.8,0h95c0.6,0,1.2,0,1.9,0.1
			c0.6,0.1,1.2,0.2,1.8,0.3c0.6,0.1,1.2,0.3,1.8,0.4c0.6,0.2,1.2,0.4,1.8,0.6c0.6,0.2,1.1,0.5,1.7,0.8c0.6,0.3,1.1,0.6,1.6,1
			s1,0.7,1.5,1.1s0.9,0.8,1.4,1.3c0.4,0.4,0.9,0.9,1.3,1.4s0.8,1,1.1,1.5s0.7,1.1,1,1.6c0.3,0.5,0.6,1.1,0.8,1.7
			c0.2,0.6,0.4,1.2,0.6,1.8c0.2,0.6,0.3,1.2,0.4,1.8c0.1,0.6,0.2,1.2,0.3,1.9c0.1,0.6,0.1,1.2,0.1,1.9s0,1.2-0.1,1.9
			c-0.1,0.6-0.2,1.2-0.3,1.9c-0.1,0.6-0.3,1.2-0.4,1.8c-0.2,0.6-0.4,1.2-0.6,1.8c-0.2,0.6-0.5,1.1-0.8,1.7c-0.3,0.5-0.6,1.1-1,1.6
			s-0.7,1-1.1,1.5s-0.8,0.9-1.3,1.4c-0.4,0.4-0.9,0.9-1.4,1.3c-0.5,0.4-1,0.8-1.5,1.1s-1,0.7-1.6,1c-0.5,0.3-1.1,0.6-1.7,0.8
			c-0.6,0.2-1.2,0.4-1.8,0.6c-0.6,0.2-1.2,0.3-1.8,0.5c-0.6,0.1-1.2,0.2-1.8,0.3c-0.6,0.1-1.2,0.1-1.9,0.1H20c-0.6,0-1.2,0-1.9-0.1
			c-0.6-0.1-1.2-0.2-1.9-0.3c-0.6-0.1-1.2-0.3-1.8-0.5c-0.6-0.2-1.2-0.4-1.8-0.6c-0.6-0.3-1.2-0.5-1.7-0.9c-0.6-0.3-1.1-0.6-1.6-1
			s-1-0.7-1.5-1.1c-0.5-0.4-0.9-0.8-1.4-1.3C6.1,33,5.7,32.5,5.3,32s-0.8-1-1.1-1.5s-0.7-1-1-1.6c-0.3-0.5-0.6-1.1-0.8-1.7
			c-0.2-0.6-0.4-1.2-0.6-1.8c-0.2-0.6-0.3-1.2-0.5-1.8S1.1,22.4,1,21.8S1,20.6,1,20z"/>
		<path class="st1" d="M115,40H20c-0.7,0-1.3,0-2-0.1c-0.6-0.1-1.3-0.2-1.9-0.3s-1.3-0.3-1.9-0.5c-0.6-0.2-1.2-0.4-1.8-0.7
			c-0.6-0.3-1.2-0.5-1.8-0.8s-1.1-0.7-1.7-1c-1.1-0.7-2.1-1.6-3-2.5c-0.5-0.5-0.9-0.9-1.3-1.5c-0.4-0.5-0.8-1-1.2-1.6
			c-0.4-0.5-0.7-1.1-1-1.7s-0.6-1.2-0.8-1.8S1,26.4,0.9,25.8s-0.3-1.3-0.5-1.9S0.2,22.6,0.1,22c-0.1-1.3-0.1-2.7,0-4
			c0.1-0.6,0.2-1.3,0.3-1.9s0.3-1.3,0.5-1.9s0.4-1.2,0.7-1.8s0.5-1.2,0.8-1.8s0.6-1.1,1-1.7c0.4-0.5,0.8-1,1.2-1.5
			c0.4-0.5,0.9-1,1.3-1.5S6.8,5,7.3,4.5c0.5-0.4,1-0.8,1.6-1.2c0.5-0.4,1.1-0.7,1.7-1c0.6-0.3,1.2-0.6,1.8-0.8
			c0.6-0.3,1.2-0.5,1.8-0.7s1.3-0.4,1.9-0.5c0.6-0.1,1.3-0.2,1.9-0.3C18.7,0,19.3,0,20,0h95c0.7,0,1.3,0,2,0.1
			c0.7,0.1,1.3,0.2,1.9,0.3s1.3,0.3,1.9,0.5s1.2,0.4,1.8,0.7s1.2,0.5,1.8,0.8s1.1,0.6,1.7,1c0.5,0.4,1.1,0.8,1.6,1.2
			c0.5,0.4,1,0.9,1.5,1.3c0.5,0.5,0.9,0.9,1.3,1.5c0.4,0.5,0.8,1,1.2,1.6s0.7,1.1,1,1.7c0.6,1.2,1.1,2.4,1.5,3.6
			c0.2,0.6,0.4,1.3,0.5,1.9s0.2,1.3,0.3,1.9c0.1,1.3,0.1,2.6,0,3.9c-0.1,0.6-0.2,1.3-0.3,1.9s-0.3,1.3-0.5,1.9s-0.4,1.2-0.7,1.8
			s-0.5,1.2-0.8,1.8s-0.6,1.1-1,1.7s-0.8,1.1-1.2,1.6c-0.8,1-1.8,1.9-2.8,2.8c-0.5,0.4-1,0.8-1.6,1.2c-0.5,0.4-1.1,0.7-1.7,1
			c-0.6,0.3-1.2,0.6-1.8,0.8c-0.6,0.3-1.2,0.5-1.8,0.7s-1.3,0.3-1.9,0.5s-1.3,0.2-1.9,0.3C116.3,40,115.7,40,115,40z M20,2
			c-0.6,0-1.2,0-1.8,0.1c-0.6,0.1-1.2,0.1-1.8,0.3c-0.6,0.1-1.2,0.3-1.7,0.4c-0.6,0.2-1.1,0.4-1.7,0.6c-0.5,0.2-1.1,0.5-1.6,0.8
			C11,4.4,10.5,4.7,10,5C9.5,5.4,9,5.7,8.6,6.1C8.1,6.5,7.7,6.9,7.3,7.3S6.5,8.1,6.1,8.6S5.4,9.5,5,10s-0.6,1-0.9,1.5
			c-0.3,0.5-0.5,1-0.8,1.6c-0.2,0.5-0.4,1.1-0.6,1.7c-0.2,0.6-0.3,1.1-0.4,1.7c-0.1,0.6-0.2,1.2-0.3,1.8c-0.1,1.2-0.1,2.3,0,3.5
			c0.1,0.6,0.1,1.2,0.3,1.8c0.1,0.6,0.3,1.2,0.4,1.7c0.2,0.6,0.4,1.1,0.6,1.7c0.2,0.5,0.5,1.1,0.8,1.6C4.4,29,4.7,29.5,5,30
			s0.7,1,1.1,1.4c0.4,0.5,0.8,0.9,1.2,1.3c0.4,0.4,0.8,0.8,1.3,1.2s0.9,0.7,1.4,1s1,0.6,1.5,0.9s1.1,0.5,1.6,0.8s1.1,0.4,1.7,0.6
			c0.6,0.2,1.1,0.3,1.7,0.4c0.6,0.1,1.2,0.2,1.7,0.3c0.6,0.1,1.2,0.1,1.8,0.1h95c0.6,0,1.2,0,1.8-0.1c0.6-0.1,1.2-0.1,1.8-0.3
			c0.6-0.1,1.2-0.3,1.7-0.4c0.6-0.2,1.1-0.4,1.7-0.6s1.1-0.5,1.6-0.8s1-0.6,1.5-0.9s1-0.7,1.4-1.1c0.5-0.4,0.9-0.8,1.3-1.2
			c0.4-0.4,0.8-0.9,1.2-1.3s0.7-0.9,1.1-1.4s0.6-1,0.9-1.5s0.5-1,0.8-1.6s0.4-1.1,0.6-1.7c0.2-0.6,0.3-1.1,0.4-1.7
			c0.1-0.6,0.2-1.2,0.3-1.8c0.1-1.2,0.1-2.3,0-3.5c-0.1-0.6-0.1-1.2-0.3-1.8c-0.1-0.6-0.3-1.2-0.4-1.7c-0.2-0.6-0.4-1.1-0.6-1.7
			c-0.2-0.5-0.5-1.1-0.8-1.6c-0.3-0.5-0.6-1-0.9-1.5c-0.3-0.5-0.7-1-1.1-1.4c-0.4-0.5-0.8-0.9-1.2-1.3c-0.4-0.4-0.9-0.8-1.3-1.2
			s-0.9-0.7-1.4-1s-1-0.6-1.5-0.9s-1.1-0.5-1.6-0.8c-0.5-0.2-1.1-0.4-1.7-0.6c-0.6-0.2-1.1-0.3-1.7-0.4c-0.6-0.1-1.2-0.2-1.8-0.3
			C116.2,2.1,115.6,2,115,2H20z"/>
		<path d="M23.5,20.4c0.3,0,0.6,0.1,0.8,0.2c0.8,0.3,1.3,1.1,1.4,2c0,0.3-0.1,0.6-0.2,0.8c-0.2,0.5-0.6,1-1.2,1.2
			c-0.5,0.2-1.1,0.2-1.7,0c-0.3-0.1-0.5-0.3-0.7-0.5c-0.2-0.2-0.4-0.5-0.5-0.7c-0.2-0.5-0.2-1.1,0-1.7c0.1-0.3,0.3-0.5,0.5-0.7
			c0.2-0.2,0.4-0.4,0.7-0.5C22.9,20.5,23.2,20.4,23.5,20.4z"/>
		<path d="M57,24.3c0,0.1,0,0.2-0.1,0.3c0,0.1-0.1,0.2-0.2,0.2c-0.1,0.1-0.2,0.1-0.3,0.1c-0.1,0-0.2,0-0.3,0h-0.9
			c-0.2,0-0.3,0-0.5-0.1c-0.1,0-0.3-0.1-0.4-0.2c-0.1-0.1-0.2-0.2-0.3-0.4c-0.1-0.2-0.2-0.4-0.3-0.6L51.3,19
			c-0.2-0.3-0.3-0.6-0.5-0.9s-0.3-0.6-0.4-1l0,0c0,0.4,0,0.8,0,1.1s0,0.8,0,1.1v5.3c0,0,0,0.1,0,0.1c0,0-0.1,0.1-0.2,0.1
			C50.2,25,50.1,25,50,25c-0.2,0-0.3,0-0.5,0c-0.1,0-0.3,0-0.5,0c-0.1,0-0.2,0-0.3-0.1c-0.1,0-0.1-0.1-0.1-0.1c0,0,0-0.1,0-0.1v-9.1
			c0-0.2,0.1-0.4,0.2-0.6c0.1-0.1,0.3-0.2,0.5-0.2h1.1c0.2,0,0.3,0,0.5,0c0.1,0,0.3,0.1,0.4,0.2c0.1,0.1,0.2,0.2,0.3,0.3
			c0.1,0.2,0.2,0.4,0.3,0.6l2,3.7c0.1,0.2,0.2,0.4,0.3,0.7s0.2,0.4,0.3,0.6s0.2,0.4,0.3,0.6s0.2,0.4,0.3,0.6l0,0c0-0.4,0-0.7,0-1.1
			s0-0.8,0-1.1v-4.8c0,0,0-0.1,0-0.1c0,0,0.1-0.1,0.2-0.1c0.1,0,0.2-0.1,0.3-0.1h0.5h0.4c0.1,0,0.2,0,0.3,0.1c0.1,0,0.1,0.1,0.1,0.1
			c0,0,0,0.1,0,0.1L57,24.3z M66.1,21.2c0,0.5-0.1,1.1-0.2,1.6c-0.1,0.5-0.4,0.9-0.7,1.3c-0.3,0.4-0.7,0.6-1.2,0.8
			c-0.5,0.2-1.1,0.3-1.7,0.3c-0.6,0-1.1-0.1-1.6-0.3c-0.4-0.2-0.8-0.4-1.1-0.8c-0.3-0.3-0.5-0.7-0.7-1.2c-0.2-0.5-0.2-1.1-0.2-1.6
			c0-0.6,0.1-1.1,0.2-1.6c0.1-0.5,0.4-0.9,0.7-1.3c0.3-0.4,0.7-0.6,1.2-0.8c0.5-0.2,1.1-0.3,1.7-0.3c0.6,0,1.1,0.1,1.6,0.3
			c0.4,0.2,0.8,0.4,1.1,0.8c0.3,0.3,0.5,0.8,0.7,1.2C66.1,20.1,66.1,20.6,66.1,21.2z M64.1,21.3c0-0.3,0-0.7-0.1-1
			c0-0.3-0.1-0.5-0.3-0.8c-0.1-0.2-0.3-0.4-0.5-0.5c-0.3-0.1-0.5-0.2-0.8-0.2c-0.3,0-0.5,0-0.8,0.2c-0.2,0.1-0.4,0.3-0.5,0.5
			c-0.1,0.2-0.3,0.5-0.3,0.8c-0.1,0.3-0.1,0.7-0.1,1c0,0.3,0,0.6,0.1,1c0.1,0.3,0.1,0.5,0.3,0.8c0.1,0.2,0.3,0.4,0.5,0.5
			c0.5,0.2,1.1,0.2,1.6,0c0.2-0.1,0.4-0.3,0.5-0.5c0.2-0.2,0.3-0.5,0.3-0.7C64.1,21.9,64.1,21.6,64.1,21.3L64.1,21.3z M74.5,17.5
			c0.2,0,0.3,0,0.5,0.1c0.1,0.1,0.1,0.3,0.1,0.4v6.7c0,0,0,0.1,0,0.1c0,0-0.1,0.1-0.2,0.1L74.6,25h-0.5h-0.5L73.4,25
			c-0.1,0-0.1-0.1-0.2-0.1c0,0,0-0.1,0-0.1v-5.6H70v3.3c0,0.3,0,0.6,0.2,0.9c0.1,0.2,0.4,0.3,0.6,0.3c0.1,0,0.2,0,0.3,0l0.2-0.1
			l0.2-0.1c0,0,0.1,0,0.1,0c0,0,0.1,0,0.1,0c0,0,0,0,0.1,0.1s0,0.1,0,0.2c0,0.1,0,0.2,0,0.4c0,0.2,0,0.3,0,0.5
			c0,0.1-0.1,0.2-0.1,0.3c-0.1,0.1-0.1,0.1-0.2,0.1c-0.1,0-0.2,0.1-0.3,0.1c-0.1,0-0.3,0-0.4,0.1c-0.1,0-0.3,0-0.4,0
			c-0.3,0-0.7,0-1-0.1c-0.3-0.1-0.5-0.2-0.7-0.5c-0.2-0.2-0.3-0.5-0.4-0.8C68.1,23.4,68,23,68,22.7v-3.6h-0.8
			c-0.1,0-0.2-0.1-0.2-0.2c-0.1-0.2-0.1-0.4-0.1-0.6c0-0.1,0-0.3,0-0.4c0-0.1,0-0.2,0.1-0.2c0,0,0-0.1,0.1-0.1c0,0,0.1,0,0.1,0H68
			V16c0,0,0-0.1,0-0.1c0,0,0.1-0.1,0.2-0.1c0.1,0,0.2-0.1,0.3-0.1c0.3,0,0.7,0,1,0c0.1,0,0.2,0,0.3,0.1c0.1,0,0.1,0.1,0.2,0.1
			c0.1,0,0.1,0.1,0.1,0.1v1.5H74.5z M75.2,15.4c0,0.3-0.1,0.6-0.2,0.8c-0.3,0.2-0.6,0.3-0.9,0.2c-0.3,0-0.6,0-0.9-0.2
			C73,16,72.9,15.7,73,15.4c0-0.3,0-0.6,0.2-0.8c0.3-0.2,0.6-0.3,0.9-0.2c0.3,0,0.6,0,0.9,0.2C75.2,14.8,75.3,15.1,75.2,15.4z
			 M81.2,15.1c0,0.1,0,0.3,0,0.4c0,0.1,0,0.1,0,0.2c0,0,0,0.1-0.1,0.1h-0.1h-0.1l-0.2-0.1l-0.2-0.1c-0.1,0-0.2,0-0.3,0
			c-0.1,0-0.3,0-0.4,0.1c-0.1,0-0.2,0.1-0.3,0.2c-0.1,0.1-0.1,0.2-0.2,0.4c0,0.2,0,0.4,0,0.6v0.6h1.3c0,0,0.1,0,0.1,0
			c0,0,0.1,0.1,0.1,0.1c0,0.1,0.1,0.2,0.1,0.2c0,0.1,0,0.3,0,0.4c0,0.2,0,0.4-0.1,0.6c0,0.1-0.1,0.2-0.2,0.2h-1.3v5.6
			c0,0,0,0.1,0,0.1c0,0-0.1,0.1-0.2,0.1L78.9,25h-0.5H78l-0.3,0c-0.1,0-0.1-0.1-0.2-0.1c0,0,0-0.1,0-0.1v-5.7h-0.9
			c-0.1,0-0.2-0.1-0.2-0.2c-0.1-0.2-0.1-0.4-0.1-0.6c0-0.1,0-0.3,0-0.4c0-0.1,0-0.2,0.1-0.2c0-0.1,0-0.1,0.1-0.1c0,0,0.1,0,0.1,0
			h0.9V17c0-0.4,0-0.8,0.1-1.2c0.1-0.3,0.2-0.6,0.4-0.9c0.2-0.2,0.5-0.4,0.8-0.5c0.4-0.1,0.7-0.2,1.1-0.2c0.2,0,0.4,0,0.6,0
			c0.1,0,0.3,0.1,0.4,0.1c0.1,0,0.1,0.1,0.2,0.1c0,0,0.1,0.1,0.1,0.1c0,0.1,0,0.2,0,0.3C81.3,14.8,81.3,15,81.2,15.1L81.2,15.1z"/>
		<path d="M86.2,25l-0.8,2.5c-0.1,0.2-0.2,0.3-0.4,0.3c-0.3,0.1-0.6,0.1-0.9,0.1c-0.2,0-0.3,0-0.5,0c-0.1,0-0.2,0-0.3-0.1
			c-0.1,0-0.1-0.1-0.1-0.2c0-0.1,0-0.1,0-0.2l1-2.4c-0.1,0-0.1-0.1-0.2-0.1c0-0.1-0.1-0.1-0.1-0.2l-2.4-6.4
			c-0.1-0.1-0.1-0.3-0.1-0.4c0-0.1,0-0.2,0.1-0.2c0.1-0.1,0.2-0.1,0.3-0.1c0.2,0,0.4,0,0.6,0h0.5c0.1,0,0.2,0,0.3,0.1
			c0.1,0,0.1,0.1,0.2,0.1c0,0.1,0.1,0.2,0.1,0.3l1.6,4.7l0,0l1.5-4.8c0-0.1,0.1-0.2,0.1-0.3c0.1-0.1,0.2-0.1,0.3-0.1
			c0.2,0,0.4,0,0.6,0c0.2,0,0.4,0,0.6,0c0.1,0,0.2,0,0.3,0.1c0.1,0.1,0.1,0.1,0.1,0.2c0,0.1,0,0.2-0.1,0.3L86.2,25z"/>
		<path d="M105.3,24.7c0,0.1,0,0.1-0.1,0.1c0,0-0.1,0.1-0.2,0.1c-0.1,0-0.2,0.1-0.3,0.1c-0.2,0-0.3,0-0.5,0c-0.2,0-0.3,0-0.5,0
			c-0.1,0-0.2,0-0.3-0.1c-0.1,0-0.1-0.1-0.2-0.1c0,0,0-0.1,0-0.1v-8.2l0,0l-2.9,8.2c0,0.1-0.1,0.1-0.1,0.2c-0.1,0-0.1,0.1-0.2,0.1
			c-0.1,0-0.2,0.1-0.3,0.1h-0.4H99c-0.1,0-0.2,0-0.3-0.1c-0.1,0-0.1-0.1-0.2-0.1c0,0-0.1-0.1-0.1-0.1l-2.8-8.2l0,0v8.2
			c0,0,0,0.1,0,0.1c0,0-0.1,0.1-0.2,0.1c-0.1,0-0.3,0-0.4,0c-0.2,0-0.3,0-0.5,0c-0.2,0-0.3,0-0.5,0c-0.1,0-0.2,0-0.3-0.1
			c-0.1,0-0.1-0.1-0.2-0.1c0,0,0-0.1,0-0.1v-9c0-0.2,0.1-0.4,0.2-0.6c0.1-0.1,0.4-0.2,0.6-0.2h1.3c0.2,0,0.4,0,0.6,0.1
			c0.2,0,0.3,0.1,0.4,0.2c0.1,0.1,0.2,0.2,0.3,0.4c0.1,0.2,0.2,0.4,0.2,0.6l2.2,6l0,0l2.3-6c0.1-0.2,0.1-0.4,0.2-0.6
			c0.1-0.1,0.2-0.3,0.3-0.4c0.1-0.1,0.2-0.2,0.4-0.2c0.2,0,0.3-0.1,0.5-0.1h1.4c0.1,0,0.3,0,0.4,0.1c0.1,0,0.2,0.1,0.3,0.2
			c0.1,0.1,0.1,0.2,0.1,0.3c0,0.1,0.1,0.2,0.1,0.4L105.3,24.7z"/>
		<path d="M113.8,21c0,0.2,0,0.4-0.2,0.5c-0.1,0.1-0.3,0.2-0.4,0.2H109c0,0.3,0,0.5,0.1,0.8c0.1,0.2,0.2,0.4,0.3,0.6
			c0.2,0.2,0.4,0.3,0.6,0.4c0.3,0.1,0.6,0.1,0.9,0.1c0.3,0,0.6,0,0.9-0.1c0.2,0,0.4-0.1,0.7-0.2l0.5-0.2c0.1,0,0.2-0.1,0.3-0.1
			c0,0,0.1,0,0.1,0c0,0,0.1,0.1,0.1,0.1c0,0.1,0,0.1,0,0.2c0,0.1,0,0.2,0,0.3c0,0.1,0,0.2,0,0.3c0,0.1,0,0.1,0,0.2c0,0,0,0.1,0,0.1
			l-0.1,0.1c-0.1,0.1-0.2,0.1-0.3,0.1c-0.2,0.1-0.4,0.1-0.6,0.2c-0.3,0.1-0.5,0.1-0.8,0.1c-0.3,0.1-0.7,0.1-1,0.1
			c-0.6,0-1.1-0.1-1.6-0.2c-0.4-0.1-0.8-0.4-1.2-0.7c-0.3-0.3-0.6-0.7-0.7-1.2c-0.2-0.6-0.2-1.1-0.2-1.7c0-0.6,0.1-1.1,0.2-1.7
			c0.1-0.5,0.4-0.9,0.7-1.3c0.3-0.3,0.7-0.6,1.1-0.8c0.5-0.2,1-0.3,1.5-0.3c0.5,0,1,0.1,1.5,0.3c0.4,0.2,0.7,0.4,1,0.7
			c0.3,0.3,0.5,0.7,0.6,1.1c0.1,0.4,0.2,0.9,0.2,1.4L113.8,21z M111.9,20.5c0-0.5-0.1-0.9-0.3-1.3c-0.3-0.3-0.7-0.5-1.1-0.5
			c-0.2,0-0.4,0-0.7,0.1c-0.2,0.1-0.3,0.2-0.5,0.4c-0.1,0.2-0.2,0.4-0.3,0.6c-0.1,0.2-0.1,0.5-0.1,0.7H111.9z"/>
		<path d="M118.4,24c0,0.2,0,0.4,0,0.5c0,0.1-0.1,0.3-0.2,0.4c-0.1,0.1-0.2,0.2-0.3,0.2c-0.2,0-0.4,0.1-0.5,0.1
			c-0.2,0-0.4,0-0.5-0.1c-0.1,0-0.2-0.1-0.3-0.2c-0.1-0.1-0.2-0.2-0.2-0.4c0-0.2-0.1-0.4-0.1-0.5c0-0.2,0-0.4,0.1-0.5
			c0-0.3,0.2-0.5,0.5-0.6c0.2,0,0.4-0.1,0.5-0.1c0.2,0,0.4,0,0.5,0.1c0.1,0,0.2,0.1,0.3,0.2c0.1,0.1,0.2,0.2,0.2,0.4
			C118.5,23.6,118.5,23.8,118.4,24z M118.2,21.7c0,0,0,0.1,0,0.1c0,0-0.1,0.1-0.1,0.1c-0.1,0-0.2,0.1-0.3,0.1c-0.1,0-0.3,0-0.4,0
			c-0.1,0-0.3,0-0.4,0c-0.1,0-0.2,0-0.3-0.1c-0.1,0-0.1-0.1-0.1-0.1c0,0,0-0.1,0-0.1l-0.2-7.1c0-0.1,0-0.1,0-0.2
			c0-0.1,0.1-0.1,0.2-0.1c0.1,0,0.2-0.1,0.3-0.1h0.5h0.5c0.1,0,0.2,0,0.3,0.1c0.1,0,0.1,0.1,0.2,0.1c0,0,0.1,0.1,0.1,0.2L118.2,21.7
			z"/>
		<path d="M24.6,30c1.7,0,3.1-1,3.8-2.5h-7.6C21.4,29,22.9,30,24.6,30z"/>
		<path d="M30.6,21v-2.6c0-3-1.1-5.7-4-6.3L26.2,10h-3.3l-0.3,2.1c-2.9,0.7-4,3.3-4,6.3V21l-2,2.8v2.1h16v-2L30.6,21z"/>
	</g>
</g>
</svg>
