<?xml version="1.0" encoding="utf-8"?>
<!-- Generator: Adobe Illustrator 23.0.1, SVG Export Plug-In . SVG Version: 6.00 Build 0)  -->
<svg version="1.1" id="Layer_1" xmlns="http://www.w3.org/2000/svg" xmlns:xlink="http://www.w3.org/1999/xlink" x="0px" y="0px"
	 viewBox="0 0 77 40" style="enable-background:new 0 0 77 40;" xml:space="preserve">
<style type="text/css">
	.st0{fill:none;stroke:#FFA500;stroke-width:2;}
</style>
<title>Asset 3</title>
<g>
	<g id="Layer_1-2">
		<path class="st0" d="M1,20c0-0.6,0-1.2,0.1-1.9c0.1-0.6,0.2-1.2,0.3-1.9c0.1-0.6,0.3-1.2,0.4-1.8c0.2-0.6,0.4-1.2,0.6-1.8
			c0.2-0.6,0.5-1.2,0.8-1.7c0.3-0.6,0.6-1.1,1-1.6s0.7-1,1.1-1.5s0.8-1,1.3-1.4S7.5,5.7,8,5.3s1-0.8,1.5-1.1s1.1-0.7,1.6-1
			c0.5-0.3,1.1-0.6,1.7-0.8c0.6-0.2,1.2-0.4,1.8-0.6c0.6-0.2,1.2-0.3,1.8-0.4C17,1.2,17.6,1.1,18.2,1c0.6,0,1.2,0,1.8,0h37
			c0.6,0,1.2,0,1.9,0.1c0.6,0.1,1.2,0.2,1.8,0.3c0.6,0.1,1.2,0.3,1.8,0.4c0.6,0.2,1.2,0.4,1.8,0.6c0.6,0.2,1.2,0.5,1.7,0.8
			c0.6,0.3,1.1,0.6,1.6,1s1,0.7,1.5,1.1s0.9,0.8,1.4,1.3C70.9,7,71.3,7.5,71.7,8c0.4,0.5,0.8,1,1.1,1.5s0.7,1.1,1,1.6
			c0.3,0.5,0.6,1.1,0.8,1.7c0.2,0.6,0.4,1.2,0.6,1.8c0.2,0.6,0.3,1.2,0.4,1.8c0.1,0.6,0.2,1.2,0.3,1.9c0,0.6,0.1,1.2,0.1,1.8
			s0,1.2-0.1,1.9c-0.1,0.6-0.2,1.2-0.3,1.9c-0.1,0.6-0.3,1.2-0.4,1.8c-0.2,0.6-0.4,1.2-0.6,1.8c-0.2,0.6-0.5,1.2-0.8,1.7
			c-0.3,0.5-0.6,1.1-1,1.6s-0.7,1-1.1,1.5c-0.8,1-1.7,1.8-2.6,2.6c-0.5,0.4-1,0.8-1.5,1.1s-1,0.7-1.6,1c-0.5,0.3-1.1,0.6-1.7,0.8
			c-0.6,0.2-1.2,0.4-1.8,0.6c-0.6,0.2-1.2,0.3-1.8,0.5c-0.6,0.1-1.2,0.2-1.8,0.3c-0.6,0-1.2,0-1.8,0H20c-0.6,0-1.2,0-1.9-0.1
			c-0.6-0.1-1.2-0.2-1.9-0.3c-0.6-0.1-1.2-0.3-1.8-0.5c-0.6-0.2-1.2-0.4-1.8-0.6c-0.6-0.2-1.2-0.5-1.7-0.8c-0.6-0.3-1.1-0.6-1.6-1
			s-1-0.7-1.5-1.1c-0.5-0.4-0.9-0.8-1.4-1.3C6.1,33,5.7,32.5,5.3,32s-0.8-1-1.1-1.5s-0.7-1-1-1.6c-0.3-0.5-0.6-1.1-0.8-1.7
			c-0.2-0.6-0.4-1.2-0.6-1.8c-0.2-0.6-0.3-1.2-0.4-1.8c-0.1-0.6-0.2-1.2-0.3-1.9C1,21.2,1,20.6,1,20z"/>
		<path d="M38.5,29c1.7,0,3.1-1,3.8-2.5h-7.6C35.4,28,36.8,29,38.5,29z"/>
		<path d="M44.1,20.6v-2.3c0-2.6-1.1-5-3.8-5.5L40.1,11h-3.1l-0.3,1.8c-2.7,0.6-3.8,2.9-3.8,5.5v2.3L31,23v1.8h15V23L44.1,20.6z"/>
	</g>
</g>
</svg>
