<svg xmlns="http://www.w3.org/2000/svg" viewBox="0 0 135 40"><defs><style>.cls-1{fill:#fff;}.cls-2{fill:#f9a31a;}</style></defs><title>Asset 5</title><g id="Layer_2" data-name="Layer 2"><g id="Layer_1-2" data-name="Layer 1"><path class="cls-1" d="M1,20q0-.93.09-1.86c.06-.62.15-1.24.27-1.85s.28-1.21.46-1.81a18.25,18.25,0,0,1,.63-1.75A17.31,17.31,0,0,1,3.24,11c.3-.55.62-1.08,1-1.6s.72-1,1.11-1.49.81-1,1.25-1.39S7.47,5.71,8,5.31s1-.76,1.49-1.11,1.05-.66,1.6-1a17.31,17.31,0,0,1,1.69-.79,18.25,18.25,0,0,1,1.75-.63c.6-.18,1.2-.33,1.81-.45a16.52,16.52,0,0,1,1.85-.28Q19.07,1,20,1h95q.93,0,1.86.09a16.52,16.52,0,0,1,1.85.28c.61.12,1.21.27,1.81.45a18.25,18.25,0,0,1,1.75.63,17.31,17.31,0,0,1,1.69.79c.55.3,1.08.62,1.6,1s1,.72,1.49,1.11.94.81,1.38,1.25.86.91,1.26,1.39.76,1,1.11,1.49.66,1.05,1,1.6a17.31,17.31,0,0,1,.79,1.69,18.25,18.25,0,0,1,.63,1.75c.18.6.33,1.2.45,1.81a16.52,16.52,0,0,1,.28,1.85q.09.93.09,1.86t-.09,1.86a16.52,16.52,0,0,1-.28,1.85c-.12.61-.27,1.21-.45,1.81a18.25,18.25,0,0,1-.63,1.75,17.31,17.31,0,0,1-.79,1.69c-.3.55-.62,1.08-1,1.6s-.72,1-1.11,1.49-.82.94-1.26,1.38a18.23,18.23,0,0,1-1.38,1.26c-.48.39-1,.76-1.49,1.11s-1,.66-1.6,1a17.31,17.31,0,0,1-1.69.79,18.25,18.25,0,0,1-1.75.63c-.6.18-1.2.33-1.81.45a16.52,16.52,0,0,1-1.85.28q-.93.09-1.86.09H20q-.93,0-1.86-.09a16.52,16.52,0,0,1-1.85-.28c-.61-.12-1.21-.27-1.81-.45a18.25,18.25,0,0,1-1.75-.63A17.31,17.31,0,0,1,11,36.76c-.55-.3-1.08-.62-1.6-1s-1-.72-1.49-1.11a18.37,18.37,0,0,1-1.39-1.26c-.44-.44-.85-.9-1.25-1.38s-.76-1-1.11-1.49-.66-1-1-1.6a17.31,17.31,0,0,1-.79-1.69,18.25,18.25,0,0,1-.63-1.75c-.18-.6-.33-1.2-.46-1.81s-.21-1.23-.27-1.85S1,20.62,1,20Z"/><path class="cls-2" d="M115,40H20a18.11,18.11,0,0,1-2-.1c-.64-.06-1.3-.16-1.94-.28s-1.28-.29-1.91-.48a19.14,19.14,0,0,1-1.84-.66c-.6-.25-1.2-.53-1.78-.84s-1.14-.65-1.68-1a19.43,19.43,0,0,1-3-2.49c-.46-.46-.9-.94-1.32-1.45a19.51,19.51,0,0,1-1.17-1.58c-.36-.54-.7-1.11-1-1.68s-.59-1.18-.84-1.78-.47-1.22-.66-1.84S.51,24.54.38,23.9.16,22.61.1,22A19.26,19.26,0,0,1,.1,18c.06-.65.16-1.3.28-1.94s.29-1.28.48-1.91.41-1.24.66-1.84.53-1.2.84-1.78.65-1.14,1-1.68A19.51,19.51,0,0,1,4.54,7.31c.41-.5.86-1,1.32-1.45S6.81,5,7.31,4.54A18.44,18.44,0,0,1,8.89,3.37c.54-.36,1.11-.7,1.68-1a19.27,19.27,0,0,1,1.78-.84c.6-.25,1.22-.47,1.84-.66S15.46.51,16.1.38,17.39.16,18,.1A18.38,18.38,0,0,1,20,0h95a18.38,18.38,0,0,1,2,.1c.65.06,1.3.16,1.94.28s1.28.29,1.91.48,1.24.41,1.84.66,1.21.54,1.78.84,1.14.65,1.68,1a19.51,19.51,0,0,1,1.58,1.17c.51.42,1,.86,1.45,1.32a18.33,18.33,0,0,1,1.32,1.45c.41.51.81,1,1.17,1.58s.7,1.1,1,1.68a20.33,20.33,0,0,1,1.5,3.62c.19.63.35,1.27.48,1.91s.22,1.3.28,1.94a19.26,19.26,0,0,1,0,3.92c-.06.64-.16,1.3-.28,1.94s-.29,1.28-.48,1.91-.41,1.24-.66,1.84-.54,1.21-.84,1.78-.65,1.14-1,1.68-.76,1.07-1.17,1.58a20.91,20.91,0,0,1-2.77,2.77,19.51,19.51,0,0,1-1.58,1.17c-.54.36-1.1.7-1.68,1a19.27,19.27,0,0,1-1.78.84c-.6.25-1.22.47-1.84.66s-1.27.35-1.91.48-1.3.22-1.94.28A18.11,18.11,0,0,1,115,40ZM20,2a17.14,17.14,0,0,0-1.76.09,14.47,14.47,0,0,0-1.75.26,15.44,15.44,0,0,0-1.72.43c-.56.17-1.12.37-1.66.59a15.45,15.45,0,0,0-1.59.76c-.52.27-1,.58-1.52.9A16.37,16.37,0,0,0,8.58,6.09c-.45.37-.89.77-1.31,1.18s-.81.86-1.18,1.31S5.36,9.51,5,10s-.63,1-.9,1.52a16.51,16.51,0,0,0-.76,1.59c-.22.54-.42,1.1-.6,1.66a16.59,16.59,0,0,0-.42,1.72,14.47,14.47,0,0,0-.26,1.75,17.25,17.25,0,0,0,0,3.52,14.47,14.47,0,0,0,.26,1.75,17.24,17.24,0,0,0,.42,1.72c.18.56.38,1.12.6,1.66a15.45,15.45,0,0,0,.76,1.59c.27.52.58,1,.9,1.52s.68,1,1.06,1.42a16.41,16.41,0,0,0,1.18,1.31c.41.41.85.81,1.31,1.19s.93.72,1.42,1,1,.63,1.52.91,1.05.53,1.59.75,1.1.42,1.66.59a15.44,15.44,0,0,0,1.72.43,15.24,15.24,0,0,0,1.74.26A17.48,17.48,0,0,0,20,38h95a17.14,17.14,0,0,0,1.76-.09,15.08,15.08,0,0,0,1.75-.26,15.44,15.44,0,0,0,1.72-.43c.56-.17,1.12-.37,1.66-.59s1.08-.48,1.6-.75,1-.59,1.51-.91,1-.68,1.42-1.06a16.41,16.41,0,0,0,1.31-1.18c.41-.41.81-.85,1.19-1.31s.72-.93,1.05-1.42.63-1,.9-1.52.53-1.05.76-1.59.42-1.1.59-1.66a15.44,15.44,0,0,0,.43-1.72,15.08,15.08,0,0,0,.26-1.75,17.25,17.25,0,0,0,0-3.52,15.08,15.08,0,0,0-.26-1.75,15.44,15.44,0,0,0-.43-1.72c-.17-.56-.37-1.12-.59-1.66a16.67,16.67,0,0,0-.76-1.6A16.25,16.25,0,0,0,130,10c-.33-.49-.68-1-1.06-1.42a16.41,16.41,0,0,0-1.18-1.31c-.41-.41-.86-.81-1.31-1.19s-.93-.72-1.42-1-1-.63-1.51-.9-1.06-.53-1.6-.76a17.29,17.29,0,0,0-1.66-.59,15.44,15.44,0,0,0-1.72-.43,14.47,14.47,0,0,0-1.75-.26A17.14,17.14,0,0,0,115,2Z"/><path d="M23.46,20.44a2.21,2.21,0,0,1,.84.17,2.21,2.21,0,0,1,1.36,2,2.12,2.12,0,0,1-.17.83,2.17,2.17,0,0,1-1.19,1.19,2.16,2.16,0,0,1-1.68,0,2.25,2.25,0,0,1-.71-.47,2.3,2.3,0,0,1-.47-.72,2.14,2.14,0,0,1,0-1.67,2.3,2.3,0,0,1,.47-.72,2.25,2.25,0,0,1,.71-.47A2.21,2.21,0,0,1,23.46,20.44Z"/><path d="M57,24.28a.66.66,0,0,1-.07.32.67.67,0,0,1-.16.24.75.75,0,0,1-.25.13,1,1,0,0,1-.3.05h-.87a1.63,1.63,0,0,1-.47-.06.89.89,0,0,1-.37-.2,1.68,1.68,0,0,1-.33-.39c-.1-.16-.22-.38-.35-.64L51.32,19c-.15-.28-.3-.59-.45-.91s-.29-.64-.4-1h0c0,.37,0,.75,0,1.12s0,.76,0,1.15v5.29a.23.23,0,0,1,0,.14.37.37,0,0,1-.15.11A.9.9,0,0,1,50,25a3,3,0,0,1-.47,0,2.81,2.81,0,0,1-.45,0,.9.9,0,0,1-.28-.06.33.33,0,0,1-.14-.11.23.23,0,0,1,0-.14V15.63a.69.69,0,0,1,.22-.56.77.77,0,0,1,.52-.18h1.1a2.27,2.27,0,0,1,.5,0,1.14,1.14,0,0,1,.37.17,1.87,1.87,0,0,1,.3.32A4.63,4.63,0,0,1,52,16l2,3.69c.11.22.22.44.34.66s.22.43.32.65.21.43.3.64.2.41.29.62h0c0-.36,0-.74,0-1.14s0-.77,0-1.13V15.2a.27.27,0,0,1,0-.15.34.34,0,0,1,.16-.1.73.73,0,0,1,.29-.07l.46,0,.44,0a.63.63,0,0,1,.28.07.32.32,0,0,1,.14.1.37.37,0,0,1,0,.15Zm9.13-3.1a5.15,5.15,0,0,1-.24,1.62,3.3,3.3,0,0,1-.71,1.27,3.09,3.09,0,0,1-1.19.82,4.54,4.54,0,0,1-1.68.29,4.66,4.66,0,0,1-1.62-.26,2.84,2.84,0,0,1-1.14-.75A3,3,0,0,1,58.88,23a5.52,5.52,0,0,1-.22-1.64,5.26,5.26,0,0,1,.24-1.63,3.53,3.53,0,0,1,.71-1.26,3.13,3.13,0,0,1,1.19-.82,4.54,4.54,0,0,1,1.68-.29,4.94,4.94,0,0,1,1.63.25,2.87,2.87,0,0,1,1.13.75,3.16,3.16,0,0,1,.67,1.21A5.54,5.54,0,0,1,66.13,21.18Zm-2,.08a4.65,4.65,0,0,0-.09-1,2.21,2.21,0,0,0-.27-.76,1.46,1.46,0,0,0-.52-.5,1.69,1.69,0,0,0-.82-.17,1.71,1.71,0,0,0-.77.16,1.37,1.37,0,0,0-.53.46,2.33,2.33,0,0,0-.32.75,4.13,4.13,0,0,0-.11,1,4.65,4.65,0,0,0,.09.95,2.45,2.45,0,0,0,.28.76,1.23,1.23,0,0,0,.52.49,1.92,1.92,0,0,0,1.58,0,1.36,1.36,0,0,0,.54-.47,1.94,1.94,0,0,0,.31-.73A4.22,4.22,0,0,0,64.11,21.26ZM74.49,17.5a.63.63,0,0,1,.46.14.61.61,0,0,1,.12.41v6.68a.21.21,0,0,1,0,.14.4.4,0,0,1-.16.1l-.3.06-.47,0-.48,0-.3-.06a.34.34,0,0,1-.16-.1.22.22,0,0,1,0-.14V19.09H70v3.28a1.6,1.6,0,0,0,.18.85.7.7,0,0,0,.64.29,1.14,1.14,0,0,0,.28,0l.22-.06.17-.06a.27.27,0,0,1,.12,0,.16.16,0,0,1,.09,0s0,.05.07.1,0,.13,0,.23a3.21,3.21,0,0,1,0,.36,2.32,2.32,0,0,1,0,.52.58.58,0,0,1-.11.25.46.46,0,0,1-.21.14,2,2,0,0,1-.32.11c-.13,0-.26.05-.4.06a3.25,3.25,0,0,1-.44,0,3,3,0,0,1-1-.15,1.6,1.6,0,0,1-.71-.46,1.83,1.83,0,0,1-.42-.78A4,4,0,0,1,68,22.66V19.09h-.84c-.1,0-.17-.06-.22-.18a1.75,1.75,0,0,1-.08-.61c0-.15,0-.28,0-.39a.7.7,0,0,1,.06-.24.33.33,0,0,1,.09-.13.23.23,0,0,1,.14,0H68V16a.26.26,0,0,1,0-.15.34.34,0,0,1,.16-.1,1.05,1.05,0,0,1,.3-.06,5.77,5.77,0,0,1,1,0,1.13,1.13,0,0,1,.3.06.36.36,0,0,1,.15.1A.21.21,0,0,1,70,16V17.5Zm.74-2.09a1.12,1.12,0,0,1-.24.82,1.34,1.34,0,0,1-.9.22,1.29,1.29,0,0,1-.89-.22,1,1,0,0,1-.23-.78,1.13,1.13,0,0,1,.23-.83,1.35,1.35,0,0,1,.91-.23,1.33,1.33,0,0,1,.89.22A1.12,1.12,0,0,1,75.23,15.41Zm6-.3c0,.15,0,.27,0,.36a.81.81,0,0,1,0,.21.23.23,0,0,1-.07.11l-.08,0-.13,0-.16-.06-.23-.06a1.42,1.42,0,0,0-.31,0,.87.87,0,0,0-.37.07.56.56,0,0,0-.25.21.9.9,0,0,0-.15.37,3.1,3.1,0,0,0,0,.57v.64h1.28a.2.2,0,0,1,.13,0,.25.25,0,0,1,.09.13.7.7,0,0,1,.06.24,2.3,2.3,0,0,1,0,.39,1.53,1.53,0,0,1-.08.61c0,.12-.12.18-.22.18H79.39v5.64a.21.21,0,0,1,0,.14.4.4,0,0,1-.16.1l-.3.06-.48,0-.47,0L77.63,25a.36.36,0,0,1-.15-.1.22.22,0,0,1,0-.14V19.09h-.87c-.1,0-.17-.06-.22-.18a1.75,1.75,0,0,1-.08-.61c0-.15,0-.28,0-.39a.7.7,0,0,1,.06-.24.25.25,0,0,1,.09-.13.21.21,0,0,1,.14,0h.86v-.59a5,5,0,0,1,.14-1.24,2.26,2.26,0,0,1,.45-.89,1.82,1.82,0,0,1,.76-.54,3.06,3.06,0,0,1,1.1-.18,3.68,3.68,0,0,1,.58,0,3.74,3.74,0,0,1,.43.11,1,1,0,0,1,.21.11,1,1,0,0,1,.09.15,1.37,1.37,0,0,1,0,.25C81.25,14.83,81.25,15,81.25,15.11Z"/><path d="M86.23,25l-.84,2.47a.53.53,0,0,1-.39.28,3.44,3.44,0,0,1-.91.09,3.34,3.34,0,0,1-.5,0,.77.77,0,0,1-.28-.09.19.19,0,0,1-.1-.16.47.47,0,0,1,0-.22L84.18,25a.59.59,0,0,1-.18-.14,1.13,1.13,0,0,1-.12-.21l-2.4-6.41a1.23,1.23,0,0,1-.1-.42.28.28,0,0,1,.09-.22.6.6,0,0,1,.32-.12,4.58,4.58,0,0,1,.59,0h.53a1.13,1.13,0,0,1,.31.06.33.33,0,0,1,.16.15,1.35,1.35,0,0,1,.11.28l1.64,4.66h0l1.5-4.76a.57.57,0,0,1,.12-.27.59.59,0,0,1,.25-.1,4,4,0,0,1,.6,0,4.39,4.39,0,0,1,.56,0,.63.63,0,0,1,.33.12.29.29,0,0,1,.1.23,1.16,1.16,0,0,1-.06.34Z"/><path d="M105.29,24.72a.24.24,0,0,1-.05.14.36.36,0,0,1-.15.1,1.13,1.13,0,0,1-.3.06,3.23,3.23,0,0,1-.48,0,3.09,3.09,0,0,1-.47,0,1.13,1.13,0,0,1-.3-.06.36.36,0,0,1-.15-.1.24.24,0,0,1,0-.14V16.49h0l-2.93,8.22a.37.37,0,0,1-.1.17.43.43,0,0,1-.19.1,1.13,1.13,0,0,1-.31.06h-.45l-.45,0a1.61,1.61,0,0,1-.31-.07.43.43,0,0,1-.19-.1.31.31,0,0,1-.1-.15l-2.82-8.22h0v8.23a.33.33,0,0,1,0,.14.4.4,0,0,1-.16.1A1.13,1.13,0,0,1,95,25a3.14,3.14,0,0,1-.48,0A3.18,3.18,0,0,1,94,25a1.13,1.13,0,0,1-.3-.06.36.36,0,0,1-.15-.1.24.24,0,0,1,0-.14v-9a.8.8,0,0,1,.22-.61.75.75,0,0,1,.56-.21h1.34a2.77,2.77,0,0,1,.62.06,1.18,1.18,0,0,1,.44.19,1.38,1.38,0,0,1,.32.36,3.7,3.7,0,0,1,.22.55l2.18,6h0l2.27-6a3.3,3.3,0,0,1,.22-.55,1.24,1.24,0,0,1,.28-.37.93.93,0,0,1,.38-.2,2,2,0,0,1,.51-.06h1.38a1.06,1.06,0,0,1,.37.06.6.6,0,0,1,.25.16.68.68,0,0,1,.14.25,1,1,0,0,1,.06.35Z"/><path d="M113.81,21.05a.75.75,0,0,1-.16.53.6.6,0,0,1-.44.17H109a2.9,2.9,0,0,0,.1.81,1.5,1.5,0,0,0,.34.62,1.54,1.54,0,0,0,.59.38,2.48,2.48,0,0,0,.87.14,4.81,4.81,0,0,0,.91-.08,6.06,6.06,0,0,0,.67-.16l.48-.17a.79.79,0,0,1,.3-.07.21.21,0,0,1,.12,0,.18.18,0,0,1,.08.09.88.88,0,0,1,0,.2,3.22,3.22,0,0,1,0,.33,2.53,2.53,0,0,1,0,.29,1.25,1.25,0,0,1,0,.21.58.58,0,0,1,0,.14l-.08.12a1.12,1.12,0,0,1-.28.14,3.44,3.44,0,0,1-.57.19,7.38,7.38,0,0,1-.81.15,5.9,5.9,0,0,1-1,.07,5.34,5.34,0,0,1-1.63-.23,3,3,0,0,1-1.17-.72,2.83,2.83,0,0,1-.69-1.2,5.42,5.42,0,0,1-.23-1.7,5.5,5.5,0,0,1,.24-1.68,3.43,3.43,0,0,1,.7-1.26,3.11,3.11,0,0,1,1.12-.8,3.92,3.92,0,0,1,1.49-.27,4,4,0,0,1,1.5.26,2.79,2.79,0,0,1,1,.71,2.93,2.93,0,0,1,.58,1.09,4.5,4.5,0,0,1,.19,1.35Zm-1.91-.57a2,2,0,0,0-.33-1.3,1.3,1.3,0,0,0-1.1-.47,1.48,1.48,0,0,0-.65.14,1.42,1.42,0,0,0-.46.38,1.73,1.73,0,0,0-.28.56,2.62,2.62,0,0,0-.11.69Z"/><path d="M118.44,24a2.76,2.76,0,0,1,0,.54.69.69,0,0,1-.18.35.71.71,0,0,1-.34.19,2,2,0,0,1-.53.06,2.12,2.12,0,0,1-.54-.06.67.67,0,0,1-.33-.19.69.69,0,0,1-.18-.35,2.76,2.76,0,0,1-.05-.54,2.72,2.72,0,0,1,.05-.55.71.71,0,0,1,.51-.56,2.12,2.12,0,0,1,.54-.06,2,2,0,0,1,.53.06.72.72,0,0,1,.34.2.68.68,0,0,1,.18.36A2.72,2.72,0,0,1,118.44,24Zm-.24-2.29a.34.34,0,0,1,0,.14.23.23,0,0,1-.13.1,1.31,1.31,0,0,1-.27.07,2.49,2.49,0,0,1-.41,0,2.43,2.43,0,0,1-.41,0,1.31,1.31,0,0,1-.27-.07.23.23,0,0,1-.13-.1.34.34,0,0,1,0-.14l-.2-7.1a.39.39,0,0,1,0-.18.37.37,0,0,1,.17-.12,1.14,1.14,0,0,1,.33-.08l.52,0,.52,0a1.65,1.65,0,0,1,.32.08.4.4,0,0,1,.17.13.26.26,0,0,1,.05.17Z"/><path d="M24.56,30a4.16,4.16,0,0,0,3.81-2.5H20.75A4.16,4.16,0,0,0,24.56,30Z"/><path d="M30.56,21V18.41c0-3-1.14-5.67-4-6.34L26.23,10H22.89l-.33,2.07c-2.87.67-4,3.3-4,6.34V21l-2,2.76v2.06h16V23.78Z"/></g></g></svg>