<?xml version="1.0" encoding="utf-8"?>
<!-- Generator: Adobe Illustrator 23.0.1, SVG Export Plug-In . SVG Version: 6.00 Build 0)  -->
<svg version="1.1" id="Layer_1" xmlns="http://www.w3.org/2000/svg" xmlns:xlink="http://www.w3.org/1999/xlink" x="0px" y="0px"
	 viewBox="0 0 152 40" style="enable-background:new 0 0 152 40;" xml:space="preserve">
<style type="text/css">
	.st0{fill:#FFFFFF;}
	.st1{fill:#FFA500;}
</style>
<title>Asset 4</title>
<g>
	<g id="Layer_1-2">
		<path d="M29.9,20.4c0.3,0,0.6,0.1,0.8,0.2c0.8,0.3,1.3,1.1,1.4,2c0,0.3-0.1,0.6-0.2,0.8c-0.2,0.5-0.6,1-1.2,1.2
			c-0.5,0.2-1.1,0.2-1.7,0c-0.3-0.1-0.5-0.3-0.7-0.5c-0.2-0.2-0.4-0.5-0.5-0.7c-0.2-0.5-0.2-1.1,0-1.7c0.1-0.3,0.3-0.5,0.5-0.7
			c0.2-0.2,0.4-0.4,0.7-0.5C29.3,20.5,29.6,20.4,29.9,20.4z"/>
		<path class="st0" d="M1,20c0-0.6,0-1.2,0.1-1.9s0.1-1.2,0.3-1.9s0.3-1.2,0.5-1.8c0.2-0.6,0.4-1.2,0.6-1.8c0.2-0.6,0.5-1.2,0.8-1.7
			c0.3-0.6,0.6-1.1,1-1.6s0.7-1,1.1-1.5s0.8-1,1.3-1.4S7.5,5.7,8,5.3s1-0.8,1.5-1.1s1.1-0.7,1.6-1c0.5-0.3,1.1-0.6,1.7-0.8
			c0.6-0.2,1.2-0.4,1.8-0.6c0.6-0.2,1.2-0.3,1.8-0.4C17,1.2,17.6,1.1,18.2,1c0.6,0,1.2,0,1.8,0h112c0.6,0,1.2,0,1.9,0.1
			c0.6,0.1,1.2,0.2,1.9,0.3c0.6,0.1,1.2,0.3,1.8,0.4c0.6,0.2,1.2,0.4,1.8,0.6c0.6,0.2,1.1,0.5,1.7,0.8c0.6,0.3,1.1,0.6,1.6,1
			s1,0.7,1.5,1.1s0.9,0.8,1.4,1.3c0.4,0.4,0.9,0.9,1.3,1.4c0.4,0.5,0.8,1,1.1,1.5s0.7,1.1,1,1.6c0.3,0.5,0.6,1.1,0.8,1.7
			c0.2,0.6,0.4,1.2,0.6,1.8c0.2,0.6,0.3,1.2,0.4,1.8c0.1,0.6,0.2,1.2,0.3,1.9c0.1,0.6,0.1,1.2,0.1,1.9c0,0.6,0,1.2-0.1,1.9
			c-0.1,0.6-0.2,1.2-0.3,1.9c-0.1,0.6-0.3,1.2-0.4,1.8c-0.2,0.6-0.4,1.2-0.6,1.8c-0.2,0.6-0.5,1.1-0.8,1.7c-0.3,0.5-0.6,1.1-1,1.6
			s-0.7,1-1.1,1.5c-0.8,1-1.7,1.8-2.6,2.6c-0.5,0.4-1,0.8-1.5,1.1s-1.1,0.7-1.6,1c-0.5,0.3-1.1,0.6-1.7,0.8
			c-0.6,0.2-1.2,0.4-1.8,0.6c-0.6,0.2-1.2,0.3-1.8,0.5c-0.6,0.1-1.2,0.2-1.9,0.3c-0.6,0.1-1.2,0.1-1.9,0.1H20c-0.6,0-1.2,0-1.9-0.1
			c-0.6-0.1-1.2-0.2-1.9-0.3c-0.6-0.1-1.2-0.3-1.8-0.5c-0.6-0.2-1.2-0.4-1.8-0.6c-0.6-0.3-1.2-0.6-1.7-0.9c-0.6-0.3-1.1-0.6-1.6-1
			s-1-0.7-1.5-1.1c-0.5-0.4-0.9-0.8-1.4-1.3C6.1,33,5.7,32.5,5.3,32s-0.8-1-1.1-1.5s-0.7-1-1-1.6c-0.3-0.5-0.6-1.1-0.8-1.7
			c-0.2-0.6-0.4-1.2-0.6-1.8c-0.2-0.6-0.3-1.2-0.5-1.8S1.1,22.4,1,21.8S1,20.6,1,20z"/>
		<path class="st1" d="M132,40H20c-0.7,0-1.3,0-2-0.1c-0.6-0.1-1.3-0.2-1.9-0.3s-1.3-0.3-1.9-0.5c-0.6-0.2-1.2-0.4-1.8-0.7
			c-0.6-0.3-1.2-0.5-1.8-0.8s-1.1-0.7-1.7-1c-1.1-0.7-2.1-1.6-3-2.5c-0.5-0.5-0.9-0.9-1.3-1.5c-0.4-0.5-0.8-1-1.2-1.6
			c-0.4-0.5-0.7-1.1-1-1.7s-0.6-1.2-0.8-1.8S1,26.4,0.9,25.8s-0.3-1.3-0.5-1.9S0.2,22.6,0.1,22c-0.1-1.3-0.1-2.7,0-4
			c0.1-0.6,0.2-1.3,0.3-1.9s0.3-1.3,0.5-1.9s0.4-1.2,0.7-1.8s0.5-1.2,0.8-1.8s0.6-1.1,1-1.7c0.4-0.5,0.8-1,1.2-1.5
			c0.4-0.5,0.9-1,1.3-1.5S6.8,5,7.3,4.5c0.5-0.4,1-0.8,1.6-1.2c0.5-0.4,1.1-0.7,1.7-1c0.6-0.3,1.2-0.6,1.8-0.8
			c0.6-0.3,1.2-0.5,1.8-0.7s1.3-0.4,1.9-0.5c0.6-0.1,1.3-0.2,1.9-0.3C18.7,0,19.3,0,20,0h112c0.7,0,1.3,0,2,0.1
			c0.6,0.1,1.3,0.2,1.9,0.3s1.3,0.3,1.9,0.5s1.2,0.4,1.8,0.7s1.2,0.5,1.8,0.8s1.1,0.6,1.7,1c0.5,0.4,1.1,0.8,1.6,1.2
			c0.5,0.4,1,0.9,1.4,1.3c0.5,0.5,0.9,0.9,1.3,1.5c0.4,0.5,0.8,1,1.2,1.6c0.4,0.5,0.7,1.1,1,1.7c0.6,1.2,1.1,2.4,1.5,3.6
			c0.2,0.6,0.4,1.3,0.5,1.9s0.2,1.3,0.3,1.9c0.1,1.3,0.1,2.6,0,3.9c-0.1,0.6-0.2,1.3-0.3,1.9s-0.3,1.3-0.5,1.9s-0.4,1.2-0.7,1.8
			s-0.5,1.2-0.8,1.8s-0.6,1.1-1,1.7c-0.4,0.5-0.8,1.1-1.2,1.6c-0.8,1-1.8,1.9-2.8,2.8c-0.5,0.4-1,0.8-1.6,1.2
			c-0.5,0.4-1.1,0.7-1.7,1c-0.6,0.3-1.2,0.6-1.8,0.8c-0.6,0.3-1.2,0.5-1.8,0.7s-1.3,0.3-1.9,0.5s-1.3,0.2-1.9,0.3
			C133.3,40,132.7,40,132,40z M20,2c-0.6,0-1.2,0-1.8,0.1c-0.6,0.1-1.2,0.1-1.8,0.3c-0.6,0.1-1.2,0.3-1.7,0.4
			c-0.6,0.2-1.1,0.4-1.7,0.6c-0.5,0.2-1.1,0.5-1.6,0.8C11,4.4,10.5,4.7,10,5C9.5,5.4,9,5.7,8.6,6.1C8.1,6.5,7.7,6.9,7.3,7.3
			S6.5,8.1,6.1,8.6S5.4,9.5,5,10s-0.6,1-0.9,1.5c-0.3,0.5-0.5,1-0.8,1.6c-0.2,0.5-0.4,1.1-0.6,1.7c-0.2,0.6-0.3,1.1-0.4,1.7
			c-0.1,0.6-0.2,1.2-0.3,1.8c-0.1,1.2-0.1,2.3,0,3.5c0.1,0.6,0.1,1.2,0.3,1.8c0.1,0.6,0.3,1.2,0.4,1.7c0.2,0.6,0.4,1.1,0.6,1.7
			c0.2,0.5,0.5,1.1,0.8,1.6C4.4,29,4.7,29.5,5,30s0.7,1,1.1,1.4c0.4,0.5,0.8,0.9,1.2,1.3c0.4,0.4,0.8,0.8,1.3,1.2s0.9,0.7,1.4,1
			s1,0.6,1.5,0.9s1.1,0.5,1.6,0.8s1.1,0.4,1.7,0.6c0.6,0.2,1.1,0.3,1.7,0.4c0.6,0.1,1.2,0.2,1.7,0.3c0.6,0.1,1.2,0.1,1.8,0.1h112
			c0.6,0,1.2,0,1.8-0.1c0.6-0.1,1.2-0.1,1.8-0.3c0.6-0.1,1.2-0.3,1.7-0.4c0.6-0.2,1.1-0.4,1.7-0.6s1.1-0.5,1.6-0.8s1-0.6,1.5-0.9
			s1-0.7,1.4-1.1c0.5-0.4,0.9-0.8,1.3-1.2c0.4-0.4,0.8-0.9,1.2-1.3s0.7-0.9,1.1-1.4s0.6-1,0.9-1.5s0.5-1,0.8-1.6s0.4-1.1,0.6-1.7
			c0.2-0.6,0.3-1.1,0.4-1.7c0.1-0.6,0.2-1.2,0.3-1.8c0.1-1.2,0.1-2.3,0-3.5c-0.1-0.6-0.1-1.2-0.3-1.8c-0.1-0.6-0.3-1.2-0.4-1.7
			c-0.2-0.6-0.4-1.1-0.6-1.7s-0.5-1.1-0.8-1.6s-0.6-1-0.9-1.5s-0.7-1-1.1-1.4c-0.4-0.5-0.8-0.9-1.2-1.3c-0.4-0.4-0.9-0.8-1.3-1.2
			s-0.9-0.7-1.4-1s-1-0.6-1.5-0.9s-1.1-0.5-1.6-0.8c-0.5-0.2-1.1-0.4-1.7-0.6c-0.6-0.2-1.1-0.3-1.7-0.4c-0.6-0.1-1.2-0.2-1.8-0.3
			C133.2,2.1,132.6,2,132,2H20z"/>
		<path d="M63.4,24.3c0,0.1,0,0.2-0.1,0.3c0,0.1-0.1,0.2-0.2,0.2C63.2,24.9,63.1,25,63,25c-0.1,0-0.2,0-0.3,0h-0.9
			c-0.2,0-0.3,0-0.5-0.1c-0.1,0-0.3-0.1-0.4-0.2c-0.1-0.1-0.2-0.2-0.3-0.4c-0.1-0.2-0.3-0.4-0.4-0.6L57.8,19
			c-0.2-0.3-0.3-0.6-0.5-0.9s-0.3-0.6-0.4-1l0,0c0,0.4,0,0.8,0,1.1s0,0.8,0,1.1v5.3c0,0,0,0.1,0,0.1c0,0-0.1,0.1-0.2,0.1
			c-0.1,0-0.2,0.1-0.3,0.1c-0.2,0-0.3,0-0.5,0c-0.2,0-0.3,0-0.5,0c-0.1,0-0.2,0-0.3-0.1c-0.1,0-0.1-0.1-0.1-0.1c0,0,0-0.1,0-0.1v-9
			c0-0.2,0.1-0.4,0.2-0.6c0.1-0.1,0.3-0.2,0.5-0.2H57c0.2,0,0.3,0,0.5,0c0.1,0,0.3,0.1,0.4,0.2c0.1,0.1,0.2,0.2,0.3,0.3
			c0.1,0.2,0.2,0.3,0.3,0.5l2,3.7c0.1,0.2,0.2,0.4,0.3,0.7s0.2,0.4,0.3,0.6l0.3,0.6l0.3,0.6l0,0c0-0.4,0-0.7,0-1.1
			c0-0.4,0-0.8,0-1.1v-4.7c0,0,0-0.1,0-0.1c0,0,0.1-0.1,0.2-0.1c0.1,0,0.2-0.1,0.3-0.1h0.5h0.4c0.1,0,0.2,0,0.3,0.1
			c0.1,0,0.1,0.1,0.1,0.1c0,0,0,0.1,0,0.1L63.4,24.3z M72.6,21.2c0,0.5-0.1,1.1-0.2,1.6c-0.1,0.5-0.4,0.9-0.7,1.3
			c-0.3,0.4-0.7,0.6-1.2,0.8c-0.5,0.2-1.1,0.3-1.7,0.3c-0.6,0-1.1-0.1-1.6-0.3c-0.4-0.2-0.8-0.4-1.1-0.8c-0.3-0.3-0.5-0.7-0.7-1.2
			c-0.2-0.5-0.2-1.1-0.2-1.6c0-0.6,0.1-1.1,0.2-1.6c0.1-0.5,0.4-0.9,0.7-1.3c0.3-0.4,0.7-0.6,1.2-0.8c0.5-0.2,1.1-0.3,1.7-0.3
			c0.6,0,1.1,0.1,1.6,0.3c0.4,0.2,0.8,0.4,1.1,0.8c0.3,0.3,0.5,0.8,0.7,1.2C72.5,20.1,72.6,20.6,72.6,21.2z M70.6,21.3
			c0-0.3,0-0.7-0.1-1c0-0.3-0.1-0.5-0.3-0.8c-0.1-0.2-0.3-0.4-0.5-0.5c-0.3-0.1-0.5-0.2-0.8-0.2c-0.3,0-0.5,0-0.8,0.2
			c-0.2,0.1-0.4,0.3-0.5,0.5c-0.1,0.2-0.3,0.5-0.3,0.8c-0.1,0.3-0.1,0.7-0.1,1c0,0.3,0,0.6,0.1,1c0.1,0.3,0.1,0.5,0.3,0.8
			c0.1,0.2,0.3,0.4,0.5,0.5c0.3,0.1,0.5,0.2,0.8,0.2c0.3,0,0.5,0,0.8-0.2c0.2-0.1,0.4-0.3,0.5-0.5c0.2-0.2,0.3-0.5,0.3-0.7
			C70.5,21.9,70.6,21.6,70.6,21.3L70.6,21.3z M80.9,17.5c0.2,0,0.3,0,0.5,0.1c0.1,0.1,0.1,0.3,0.1,0.4v6.7c0,0,0,0.1,0,0.1
			c0,0-0.1,0.1-0.2,0.1L81,25h-0.5H80l-0.3-0.1c-0.1,0-0.1-0.1-0.2-0.1c0,0,0-0.1,0-0.1v-5.6h-3.2v3.3c0,0.3,0,0.6,0.2,0.9
			c0.1,0.2,0.4,0.3,0.6,0.3c0.1,0,0.2,0,0.3,0l0.2-0.1l0.2-0.1c0,0,0.1,0,0.1,0c0,0,0.1,0,0.1,0c0,0,0,0,0.1,0.1s0,0.1,0,0.2
			c0,0.1,0,0.2,0,0.4c0,0.2,0,0.3,0,0.5c0,0.1-0.1,0.2-0.1,0.3C78,24.9,78,25,77.9,25c-0.1,0-0.2,0.1-0.3,0.1c-0.1,0-0.3,0-0.4,0.1
			c-0.1,0-0.3,0-0.4,0c-0.3,0-0.7,0-1-0.1c-0.3-0.1-0.5-0.2-0.7-0.5c-0.2-0.2-0.3-0.5-0.4-0.8c-0.1-0.4-0.1-0.7-0.1-1.1v-3.6h-0.8
			c-0.1,0-0.2-0.1-0.2-0.2c-0.1-0.2-0.1-0.4-0.1-0.6c0-0.1,0-0.3,0-0.4c0-0.1,0-0.2,0.1-0.2c0-0.1,0.1-0.1,0.1-0.1c0,0,0.1,0,0.1,0
			h0.8V16c0,0,0-0.1,0-0.1c0,0,0.1-0.1,0.2-0.1c0.1,0,0.2-0.1,0.3-0.1c0.3,0,0.7,0,1,0c0.1,0,0.2,0,0.3,0.1c0.1,0,0.1,0.1,0.2,0.1
			c0,0,0,0.1,0,0.1v1.5H80.9z M81.7,15.4c0,0.3-0.1,0.6-0.2,0.8c-0.3,0.2-0.6,0.3-0.9,0.2c-0.3,0-0.6,0-0.9-0.2
			c-0.2-0.2-0.3-0.5-0.2-0.8c0-0.3,0.1-0.6,0.2-0.8c0.3-0.2,0.6-0.3,0.9-0.2c0.3,0,0.6,0,0.9,0.2C81.6,14.8,81.7,15.1,81.7,15.4z
			 M87.7,15.1c0,0.1,0,0.2,0,0.4c0,0.1,0,0.1-0.1,0.2c0,0,0,0.1-0.1,0.1h-0.1h-0.1l-0.2-0.1L87,15.7c-0.1,0-0.2,0-0.3,0
			c-0.1,0-0.2,0-0.4,0.1c-0.1,0-0.2,0.1-0.3,0.2c-0.1,0.1-0.1,0.2-0.2,0.4c0,0.2,0,0.4,0,0.6v0.6h1.3c0,0,0.1,0,0.1,0
			c0,0,0.1,0.1,0.1,0.1c0,0.1,0,0.2,0,0.2c0,0.1,0,0.3,0,0.4c0,0.2,0,0.4-0.1,0.6c-0.1,0.1-0.1,0.2-0.2,0.2h-1.3v5.6
			c0,0,0,0.1,0,0.1c0,0-0.1,0.1-0.2,0.1L85.4,25h-0.5h-0.5l-0.4,0c-0.1,0-0.1-0.1-0.2-0.1c0,0,0-0.1,0-0.1v-5.7H83
			c-0.1,0-0.2-0.1-0.2-0.2c-0.1-0.2-0.1-0.4-0.1-0.6c0-0.1,0-0.3,0-0.4c0-0.1,0-0.2,0.1-0.2c0-0.1,0-0.1,0.1-0.1c0,0,0.1,0,0.1,0
			h0.9V17c0-0.4,0-0.9,0.1-1.3c0.1-0.3,0.2-0.6,0.4-0.9c0.2-0.2,0.5-0.4,0.8-0.5c0.4-0.1,0.7-0.2,1.1-0.2c0.2,0,0.4,0,0.6,0
			c0.1,0,0.3,0.1,0.4,0.1c0.1,0,0.1,0.1,0.2,0.1c0,0,0.1,0.1,0.1,0.1c0,0.1,0,0.2,0.1,0.3C87.7,14.8,87.7,15,87.7,15.1L87.7,15.1z"
			/>
		<path d="M92.7,25l-0.8,2.5c-0.1,0.1-0.2,0.3-0.4,0.3c-0.3,0.1-0.6,0.1-0.9,0.1c-0.2,0-0.3,0-0.5,0c-0.1,0-0.2,0-0.3-0.1
			c-0.1,0-0.1-0.1-0.1-0.2c0-0.1,0-0.1,0-0.2l1-2.4c-0.1,0-0.1-0.1-0.2-0.1c0-0.1-0.1-0.1-0.1-0.2l-2.4-6.4
			c-0.1-0.1-0.1-0.3-0.1-0.4c0-0.1,0-0.2,0.1-0.2c0.1-0.1,0.2-0.1,0.3-0.1c0.2,0,0.4,0,0.6,0h0.5c0.1,0,0.2,0,0.3,0.1
			c0.1,0,0.1,0.1,0.2,0.1c0,0.1,0.1,0.2,0.1,0.3l1.6,4.7l0,0l1.5-4.8c0-0.1,0.1-0.2,0.1-0.3c0.1-0.1,0.2-0.1,0.3-0.1
			c0.2,0,0.4,0,0.6,0c0.2,0,0.4,0,0.6,0c0.1,0,0.2,0,0.3,0.1c0.1,0.1,0.1,0.1,0.1,0.2c0,0.1,0,0.2-0.1,0.3L92.7,25z"/>
		<path d="M111.7,24.7c0,0,0,0.1,0,0.1c0,0-0.1,0.1-0.2,0.1c-0.1,0-0.2,0.1-0.3,0.1c-0.2,0-0.3,0-0.5,0c-0.2,0-0.3,0-0.5,0
			c-0.1,0-0.2,0-0.3,0c-0.1,0-0.1-0.1-0.2-0.1c0,0,0-0.1,0-0.1v-8.3l0,0l-2.9,8.2c0,0.1-0.1,0.1-0.1,0.2c-0.1,0-0.1,0.1-0.2,0.1
			c-0.1,0-0.2,0.1-0.3,0.1h-0.4h-0.4c-0.1,0-0.3,0-0.4,0c-0.1,0-0.1-0.1-0.2-0.1c0,0-0.1-0.1-0.1-0.1l-2.8-8.2l0,0v8.2
			c0,0,0,0.1,0,0.1c0,0-0.1,0.1-0.2,0.1c-0.1,0-0.2,0.1-0.3,0.1c-0.2,0-0.3,0-0.5,0c-0.2,0-0.3,0-0.5,0c-0.1,0-0.2,0-0.3-0.1
			c-0.1,0-0.1-0.1-0.2-0.1c0,0,0-0.1,0-0.1v-9c0-0.2,0.1-0.4,0.2-0.6c0.1-0.1,0.4-0.2,0.6-0.2h1.3c0.2,0,0.4,0,0.6,0.1
			c0.2,0,0.3,0.1,0.4,0.2c0.1,0.1,0.2,0.2,0.3,0.4c0.1,0.2,0.2,0.4,0.2,0.6l2.2,6l0,0l2.3-6c0.1-0.2,0.1-0.4,0.2-0.6
			c0.1-0.1,0.2-0.3,0.3-0.4c0.1-0.1,0.2-0.1,0.3-0.2c0.2,0,0.3-0.1,0.5-0.1h1.4c0.1,0,0.3,0,0.4,0.1c0.1,0,0.2,0.1,0.3,0.2
			c0.1,0.1,0.1,0.2,0.2,0.3c0,0.1,0,0.2,0,0.4L111.7,24.7z"/>
		<path d="M120.3,21c0,0.2,0,0.4-0.2,0.5c-0.1,0.1-0.3,0.2-0.4,0.2h-4.2c0,0.3,0,0.5,0.1,0.8c0.1,0.2,0.2,0.4,0.3,0.6
			c0.2,0.2,0.4,0.3,0.6,0.4c0.3,0.1,0.6,0.1,0.9,0.1c0.3,0,0.6,0,0.9-0.1c0.2,0,0.4-0.1,0.7-0.2l0.5-0.2c0.1,0,0.2-0.1,0.3-0.1
			c0,0,0.1,0,0.1,0c0,0,0.1,0.1,0.1,0.1c0,0.1,0,0.1,0,0.2c0,0.1,0,0.2,0,0.3c0,0.1,0,0.2,0,0.3c0,0.1,0,0.1,0,0.2c0,0,0,0.1,0,0.1
			c0,0,0,0.1-0.1,0.1c-0.1,0.1-0.2,0.1-0.3,0.1c-0.2,0.1-0.4,0.1-0.6,0.2c-0.3,0.1-0.5,0.1-0.8,0.1c-0.3,0.1-0.7,0.1-1,0.1
			c-0.5,0-1.1,0-1.6-0.1c-0.4-0.1-0.8-0.4-1.2-0.7c-0.3-0.3-0.6-0.7-0.7-1.2c-0.2-0.6-0.2-1.1-0.2-1.7c0-0.6,0.1-1.1,0.2-1.7
			c0.1-0.5,0.4-0.9,0.7-1.3c0.3-0.3,0.7-0.6,1.1-0.8c0.5-0.2,1-0.3,1.5-0.3c0.5,0,1,0.1,1.5,0.3c0.4,0.2,0.7,0.4,1,0.7
			c0.3,0.3,0.5,0.7,0.6,1.1c0.1,0.4,0.2,0.9,0.2,1.4L120.3,21z M118.3,20.5c0-0.5-0.1-0.9-0.3-1.3c-0.3-0.3-0.7-0.5-1.1-0.5
			c-0.2,0-0.4,0-0.7,0.1c-0.2,0.1-0.3,0.2-0.5,0.4c-0.1,0.2-0.2,0.4-0.3,0.6c-0.1,0.2-0.1,0.5-0.1,0.7H118.3z"/>
		<path d="M124.9,24c0,0.2,0,0.4,0,0.5c0,0.1-0.1,0.3-0.2,0.4c-0.1,0.1-0.2,0.2-0.3,0.2c-0.2,0-0.4,0.1-0.5,0.1
			c-0.2,0-0.4,0-0.5-0.1c-0.1,0-0.2-0.1-0.3-0.2c-0.1-0.1-0.2-0.2-0.2-0.4c0-0.2,0-0.4,0-0.5c0-0.2,0-0.4,0-0.5
			c0-0.1,0.1-0.3,0.2-0.4c0.1-0.1,0.2-0.2,0.3-0.2c0.2,0,0.4-0.1,0.5-0.1c0.2,0,0.4,0,0.5,0.1c0.1,0,0.2,0.1,0.3,0.2
			c0.1,0.1,0.2,0.2,0.2,0.4C124.9,23.6,124.9,23.8,124.9,24z M124.6,21.7c0,0,0,0.1,0,0.1c0,0-0.1,0.1-0.1,0.1
			c-0.1,0-0.2,0.1-0.3,0.1c-0.1,0-0.3,0-0.4,0c-0.1,0-0.3,0-0.4,0c-0.1,0-0.2,0-0.3-0.1c-0.1,0-0.1-0.1-0.1-0.1c0,0,0-0.1,0-0.1
			l-0.2-7.1c0-0.1,0-0.1,0-0.2c0-0.1,0.1-0.1,0.2-0.1c0.1,0,0.2-0.1,0.3-0.1h0.5h0.5c0.1,0,0.2,0,0.3,0.1c0.1,0,0.1,0.1,0.2,0.1
			c0,0.1,0,0.1,0,0.2L124.6,21.7z"/>
		<path d="M31,30c1.7,0,3.1-1,3.8-2.5h-7.6C27.9,29,29.3,30,31,30z"/>
		<path d="M37,21v-2.6c0-3-1.1-5.7-4-6.3L32.7,10h-3.3L29,12.1c-2.9,0.7-4,3.3-4,6.3V21l-2,2.8v2.1h16v-2L37,21z"/>
	</g>
</g>
</svg>
