<?xml version="1.0" encoding="utf-8"?>
<!-- Generator: Adobe Illustrator 23.0.1, SVG Export Plug-In . SVG Version: 6.00 Build 0)  -->
<svg version="1.1" id="Layer_1" xmlns="http://www.w3.org/2000/svg" xmlns:xlink="http://www.w3.org/1999/xlink" x="0px" y="0px"
	 viewBox="0 0 35.3 30.6" style="enable-background:new 0 0 35.3 30.6;" xml:space="preserve">
<style type="text/css">
	.st0{fill:#9C9D9D;}
	.st1{fill:none;stroke:#FFFFFF;stroke-width:1.5;}
</style>
<title>Asset 7</title>
<g>
	<g id="Layer_1-2">
		<path class="st0" d="M9.4,26.3c0.3,0,0.6,0.1,0.8,0.2c0.3,0.1,0.5,0.3,0.7,0.5c0.2,0.2,0.4,0.4,0.5,0.7c0.2,0.5,0.2,1.1,0,1.7
			c-0.2,0.5-0.7,1-1.2,1.2c-0.5,0.2-1.1,0.2-1.7,0c-0.3-0.1-0.5-0.3-0.7-0.5c-0.2-0.2-0.4-0.4-0.5-0.7c-0.2-0.5-0.2-1.1,0-1.7
			c0.2-0.5,0.6-1,1.2-1.2C8.9,26.3,9.1,26.3,9.4,26.3z"/>
		<path class="st0" d="M24.3,26.3c0.3,0,0.6,0.1,0.8,0.2c0.3,0.1,0.5,0.3,0.7,0.5c0.2,0.2,0.4,0.4,0.5,0.7c0.2,0.5,0.2,1.1,0,1.7
			c-0.2,0.5-0.7,1-1.2,1.2c-0.5,0.2-1.1,0.2-1.7,0c-0.3-0.1-0.5-0.3-0.7-0.5c-0.2-0.2-0.4-0.4-0.5-0.7c-0.2-0.5-0.2-1.1,0-1.7
			c0.2-0.5,0.6-1,1.2-1.2C23.8,26.3,24.1,26.3,24.3,26.3z"/>
		<polygon class="st0" points="9.1,21 26.5,21 29.1,8.2 6.8,8.2 6.2,5 0,5 0,7.2 4.4,7.2 7.7,25.3 26.7,25.3 26.7,23.2 9.4,23.2 		
			"/>
		<path class="st0" d="M34.6,6c0,0.3,0,0.7-0.1,1c-0.1,0.3-0.2,0.7-0.3,1c-0.1,0.3-0.3,0.6-0.5,0.9c-0.2,0.3-0.4,0.5-0.7,0.8
			c-0.2,0.2-0.5,0.5-0.8,0.7c-0.3,0.2-0.6,0.3-0.9,0.5c-0.3,0.1-0.7,0.2-1,0.3c-0.7,0.1-1.4,0.1-2,0c-0.3-0.1-0.7-0.2-1-0.3
			c-0.3-0.1-0.6-0.3-0.9-0.5c-0.3-0.2-0.6-0.4-0.8-0.7c-0.2-0.2-0.4-0.5-0.6-0.8c-0.2-0.3-0.4-0.6-0.5-0.9c-0.1-0.3-0.2-0.7-0.3-1
			c-0.1-0.7-0.1-1.3,0-2c0.1-0.3,0.2-0.7,0.3-1c0.1-0.3,0.3-0.6,0.5-0.9c0.2-0.3,0.4-0.5,0.6-0.8c0.2-0.2,0.5-0.5,0.8-0.7
			c0.3-0.2,0.6-0.4,0.9-0.5c0.3-0.1,0.7-0.2,1-0.3c0.7-0.1,1.4-0.1,2,0c0.3,0.1,0.7,0.2,1,0.3c0.3,0.1,0.6,0.3,0.9,0.5
			c0.3,0.2,0.6,0.4,0.8,0.7c0.2,0.2,0.5,0.5,0.7,0.8C34,3.4,34.1,3.7,34.3,4c0.1,0.3,0.2,0.7,0.3,1C34.6,5.3,34.6,5.7,34.6,6z"/>
		<path class="st1" d="M34.6,6c0,0.3,0,0.7-0.1,1c-0.1,0.3-0.2,0.7-0.3,1c-0.1,0.3-0.3,0.6-0.5,0.9c-0.2,0.3-0.4,0.5-0.7,0.8
			c-0.2,0.2-0.5,0.5-0.8,0.7c-0.3,0.2-0.6,0.3-0.9,0.5c-0.3,0.1-0.7,0.2-1,0.3c-0.7,0.1-1.4,0.1-2,0c-0.3-0.1-0.7-0.2-1-0.3
			c-0.3-0.1-0.6-0.3-0.9-0.5c-0.3-0.2-0.6-0.4-0.8-0.7c-0.2-0.2-0.4-0.5-0.6-0.8c-0.2-0.3-0.4-0.6-0.5-0.9c-0.1-0.3-0.2-0.7-0.3-1
			c-0.1-0.7-0.1-1.3,0-2c0.1-0.3,0.2-0.7,0.3-1c0.1-0.3,0.3-0.6,0.5-0.9c0.2-0.3,0.4-0.5,0.6-0.8c0.2-0.2,0.5-0.5,0.8-0.7
			c0.3-0.2,0.6-0.4,0.9-0.5c0.3-0.1,0.7-0.2,1-0.3c0.7-0.1,1.4-0.1,2,0c0.3,0.1,0.7,0.2,1,0.3c0.3,0.1,0.6,0.3,0.9,0.5
			c0.3,0.2,0.6,0.4,0.8,0.7c0.2,0.2,0.5,0.5,0.7,0.8C34,3.4,34.1,3.7,34.3,4c0.1,0.3,0.2,0.7,0.3,1C34.6,5.3,34.6,5.7,34.6,6z"/>
	</g>
</g>
</svg>
