<svg xmlns="http://www.w3.org/2000/svg" viewBox="0 0 25.67 21.72"><defs><style>.cls-1{fill:#9b9d9d;}</style></defs><title>Asset 2</title><g id="Layer_2" data-name="Layer 2"><g id="Layer_1-2" data-name="Layer 1"><path class="cls-1" d="M20.56,2A3,3,0,0,0,15,2H0V4H15a3,3,0,0,0,5.58,0h5.11V2Z"/><path class="cls-1" d="M7.9,7.9a3,3,0,0,0-2.79,2H0v2H5.11a3,3,0,0,0,5.58,0h15v-2h-15A3,3,0,0,0,7.9,7.9Z"/><path class="cls-1" d="M17.77,15.8a3,3,0,0,0-2.79,2H0v2H15a3,3,0,0,0,5.58,0h5.11v-2H20.56A3,3,0,0,0,17.77,15.8Z"/></g></g></svg>