<?xml version="1.0" encoding="utf-8"?>
<!-- Generator: Adobe Illustrator 23.0.1, SVG Export Plug-In . SVG Version: 6.00 Build 0)  -->
<svg version="1.1" id="Layer_1" xmlns="http://www.w3.org/2000/svg" xmlns:xlink="http://www.w3.org/1999/xlink" x="0px" y="0px"
	 viewBox="0 0 25.7 21.7" style="enable-background:new 0 0 25.7 21.7;" xml:space="preserve">
<style type="text/css">
	.st0{fill:#9C9D9D;}
</style>
<title>Asset 2</title>
<g>
	<g id="Layer_1-2">
		<path class="st0" d="M20.6,2c-0.6-1.5-2.4-2.3-3.9-1.7C15.9,0.7,15.3,1.2,15,2H0v2h15c0.6,1.5,2.4,2.3,3.9,1.7
			c0.8-0.3,1.4-0.9,1.7-1.7h5.1V2H20.6z"/>
		<path class="st0" d="M7.9,7.9c-1.3,0-2.4,0.8-2.8,2H0v2h5.1c0.6,1.5,2.4,2.3,3.9,1.7c0.8-0.3,1.4-0.9,1.7-1.7h15v-2h-15
			C10.3,8.7,9.2,7.9,7.9,7.9z"/>
		<path class="st0" d="M17.8,15.8c-1.3,0-2.4,0.8-2.8,2H0v2h15c0.6,1.5,2.4,2.3,3.9,1.7c0.8-0.3,1.4-0.9,1.7-1.7h5.1v-2h-5.1
			C20.1,16.6,19,15.8,17.8,15.8z"/>
	</g>
</g>
</svg>
