<?xml version="1.0" encoding="utf-8"?>
<!-- Generator: Adobe Illustrator 23.0.1, SVG Export Plug-In . SVG Version: 6.00 Build 0)  -->
<svg version="1.1" id="Layer_1" xmlns="http://www.w3.org/2000/svg" xmlns:xlink="http://www.w3.org/1999/xlink" x="0px" y="0px"
	 viewBox="0 0 20 25" style="enable-background:new 0 0 20 25;" xml:space="preserve">
<style type="text/css">
	.st0{fill:#9C9D9D;}
</style>
<title>Asset 5</title>
<g>
	<g id="Layer_1-2">
		<path class="st0" d="M10.7,0.6V9c0,0.1,0.1,0.2,0.2,0.2h8.5c0,0,0.1,0,0.1-0.1c0,0,0-0.1,0-0.1l-8.6-8.6
			C10.9,0.5,10.9,0.5,10.7,0.6C10.8,0.5,10.8,0.5,10.7,0.6z"/>
		<path class="st0" d="M15.4,15.2H4.6v-1.8h10.9V15.2z M15.4,19.6H4.6v-1.8h10.9V19.6z M9.5,10.7c-0.2,0-0.5-0.2-0.5-0.4
			c0,0,0,0,0,0V0H0.7C0.3,0,0,0.3,0,0.7v23.7C0,24.7,0.3,25,0.7,25h18.6c0.4,0,0.7-0.3,0.7-0.7V10.7L9.5,10.7z"/>
	</g>
</g>
</svg>
