<svg xmlns="http://www.w3.org/2000/svg" viewBox="0 0 20 25"><defs><style>.cls-1{fill:#9b9d9d;}</style></defs><title>Asset 5</title><g id="Layer_2" data-name="Layer 2"><g id="Layer_1-2" data-name="Layer 1"><path class="cls-1" d="M10.74.56V9a.24.24,0,0,0,.24.24h8.46a.12.12,0,0,0,.11-.08.13.13,0,0,0,0-.12L10.94.48a.13.13,0,0,0-.12,0A.12.12,0,0,0,10.74.56Z"/><path class="cls-1" d="M15.45,15.18H4.55V13.39h10.9Zm0,4.46H4.55V17.86h10.9Zm-5.9-8.93a.45.45,0,0,1-.46-.44V0H.68A.68.68,0,0,0,0,.67V24.33A.68.68,0,0,0,.68,25H19.32a.68.68,0,0,0,.68-.67V10.71Z"/></g></g></svg>