<svg xmlns="http://www.w3.org/2000/svg" viewBox="0 0 36 36"><defs><style>.cls-1{fill:#faa41a;}.cls-2{fill:none;stroke:#000;stroke-linecap:round;stroke-linejoin:round;stroke-width:2px;}</style></defs><title>Asset 3</title><g id="Layer_2" data-name="Layer 2"><g id="Layer_1-2" data-name="Layer 1"><path class="cls-1" d="M36,18a17.14,17.14,0,0,1-.09,1.76,14.77,14.77,0,0,1-.26,1.75,14.91,14.91,0,0,1-.43,1.72,17.29,17.29,0,0,1-.59,1.66c-.23.54-.48,1.08-.76,1.6s-.58,1-.9,1.51-.68,1-1.06,1.42-.77.89-1.18,1.31-.86.81-1.31,1.18S28.49,32.64,28,33s-1,.63-1.51.9-1.06.53-1.6.76a17.29,17.29,0,0,1-1.66.59,14.91,14.91,0,0,1-1.72.43,14.77,14.77,0,0,1-1.75.26,17.25,17.25,0,0,1-3.52,0,14.77,14.77,0,0,1-1.75-.26,14.91,14.91,0,0,1-1.72-.43,17.29,17.29,0,0,1-1.66-.59c-.54-.23-1.08-.48-1.6-.76s-1-.58-1.51-.9-1-.68-1.42-1.06-.89-.77-1.31-1.18-.81-.86-1.18-1.31S3.36,28.49,3,28s-.63-1-.9-1.51-.53-1.06-.76-1.6a17.29,17.29,0,0,1-.59-1.66,14.91,14.91,0,0,1-.43-1.72,14.77,14.77,0,0,1-.26-1.75,17.25,17.25,0,0,1,0-3.52,14.77,14.77,0,0,1,.26-1.75,14.91,14.91,0,0,1,.43-1.72,17.29,17.29,0,0,1,.59-1.66c.23-.54.48-1.08.76-1.6S2.71,8.49,3,8s.68-1,1.06-1.42.77-.89,1.18-1.31.86-.81,1.31-1.18S7.51,3.36,8,3s1-.63,1.51-.9,1.06-.53,1.6-.76A17.29,17.29,0,0,1,12.77.78,14.91,14.91,0,0,1,14.49.35,14.77,14.77,0,0,1,16.24.09a17.25,17.25,0,0,1,3.52,0,14.77,14.77,0,0,1,1.75.26,14.91,14.91,0,0,1,1.72.43,17.29,17.29,0,0,1,1.66.59c.54.23,1.08.48,1.6.76s1,.58,1.51.9,1,.68,1.42,1.06.89.77,1.31,1.18.81.86,1.18,1.31S32.64,7.51,33,8s.63,1,.9,1.51.53,1.06.76,1.6a17.29,17.29,0,0,1,.59,1.66,14.91,14.91,0,0,1,.43,1.72,14.77,14.77,0,0,1,.26,1.75A17.14,17.14,0,0,1,36,18Z"/><path class="cls-2" d="M20.14,22.8a7,7,0,1,0-9.24-3.73A7,7,0,0,0,20.14,22.8Z"/><line class="cls-2" x1="22.37" y1="21.29" x2="27.83" y2="26.75"/></g></g></svg>