<?xml version="1.0" encoding="utf-8"?>
<!-- Generator: Adobe Illustrator 23.0.1, SVG Export Plug-In . SVG Version: 6.00 Build 0)  -->
<svg version="1.1" id="Layer_1" xmlns="http://www.w3.org/2000/svg" xmlns:xlink="http://www.w3.org/1999/xlink" x="0px" y="0px"
	 viewBox="0 0 36 36" style="enable-background:new 0 0 36 36;" xml:space="preserve">
<style type="text/css">
	.st0{fill:#FFA500;}
	.st1{fill:none;stroke:#000000;stroke-width:2;stroke-linecap:round;stroke-linejoin:round;}
</style>
<title>Asset 3</title>
<g>
	<g id="Layer_1-2">
		<path class="st0" d="M36,18c0,0.6,0,1.2-0.1,1.8c-0.1,0.6-0.1,1.2-0.3,1.8c-0.1,0.6-0.3,1.2-0.4,1.7c-0.2,0.6-0.4,1.1-0.6,1.7
			c-0.2,0.5-0.5,1.1-0.8,1.6s-0.6,1-0.9,1.5s-0.7,1-1.1,1.4s-0.8,0.9-1.2,1.3s-0.9,0.8-1.3,1.2C29,32.3,28.5,32.6,28,33
			s-1,0.6-1.5,0.9s-1.1,0.5-1.6,0.8c-0.5,0.2-1.1,0.4-1.7,0.6c-0.6,0.2-1.1,0.3-1.7,0.4c-0.6,0.1-1.2,0.2-1.8,0.3
			c-1.2,0.1-2.3,0.1-3.5,0c-0.6-0.1-1.2-0.1-1.8-0.3c-0.6-0.1-1.2-0.3-1.7-0.4c-0.6-0.2-1.1-0.4-1.7-0.6c-0.5-0.2-1.1-0.5-1.6-0.8
			S8.5,33.3,8,33s-1-0.7-1.4-1.1s-0.9-0.8-1.3-1.2s-0.8-0.9-1.2-1.3S3.4,28.5,3,28s-0.6-1-0.9-1.5s-0.5-1.1-0.8-1.6
			c-0.2-0.5-0.4-1.1-0.6-1.7c-0.2-0.6-0.3-1.1-0.4-1.7c-0.1-0.6-0.2-1.2-0.3-1.8c-0.1-1.2-0.1-2.3,0-3.5c0.1-0.6,0.1-1.2,0.3-1.8
			c0.1-0.6,0.3-1.2,0.4-1.7c0.2-0.6,0.4-1.1,0.6-1.7c0.2-0.5,0.5-1.1,0.8-1.6S2.7,8.5,3,8s0.7-1,1.1-1.4s0.8-0.9,1.2-1.3
			s0.9-0.8,1.3-1.2S7.5,3.4,8,3s1-0.6,1.5-0.9s1.1-0.5,1.6-0.8c0.5-0.2,1.1-0.4,1.7-0.6c0.6-0.2,1.1-0.3,1.7-0.4
			c0.6-0.1,1.2-0.2,1.8-0.3c1.2-0.1,2.3-0.1,3.5,0c0.6,0.1,1.2,0.1,1.8,0.3c0.6,0.1,1.2,0.3,1.7,0.4c0.6,0.2,1.1,0.4,1.7,0.6
			c0.5,0.2,1.1,0.5,1.6,0.8s1,0.6,1.5,0.9s1,0.7,1.4,1.1s0.9,0.8,1.3,1.2s0.8,0.9,1.2,1.3C32.3,7,32.6,7.5,33,8s0.6,1,0.9,1.5
			s0.5,1.1,0.8,1.6c0.2,0.5,0.4,1.1,0.6,1.7c0.2,0.6,0.3,1.1,0.4,1.7c0.1,0.6,0.2,1.2,0.3,1.8C36,16.8,36,17.4,36,18z"/>
		<path class="st1" d="M20.1,22.8c3.5-1.5,5.2-5.7,3.6-9.2c-1.5-3.5-5.7-5.2-9.2-3.6c-3.5,1.5-5.2,5.6-3.7,9.1
			C12.4,22.6,16.5,24.3,20.1,22.8C20.1,22.8,20.1,22.8,20.1,22.8z"/>
		<line class="st1" x1="22.4" y1="21.3" x2="27.8" y2="26.8"/>
	</g>
</g>
</svg>
