<svg xmlns="http://www.w3.org/2000/svg" viewBox="0 0 14 14"><defs><style>.cls-1{fill:#8e1a1c;}.cls-2{fill:none;stroke:#fff;stroke-linecap:round;stroke-width:1.5px;}</style></defs><title>Asset 6</title><g id="Layer_2" data-name="Layer 2"><g id="Layer_1-2" data-name="Layer 1"><path class="cls-1" d="M14,7a7.06,7.06,0,0,1-.13,1.37,7.61,7.61,0,0,1-.4,1.31,7.05,7.05,0,0,1-.65,1.21A8,8,0,0,1,12,12a8,8,0,0,1-1.06.87,7.05,7.05,0,0,1-1.21.65,7.61,7.61,0,0,1-1.31.4,7.28,7.28,0,0,1-2.74,0,7.61,7.61,0,0,1-1.31-.4,7.05,7.05,0,0,1-1.21-.65A8,8,0,0,1,2.05,12a8,8,0,0,1-.87-1.06A7.05,7.05,0,0,1,.53,9.68a7.61,7.61,0,0,1-.4-1.31,7.28,7.28,0,0,1,0-2.74,7.61,7.61,0,0,1,.4-1.31,7.05,7.05,0,0,1,.65-1.21,8,8,0,0,1,.87-1.06,8,8,0,0,1,1.06-.87A7.05,7.05,0,0,1,4.32.53,7.61,7.61,0,0,1,5.63.13a7.28,7.28,0,0,1,2.74,0,7.61,7.61,0,0,1,1.31.4,7.05,7.05,0,0,1,1.21.65A8,8,0,0,1,12,2.05a8,8,0,0,1,.87,1.06,7.05,7.05,0,0,1,.65,1.21,7.61,7.61,0,0,1,.4,1.31A7.06,7.06,0,0,1,14,7Z"/><line class="cls-2" x1="4.2" y1="9.96" x2="9.86" y2="4.3"/><line class="cls-2" x1="4.2" y1="4.31" x2="9.86" y2="9.97"/></g></g></svg>